Niagara-Thin.ufo
<glyph name="exclam" format="1">
  <advance width="118"/>
  <unicode hex="0021"/>
  <outline>
    <contour>
      <point x="74" y="406" type="line"/>
      <point x="64" y="130" type="line"/>
      <point x="54" y="130" type="line"/>
      <point x="44" y="406" type="line"/>
      <point x="44" y="700" type="line"/>
      <point x="74" y="700" type="line"/>
    </contour>
    <contour>
      <point x="74" y="0" type="line"/>
      <point x="44" y="0" type="line"/>
      <point x="44" y="85" type="line"/>
      <point x="74" y="85" type="line"/>
    </contour>
  </outline>
</glyph>
<glyph name="quotedbl" format="1">
  <advance width="190"/>
  <unicode hex="0022"/>
  <outline>
    <contour>
      <point x="149" y="682" type="line"/>
      <point x="137" y="520" type="line"/>
      <point x="129" y="520" type="line"/>
      <point x="117" y="682" type="line"/>
      <point x="117" y="700" type="line"/>
      <point x="149" y="700" type="line"/>
    </contour>
    <contour>
      <point x="73" y="682" type="line"/>
      <point x="61" y="520" type="line"/>
      <point x="53" y="520" type="line"/>
      <point x="41" y="682" type="line"/>
      <point x="41" y="700" type="line"/>
      <point x="73" y="700" type="line"/>
    </contour>
  </outline>
</glyph>
<glyph name="numbersign" format="1">
  <advance width="330"/>
  <unicode hex="0023"/>
  <outline>
    <contour>
      <point x="314" y="498" type="line"/>
      <point x="260" y="498" type="line"/>
      <point x="234" y="202" type="line"/>
      <point x="291" y="202" type="line"/>
      <point x="291" y="192" type="line"/>
      <point x="233" y="192" type="line"/>
      <point x="217" y="0" type="line"/>
      <point x="189" y="0" type="line"/>
      <point x="205" y="192" type="line"/>
      <point x="97" y="192" type="line"/>
      <point x="81" y="0" type="line"/>
      <point x="53" y="0" type="line"/>
      <point x="69" y="192" type="line"/>
      <point x="16" y="192" type="line"/>
      <point x="16" y="202" type="line"/>
      <point x="70" y="202" type="line"/>
      <point x="96" y="498" type="line"/>
      <point x="39" y="498" type="line"/>
      <point x="39" y="508" type="line"/>
      <point x="97" y="508" type="line"/>
      <point x="113" y="700" type="line"/>
      <point x="141" y="700" type="line"/>
      <point x="125" y="508" type="line"/>
      <point x="233" y="508" type="line"/>
      <point x="249" y="700" type="line"/>
      <point x="277" y="700" type="line"/>
      <point x="261" y="508" type="line"/>
      <point x="314" y="508" type="line"/>
    </contour>
    <contour>
      <point x="232" y="498" type="line"/>
      <point x="124" y="498" type="line"/>
      <point x="98" y="202" type="line"/>
      <point x="206" y="202" type="line"/>
    </contour>
  </outline>
</glyph>
<glyph name="dollar" format="1">
  <advance width="270"/>
  <unicode hex="0024"/>
  <outline>
    <contour>
      <point x="229" y="107" type="line" smooth="yes"/>
      <point x="229" y="35"/>
      <point x="192" y="4"/>
      <point x="142" y="1" type="curve"/>
      <point x="142" y="-60" type="line"/>
      <point x="128" y="-60" type="line"/>
      <point x="128" y="1" type="line"/>
      <point x="78" y="4"/>
      <point x="41" y="35"/>
      <point x="41" y="107" type="curve" smooth="yes"/>
      <point x="41" y="210" type="line"/>
      <point x="71" y="210" type="line"/>
      <point x="71" y="91" type="line" smooth="yes"/>
      <point x="71" y="40"/>
      <point x="90" y="11"/>
      <point x="135" y="11" type="curve" smooth="yes"/>
      <point x="180" y="11"/>
      <point x="199" y="40"/>
      <point x="199" y="91" type="curve" smooth="yes"/>
      <point x="199" y="173" type="line" smooth="yes"/>
      <point x="199" y="221"/>
      <point x="186" y="252"/>
      <point x="163" y="285" type="curve" smooth="yes"/>
      <point x="77" y="408" type="line" smooth="yes"/>
      <point x="54" y="441"/>
      <point x="41" y="480"/>
      <point x="41" y="528" type="curve" smooth="yes"/>
      <point x="41" y="593" type="line" smooth="yes"/>
      <point x="41" y="665"/>
      <point x="78" y="696"/>
      <point x="128" y="699" type="curve"/>
      <point x="128" y="760" type="line"/>
      <point x="142" y="760" type="line"/>
      <point x="142" y="699" type="line"/>
      <point x="192" y="696"/>
      <point x="229" y="665"/>
      <point x="229" y="593" type="curve" smooth="yes"/>
      <point x="229" y="490" type="line"/>
      <point x="199" y="490" type="line"/>
      <point x="199" y="609" type="line" smooth="yes"/>
      <point x="199" y="660"/>
      <point x="180" y="689"/>
      <point x="135" y="689" type="curve" smooth="yes"/>
      <point x="90" y="689"/>
      <point x="71" y="660"/>
      <point x="71" y="609" type="curve" smooth="yes"/>
      <point x="71" y="531" type="line" smooth="yes"/>
      <point x="71" y="483"/>
      <point x="84" y="452"/>
      <point x="107" y="419" type="curve" smooth="yes"/>
      <point x="193" y="296" type="line" smooth="yes"/>
      <point x="216" y="263"/>
      <point x="229" y="224"/>
      <point x="229" y="176" type="curve" smooth="yes"/>
    </contour>
  </outline>
</glyph>
<glyph name="ampersand" format="1">
  <advance width="284"/>
  <unicode hex="0026"/>
  <outline>
    <contour>
      <point x="272" y="365" type="line"/>
      <point x="241" y="365" type="line"/>
      <point x="241" y="104" type="line" smooth="yes"/>
      <point x="241" y="29"/>
      <point x="194" y="-5"/>
      <point x="142" y="-5" type="curve" smooth="yes"/>
      <point x="90" y="-5"/>
      <point x="43" y="29"/>
      <point x="43" y="104" type="curve" smooth="yes"/>
      <point x="43" y="266" type="line" smooth="yes"/>
      <point x="43" y="332"/>
      <point x="78" y="361"/>
      <point x="118" y="370" type="curve"/>
      <point x="78" y="379"/>
      <point x="43" y="407"/>
      <point x="43" y="474" type="curve" smooth="yes"/>
      <point x="43" y="596" type="line" smooth="yes"/>
      <point x="43" y="671"/>
      <point x="90" y="705"/>
      <point x="142" y="705" type="curve" smooth="yes"/>
      <point x="194" y="705"/>
      <point x="241" y="671"/>
      <point x="241" y="596" type="curve" smooth="yes"/>
      <point x="241" y="490" type="line"/>
      <point x="211" y="490" type="line"/>
      <point x="211" y="612" type="line" smooth="yes"/>
      <point x="211" y="663"/>
      <point x="185" y="695"/>
      <point x="142" y="695" type="curve" smooth="yes"/>
      <point x="99" y="695"/>
      <point x="73" y="663"/>
      <point x="73" y="612" type="curve" smooth="yes"/>
      <point x="73" y="458" type="line" smooth="yes"/>
      <point x="73" y="405"/>
      <point x="101" y="375"/>
      <point x="146" y="375" type="curve" smooth="yes"/>
      <point x="272" y="375" type="line"/>
    </contour>
    <contour>
      <point x="211" y="88" type="curve" smooth="yes"/>
      <point x="211" y="365" type="line"/>
      <point x="146" y="365" type="line" smooth="yes"/>
      <point x="101" y="365"/>
      <point x="73" y="335"/>
      <point x="73" y="282" type="curve" smooth="yes"/>
      <point x="73" y="88" type="line" smooth="yes"/>
      <point x="73" y="37"/>
      <point x="99" y="5"/>
      <point x="142" y="5" type="curve" smooth="yes"/>
      <point x="185" y="5"/>
      <point x="211" y="37"/>
    </contour>
  </outline>
</glyph>
<glyph name="quotesingle" format="1">
  <advance width="114"/>
  <unicode hex="0027"/>
  <outline>
    <contour>
      <point x="73" y="682" type="line"/>
      <point x="61" y="520" type="line"/>
      <point x="53" y="520" type="line"/>
      <point x="41" y="682" type="line"/>
      <point x="41" y="700" type="line"/>
      <point x="73" y="700" type="line"/>
    </contour>
  </outline>
</glyph>
<glyph name="parenleft" format="1">
  <advance width="172"/>
  <unicode hex="0028"/>
  <outline>
    <contour>
      <point x="150" y="0" type="line"/>
      <point x="134" y="0" type="line" smooth="yes"/>
      <point x="76" y="0"/>
      <point x="46" y="35"/>
      <point x="46" y="91" type="curve" smooth="yes"/>
      <point x="46" y="609" type="line" smooth="yes"/>
      <point x="46" y="665"/>
      <point x="76" y="700"/>
      <point x="134" y="700" type="curve" smooth="yes"/>
      <point x="150" y="700" type="line"/>
      <point x="150" y="690" type="line"/>
      <point x="136" y="690" type="line" smooth="yes"/>
      <point x="96" y="690"/>
      <point x="76" y="667"/>
      <point x="76" y="623" type="curve" smooth="yes"/>
      <point x="76" y="77" type="line" smooth="yes"/>
      <point x="76" y="33"/>
      <point x="96" y="10"/>
      <point x="136" y="10" type="curve" smooth="yes"/>
      <point x="150" y="10" type="line"/>
    </contour>
  </outline>
</glyph>
<glyph name="parenright" format="1">
  <advance width="172"/>
  <unicode hex="0029"/>
  <outline>
    <contour>
      <point x="126" y="91" type="line" smooth="yes"/>
      <point x="126" y="35"/>
      <point x="96" y="0"/>
      <point x="38" y="0" type="curve" smooth="yes"/>
      <point x="22" y="0" type="line"/>
      <point x="22" y="10" type="line"/>
      <point x="36" y="10" type="line" smooth="yes"/>
      <point x="76" y="10"/>
      <point x="96" y="33"/>
      <point x="96" y="77" type="curve" smooth="yes"/>
      <point x="96" y="623" type="line" smooth="yes"/>
      <point x="96" y="667"/>
      <point x="76" y="690"/>
      <point x="36" y="690" type="curve" smooth="yes"/>
      <point x="22" y="690" type="line"/>
      <point x="22" y="700" type="line"/>
      <point x="38" y="700" type="line" smooth="yes"/>
      <point x="96" y="700"/>
      <point x="126" y="665"/>
      <point x="126" y="609" type="curve" smooth="yes"/>
    </contour>
  </outline>
</glyph>
<glyph name="asterisk" format="1">
  <advance width="260"/>
  <unicode hex="002A"/>
  <outline>
    <contour>
      <point x="235" y="526" type="line"/>
      <point x="231" y="520" type="line"/>
      <point x="140" y="566" type="line"/>
      <point x="134" y="468" type="line"/>
      <point x="126" y="468" type="line"/>
      <point x="120" y="566" type="line"/>
      <point x="29" y="520" type="line"/>
      <point x="25" y="526" type="line"/>
      <point x="112" y="584" type="line"/>
      <point x="25" y="642" type="line"/>
      <point x="29" y="648" type="line"/>
      <point x="120" y="602" type="line"/>
      <point x="126" y="700" type="line"/>
      <point x="134" y="700" type="line"/>
      <point x="140" y="602" type="line"/>
      <point x="231" y="648" type="line"/>
      <point x="235" y="642" type="line"/>
      <point x="148" y="584" type="line"/>
    </contour>
  </outline>
</glyph>
<glyph name="plus" format="1">
  <advance width="230"/>
  <unicode hex="002B"/>
  <outline>
    <contour>
      <point x="213" y="364" type="line"/>
      <point x="122" y="364" type="line"/>
      <point x="122" y="270" type="line"/>
      <point x="108" y="270" type="line"/>
      <point x="108" y="364" type="line"/>
      <point x="17" y="364" type="line"/>
      <point x="17" y="376" type="line"/>
      <point x="108" y="376" type="line"/>
      <point x="108" y="470" type="line"/>
      <point x="122" y="470" type="line"/>
      <point x="122" y="376" type="line"/>
      <point x="213" y="376" type="line"/>
    </contour>
  </outline>
</glyph>
<glyph name="comma" format="1">
  <advance width="110"/>
  <unicode hex="002C"/>
  <outline>
    <contour>
      <point x="75" y="65" type="line"/>
      <point x="41" y="-52" type="line"/>
      <point x="33" y="-52" type="line"/>
      <point x="43" y="85" type="line"/>
      <point x="75" y="85" type="line"/>
    </contour>
  </outline>
</glyph>
<glyph name="hyphen" format="1">
  <advance width="150"/>
  <unicode hex="002D"/>
  <unicode hex="2010"/>
  <unicode hex="2011"/>
  <outline>
    <contour>
      <point x="130" y="364" type="line"/>
      <point x="20" y="364" type="line"/>
      <point x="20" y="376" type="line"/>
      <point x="130" y="376" type="line"/>
    </contour>
  </outline>
</glyph>
<glyph name="period" format="1">
  <advance width="110"/>
  <unicode hex="002E"/>
  <outline>
    <contour>
      <point x="70" y="0" type="line"/>
      <point x="40" y="0" type="line"/>
      <point x="40" y="85" type="line"/>
      <point x="70" y="85" type="line"/>
    </contour>
  </outline>
</glyph>
<glyph name="slash" format="1">
  <advance width="147"/>
  <unicode hex="002F"/>
  <outline>
    <contour>
      <point x="131" y="700" type="line"/>
      <point x="31" y="0" type="line"/>
      <point x="16" y="0" type="line"/>
      <point x="116" y="700" type="line"/>
    </contour>
  </outline>
</glyph>
<glyph name="two" format="1">
  <advance width="266"/>
  <unicode hex="0032"/>
  <outline>
    <contour>
      <point x="225" y="0" type="line"/>
      <point x="41" y="0" type="line"/>
      <point x="41" y="173" type="line" smooth="yes"/>
      <point x="41" y="221"/>
      <point x="56" y="261"/>
      <point x="77" y="293" type="curve" smooth="yes"/>
      <point x="159" y="416" type="line" smooth="yes"/>
      <point x="182" y="450"/>
      <point x="195" y="480"/>
      <point x="195" y="528" type="curve" smooth="yes"/>
      <point x="195" y="615" type="line" smooth="yes"/>
      <point x="195" y="666"/>
      <point x="173" y="695"/>
      <point x="133" y="695" type="curve" smooth="yes"/>
      <point x="93" y="695"/>
      <point x="71" y="666"/>
      <point x="71" y="615" type="curve" smooth="yes"/>
      <point x="71" y="490" type="line"/>
      <point x="41" y="490" type="line"/>
      <point x="41" y="599" type="line" smooth="yes"/>
      <point x="41" y="674"/>
      <point x="83" y="705"/>
      <point x="133" y="705" type="curve" smooth="yes"/>
      <point x="183" y="705"/>
      <point x="225" y="674"/>
      <point x="225" y="599" type="curve" smooth="yes"/>
      <point x="225" y="531" type="line" smooth="yes"/>
      <point x="225" y="483"/>
      <point x="212" y="445"/>
      <point x="189" y="411" type="curve" smooth="yes"/>
      <point x="107" y="288" type="line" smooth="yes"/>
      <point x="86" y="256"/>
      <point x="71" y="224"/>
      <point x="71" y="176" type="curve" smooth="yes"/>
      <point x="71" y="10" type="line"/>
      <point x="195" y="10" type="line"/>
      <point x="195" y="210" type="line"/>
      <point x="225" y="210" type="line"/>
    </contour>
  </outline>
</glyph>
<glyph name="three" format="1">
  <advance width="274"/>
  <unicode hex="0033"/>
  <outline>
    <contour>
      <point x="231" y="101" type="line" smooth="yes"/>
      <point x="231" y="26"/>
      <point x="187" y="-5"/>
      <point x="133" y="-5" type="curve" smooth="yes"/>
      <point x="79" y="-5"/>
      <point x="35" y="26"/>
      <point x="35" y="101" type="curve" smooth="yes"/>
      <point x="35" y="210" type="line"/>
      <point x="65" y="210" type="line"/>
      <point x="65" y="85" type="line" smooth="yes"/>
      <point x="65" y="34"/>
      <point x="88" y="5"/>
      <point x="133" y="5" type="curve" smooth="yes"/>
      <point x="178" y="5"/>
      <point x="201" y="34"/>
      <point x="201" y="85" type="curve" smooth="yes"/>
      <point x="201" y="282" type="line" smooth="yes"/>
      <point x="201" y="335"/>
      <point x="173" y="365"/>
      <point x="128" y="365" type="curve" smooth="yes"/>
      <point x="86" y="365" type="line"/>
      <point x="86" y="375" type="line"/>
      <point x="128" y="375" type="line" smooth="yes"/>
      <point x="173" y="375"/>
      <point x="201" y="405"/>
      <point x="201" y="458" type="curve" smooth="yes"/>
      <point x="201" y="615" type="line" smooth="yes"/>
      <point x="201" y="666"/>
      <point x="178" y="695"/>
      <point x="133" y="695" type="curve" smooth="yes"/>
      <point x="88" y="695"/>
      <point x="65" y="666"/>
      <point x="65" y="615" type="curve" smooth="yes"/>
      <point x="65" y="490" type="line"/>
      <point x="35" y="490" type="line"/>
      <point x="35" y="599" type="line" smooth="yes"/>
      <point x="35" y="674"/>
      <point x="79" y="705"/>
      <point x="133" y="705" type="curve" smooth="yes"/>
      <point x="187" y="705"/>
      <point x="231" y="674"/>
      <point x="231" y="599" type="curve" smooth="yes"/>
      <point x="231" y="474" type="line" smooth="yes"/>
      <point x="231" y="407"/>
      <point x="196" y="379"/>
      <point x="156" y="370" type="curve"/>
      <point x="196" y="361"/>
      <point x="231" y="332"/>
      <point x="231" y="266" type="curve" smooth="yes"/>
    </contour>
  </outline>
</glyph>
<glyph name="four" format="1">
  <advance width="235"/>
  <unicode hex="0034"/>
  <outline>
    <contour>
      <point x="207" y="0" type="line"/>
      <point x="127" y="0" type="line"/>
      <point x="127" y="10" type="line"/>
      <point x="152" y="10" type="line"/>
      <point x="152" y="161" type="line"/>
      <point x="15" y="161" type="line"/>
      <point x="15" y="174" type="line"/>
      <point x="152" y="700" type="line"/>
      <point x="182" y="700" type="line"/>
      <point x="182" y="174" type="line"/>
      <point x="207" y="174" type="line"/>
      <point x="207" y="161" type="line"/>
      <point x="182" y="161" type="line"/>
      <point x="182" y="10" type="line"/>
      <point x="207" y="10" type="line"/>
    </contour>
    <contour>
      <point x="152" y="174" type="line"/>
      <point x="152" y="647" type="line"/>
      <point x="30" y="174" type="line"/>
    </contour>
  </outline>
</glyph>
<glyph name="five" format="1">
  <advance width="271"/>
  <unicode hex="0035"/>
  <outline>
    <contour>
      <point x="233" y="101" type="line" smooth="yes"/>
      <point x="233" y="26"/>
      <point x="190" y="-5"/>
      <point x="136" y="-5" type="curve" smooth="yes"/>
      <point x="82" y="-5"/>
      <point x="39" y="26"/>
      <point x="39" y="101" type="curve" smooth="yes"/>
      <point x="39" y="210" type="line"/>
      <point x="69" y="210" type="line"/>
      <point x="69" y="85" type="line" smooth="yes"/>
      <point x="69" y="34"/>
      <point x="91" y="5"/>
      <point x="136" y="5" type="curve" smooth="yes"/>
      <point x="181" y="5"/>
      <point x="203" y="34"/>
      <point x="203" y="85" type="curve" smooth="yes"/>
      <point x="203" y="285" type="line" smooth="yes"/>
      <point x="203" y="336"/>
      <point x="180" y="365"/>
      <point x="135" y="365" type="curve" smooth="yes"/>
      <point x="41" y="365" type="line"/>
      <point x="41" y="700" type="line"/>
      <point x="226" y="700" type="line"/>
      <point x="226" y="490" type="line"/>
      <point x="196" y="490" type="line"/>
      <point x="196" y="690" type="line"/>
      <point x="71" y="690" type="line"/>
      <point x="71" y="375" type="line"/>
      <point x="135" y="375" type="line" smooth="yes"/>
      <point x="189" y="375"/>
      <point x="233" y="344"/>
      <point x="233" y="269" type="curve" smooth="yes"/>
    </contour>
  </outline>
</glyph>
<glyph name="six" format="1">
  <advance width="280"/>
  <unicode hex="0036"/>
  <outline>
    <contour>
      <point x="239" y="101" type="line" smooth="yes"/>
      <point x="239" y="26"/>
      <point x="195" y="-5"/>
      <point x="141" y="-5" type="curve" smooth="yes"/>
      <point x="87" y="-5"/>
      <point x="43" y="26"/>
      <point x="43" y="101" type="curve" smooth="yes"/>
      <point x="43" y="599" type="line" smooth="yes"/>
      <point x="43" y="674"/>
      <point x="87" y="705"/>
      <point x="141" y="705" type="curve" smooth="yes"/>
      <point x="195" y="705"/>
      <point x="239" y="674"/>
      <point x="239" y="599" type="curve" smooth="yes"/>
      <point x="239" y="490" type="line"/>
      <point x="209" y="490" type="line"/>
      <point x="209" y="615" type="line" smooth="yes"/>
      <point x="209" y="666"/>
      <point x="186" y="695"/>
      <point x="141" y="695" type="curve" smooth="yes"/>
      <point x="96" y="695"/>
      <point x="73" y="666"/>
      <point x="73" y="615" type="curve" smooth="yes"/>
      <point x="73" y="358" type="line"/>
      <point x="91" y="372"/>
      <point x="118" y="384"/>
      <point x="155" y="384" type="curve" smooth="yes"/>
      <point x="208" y="384"/>
      <point x="239" y="355"/>
      <point x="239" y="299" type="curve" smooth="yes"/>
    </contour>
    <contour>
      <point x="209" y="85" type="curve" smooth="yes"/>
      <point x="209" y="306" type="line" smooth="yes"/>
      <point x="209" y="348"/>
      <point x="187" y="372"/>
      <point x="149" y="372" type="curve" smooth="yes"/>
      <point x="116" y="372"/>
      <point x="92" y="361"/>
      <point x="73" y="345" type="curve"/>
      <point x="73" y="85" type="line" smooth="yes"/>
      <point x="73" y="34"/>
      <point x="96" y="5"/>
      <point x="141" y="5" type="curve" smooth="yes"/>
      <point x="186" y="5"/>
      <point x="209" y="34"/>
    </contour>
  </outline>
</glyph>
<glyph name="seven" format="1">
  <advance width="254"/>
  <unicode hex="0037"/>
  <outline>
    <contour>
      <point x="225" y="690" type="line"/>
      <point x="107" y="0" type="line"/>
      <point x="79" y="0" type="line"/>
      <point x="197" y="690" type="line"/>
      <point x="58" y="690" type="line"/>
      <point x="58" y="490" type="line"/>
      <point x="28" y="490" type="line"/>
      <point x="28" y="700" type="line"/>
      <point x="225" y="700" type="line"/>
    </contour>
  </outline>
</glyph>
<glyph name="eight" format="1">
  <advance width="292"/>
  <unicode hex="0038"/>
  <outline>
    <contour>
      <point x="249" y="104" type="line" smooth="yes"/>
      <point x="249" y="29"/>
      <point x="200" y="-5"/>
      <point x="146" y="-5" type="curve" smooth="yes"/>
      <point x="92" y="-5"/>
      <point x="43" y="29"/>
      <point x="43" y="104" type="curve" smooth="yes"/>
      <point x="43" y="266" type="line" smooth="yes"/>
      <point x="43" y="332"/>
      <point x="78" y="361"/>
      <point x="118" y="370" type="curve"/>
      <point x="78" y="379"/>
      <point x="43" y="407"/>
      <point x="43" y="474" type="curve" smooth="yes"/>
      <point x="43" y="596" type="line" smooth="yes"/>
      <point x="43" y="671"/>
      <point x="92" y="705"/>
      <point x="146" y="705" type="curve" smooth="yes"/>
      <point x="200" y="705"/>
      <point x="249" y="671"/>
      <point x="249" y="596" type="curve" smooth="yes"/>
      <point x="249" y="474" type="line" smooth="yes"/>
      <point x="249" y="407"/>
      <point x="214" y="379"/>
      <point x="174" y="370" type="curve"/>
      <point x="214" y="361"/>
      <point x="249" y="332"/>
      <point x="249" y="266" type="curve" smooth="yes"/>
    </contour>
    <contour>
      <point x="219" y="458" type="curve" smooth="yes"/>
      <point x="219" y="612" type="line" smooth="yes"/>
      <point x="219" y="663"/>
      <point x="191" y="695"/>
      <point x="146" y="695" type="curve" smooth="yes"/>
      <point x="101" y="695"/>
      <point x="73" y="663"/>
      <point x="73" y="612" type="curve" smooth="yes"/>
      <point x="73" y="458" type="line" smooth="yes"/>
      <point x="73" y="405"/>
      <point x="101" y="375"/>
      <point x="146" y="375" type="curve" smooth="yes"/>
      <point x="191" y="375"/>
      <point x="219" y="405"/>
    </contour>
    <contour>
      <point x="219" y="88" type="curve" smooth="yes"/>
      <point x="219" y="282" type="line" smooth="yes"/>
      <point x="219" y="335"/>
      <point x="191" y="365"/>
      <point x="146" y="365" type="curve" smooth="yes"/>
      <point x="101" y="365"/>
      <point x="73" y="335"/>
      <point x="73" y="282" type="curve" smooth="yes"/>
      <point x="73" y="88" type="line" smooth="yes"/>
      <point x="73" y="37"/>
      <point x="101" y="5"/>
      <point x="146" y="5" type="curve" smooth="yes"/>
      <point x="191" y="5"/>
      <point x="219" y="37"/>
    </contour>
  </outline>
</glyph>
<glyph name="nine" format="1">
  <advance width="280"/>
  <unicode hex="0039"/>
  <outline>
    <contour>
      <point x="237" y="101" type="line" smooth="yes"/>
      <point x="237" y="26"/>
      <point x="193" y="-5"/>
      <point x="139" y="-5" type="curve" smooth="yes"/>
      <point x="85" y="-5"/>
      <point x="41" y="26"/>
      <point x="41" y="101" type="curve" smooth="yes"/>
      <point x="41" y="210" type="line"/>
      <point x="71" y="210" type="line"/>
      <point x="71" y="85" type="line" smooth="yes"/>
      <point x="71" y="34"/>
      <point x="94" y="5"/>
      <point x="139" y="5" type="curve" smooth="yes"/>
      <point x="184" y="5"/>
      <point x="207" y="34"/>
      <point x="207" y="85" type="curve" smooth="yes"/>
      <point x="207" y="342" type="line"/>
      <point x="189" y="328"/>
      <point x="162" y="316"/>
      <point x="125" y="316" type="curve" smooth="yes"/>
      <point x="72" y="316"/>
      <point x="41" y="345"/>
      <point x="41" y="401" type="curve" smooth="yes"/>
      <point x="41" y="599" type="line" smooth="yes"/>
      <point x="41" y="674"/>
      <point x="85" y="705"/>
      <point x="139" y="705" type="curve" smooth="yes"/>
      <point x="193" y="705"/>
      <point x="237" y="674"/>
      <point x="237" y="599" type="curve" smooth="yes"/>
    </contour>
    <contour>
      <point x="207" y="355" type="curve"/>
      <point x="207" y="615" type="line" smooth="yes"/>
      <point x="207" y="666"/>
      <point x="184" y="695"/>
      <point x="139" y="695" type="curve" smooth="yes"/>
      <point x="94" y="695"/>
      <point x="71" y="666"/>
      <point x="71" y="615" type="curve" smooth="yes"/>
      <point x="71" y="394" type="line" smooth="yes"/>
      <point x="71" y="352"/>
      <point x="93" y="328"/>
      <point x="131" y="328" type="curve" smooth="yes"/>
      <point x="164" y="328"/>
      <point x="188" y="339"/>
    </contour>
  </outline>
</glyph>
<glyph name="colon" format="1">
  <advance width="110"/>
  <unicode hex="003A"/>
  <outline>
    <contour>
      <point x="70" y="294" type="line"/>
      <point x="40" y="294" type="line"/>
      <point x="40" y="379" type="line"/>
      <point x="70" y="379" type="line"/>
    </contour>
    <contour>
      <point x="70" y="0" type="line"/>
      <point x="40" y="0" type="line"/>
      <point x="40" y="85" type="line"/>
      <point x="70" y="85" type="line"/>
    </contour>
  </outline>
</glyph>
<glyph name="semicolon" format="1">
  <advance width="110"/>
  <unicode hex="003B"/>
  <outline>
    <contour>
      <point x="70" y="294" type="line"/>
      <point x="40" y="294" type="line"/>
      <point x="40" y="379" type="line"/>
      <point x="70" y="379" type="line"/>
    </contour>
    <contour>
      <point x="71" y="65" type="line"/>
      <point x="37" y="-52" type="line"/>
      <point x="29" y="-52" type="line"/>
      <point x="39" y="85" type="line"/>
      <point x="71" y="85" type="line"/>
    </contour>
  </outline>
</glyph>
<glyph name="less" format="1">
  <advance width="250"/>
  <unicode hex="003C"/>
  <outline>
    <contour>
      <point x="206" y="275" type="line"/>
      <point x="30" y="366" type="line"/>
      <point x="30" y="374" type="line"/>
      <point x="206" y="465" type="line"/>
      <point x="206" y="451" type="line"/>
      <point x="48" y="370" type="line"/>
      <point x="206" y="289" type="line"/>
    </contour>
  </outline>
</glyph>
<glyph name="equal" format="1">
  <advance width="250"/>
  <unicode hex="003D"/>
  <outline>
    <contour>
      <point x="223" y="413" type="line"/>
      <point x="27" y="413" type="line"/>
      <point x="27" y="425" type="line"/>
      <point x="223" y="425" type="line"/>
    </contour>
    <contour>
      <point x="223" y="315" type="line"/>
      <point x="27" y="315" type="line"/>
      <point x="27" y="327" type="line"/>
      <point x="223" y="327" type="line"/>
    </contour>
  </outline>
</glyph>
<glyph name="greater" format="1">
  <advance width="250"/>
  <unicode hex="003E"/>
  <outline>
    <contour>
      <point x="220" y="366" type="line"/>
      <point x="44" y="275" type="line"/>
      <point x="44" y="289" type="line"/>
      <point x="202" y="370" type="line"/>
      <point x="44" y="451" type="line"/>
      <point x="44" y="465" type="line"/>
      <point x="220" y="374" type="line"/>
    </contour>
  </outline>
</glyph>
<glyph name="question" format="1">
  <advance width="253"/>
  <unicode hex="003F"/>
  <outline>
    <contour>
      <point x="216" y="506" type="line" smooth="yes"/>
      <point x="216" y="457"/>
      <point x="209" y="428"/>
      <point x="185" y="393" type="curve" smooth="yes"/>
      <point x="160" y="356" type="line" smooth="yes"/>
      <point x="140" y="326"/>
      <point x="138" y="307"/>
      <point x="136" y="250" type="curve" smooth="yes"/>
      <point x="131" y="130" type="line"/>
      <point x="121" y="130" type="line"/>
      <point x="116" y="250" type="line" smooth="yes"/>
      <point x="115" y="275"/>
      <point x="114" y="298"/>
      <point x="114" y="309" type="curve" smooth="yes"/>
      <point x="114" y="325"/>
      <point x="115" y="340"/>
      <point x="129" y="360" type="curve" smooth="yes"/>
      <point x="156" y="400" type="line" smooth="yes"/>
      <point x="179" y="434"/>
      <point x="186" y="455"/>
      <point x="186" y="503" type="curve" smooth="yes"/>
      <point x="186" y="615" type="line" smooth="yes"/>
      <point x="186" y="666"/>
      <point x="164" y="695"/>
      <point x="124" y="695" type="curve" smooth="yes"/>
      <point x="84" y="695"/>
      <point x="62" y="666"/>
      <point x="62" y="615" type="curve" smooth="yes"/>
      <point x="62" y="490" type="line"/>
      <point x="32" y="490" type="line"/>
      <point x="32" y="599" type="line" smooth="yes"/>
      <point x="32" y="674"/>
      <point x="74" y="705"/>
      <point x="124" y="705" type="curve" smooth="yes"/>
      <point x="174" y="705"/>
      <point x="216" y="674"/>
      <point x="216" y="599" type="curve" smooth="yes"/>
    </contour>
    <contour>
      <point x="141" y="0" type="line"/>
      <point x="111" y="0" type="line"/>
      <point x="111" y="85" type="line"/>
      <point x="141" y="85" type="line"/>
    </contour>
  </outline>
</glyph>
<glyph name="at" format="1">
  <advance width="368"/>
  <unicode hex="0040"/>
  <outline>
    <contour>
      <point x="333" y="232" type="line" smooth="yes"/>
      <point x="333" y="196"/>
      <point x="315" y="178"/>
      <point x="283" y="178" type="curve" smooth="yes"/>
      <point x="259" y="178"/>
      <point x="245" y="189"/>
      <point x="236" y="203" type="curve"/>
      <point x="218" y="189"/>
      <point x="201" y="178"/>
      <point x="165" y="178" type="curve" smooth="yes"/>
      <point x="128" y="178"/>
      <point x="106" y="198"/>
      <point x="106" y="237" type="curve" smooth="yes"/>
      <point x="106" y="460" type="line" smooth="yes"/>
      <point x="106" y="499"/>
      <point x="128" y="519"/>
      <point x="165" y="519" type="curve" smooth="yes"/>
      <point x="191" y="519"/>
      <point x="210" y="511"/>
      <point x="222" y="501" type="curve"/>
      <point x="222" y="516" type="line"/>
      <point x="245" y="516" type="line"/>
      <point x="245" y="229" type="line" smooth="yes"/>
      <point x="245" y="197"/>
      <point x="262" y="186"/>
      <point x="283" y="186" type="curve" smooth="yes"/>
      <point x="304" y="186"/>
      <point x="320" y="197"/>
      <point x="320" y="229" type="curve" smooth="yes"/>
      <point x="320" y="489" type="line" smooth="yes"/>
      <point x="320" y="558"/>
      <point x="266" y="615"/>
      <point x="184" y="615" type="curve" smooth="yes"/>
      <point x="102" y="615"/>
      <point x="48" y="558"/>
      <point x="48" y="489" type="curve" smooth="yes"/>
      <point x="48" y="211" type="line" smooth="yes"/>
      <point x="48" y="142"/>
      <point x="102" y="86"/>
      <point x="184" y="86" type="curve" smooth="yes"/>
      <point x="268" y="86" type="line"/>
      <point x="268" y="75" type="line"/>
      <point x="184" y="75" type="line" smooth="yes"/>
      <point x="94" y="75"/>
      <point x="35" y="138"/>
      <point x="35" y="214" type="curve" smooth="yes"/>
      <point x="35" y="486" type="line" smooth="yes"/>
      <point x="35" y="562"/>
      <point x="94" y="625"/>
      <point x="184" y="625" type="curve" smooth="yes"/>
      <point x="274" y="625"/>
      <point x="333" y="562"/>
      <point x="333" y="486" type="curve" smooth="yes"/>
    </contour>
    <contour>
      <point x="222" y="205" type="curve"/>
      <point x="222" y="492" type="line"/>
      <point x="209" y="503"/>
      <point x="193" y="511"/>
      <point x="170" y="511" type="curve" smooth="yes"/>
      <point x="145" y="511"/>
      <point x="129" y="494"/>
      <point x="129" y="465" type="curve" smooth="yes"/>
      <point x="129" y="232" type="line" smooth="yes"/>
      <point x="129" y="203"/>
      <point x="145" y="186"/>
      <point x="170" y="186" type="curve" smooth="yes"/>
      <point x="193" y="186"/>
      <point x="209" y="194"/>
    </contour>
  </outline>
</glyph>
<glyph name="A" format="1">
  <advance width="270"/>
  <unicode hex="0041"/>
  <outline>
    <contour>
      <point x="256" y="0" type="line"/>
      <point x="173" y="0" type="line"/>
      <point x="173" y="10" type="line"/>
      <point x="198" y="10" type="line"/>
      <point x="174" y="221" type="line"/>
      <point x="80" y="221" type="line"/>
      <point x="56" y="10" type="line"/>
      <point x="81" y="10" type="line"/>
      <point x="81" y="0" type="line"/>
      <point x="14" y="0" type="line"/>
      <point x="14" y="10" type="line"/>
      <point x="39" y="10" type="line"/>
      <point x="122" y="703" type="line"/>
      <point x="148" y="703" type="line"/>
      <point x="231" y="10" type="line"/>
      <point x="256" y="10" type="line"/>
    </contour>
    <contour>
      <point x="173" y="231" type="line"/>
      <point x="128" y="636" type="line"/>
      <point x="82" y="231" type="line"/>
    </contour>
  </outline>
</glyph>
<glyph name="B" format="1">
  <advance width="280"/>
  <unicode hex="0042"/>
  <outline>
    <contour>
      <point x="242" y="109" type="line" smooth="yes"/>
      <point x="242" y="34"/>
      <point x="193" y="0"/>
      <point x="139" y="0" type="curve" smooth="yes"/>
      <point x="28" y="0" type="line"/>
      <point x="28" y="10" type="line"/>
      <point x="53" y="10" type="line"/>
      <point x="53" y="690" type="line"/>
      <point x="28" y="690" type="line"/>
      <point x="28" y="700" type="line"/>
      <point x="139" y="700" type="line" smooth="yes"/>
      <point x="193" y="700"/>
      <point x="242" y="666"/>
      <point x="242" y="591" type="curve" smooth="yes"/>
      <point x="242" y="474" type="line" smooth="yes"/>
      <point x="242" y="407"/>
      <point x="207" y="379"/>
      <point x="167" y="370" type="curve"/>
      <point x="207" y="361"/>
      <point x="242" y="332"/>
      <point x="242" y="266" type="curve" smooth="yes"/>
    </contour>
    <contour>
      <point x="212" y="458" type="curve" smooth="yes"/>
      <point x="212" y="607" type="line" smooth="yes"/>
      <point x="212" y="658"/>
      <point x="184" y="690"/>
      <point x="139" y="690" type="curve" smooth="yes"/>
      <point x="83" y="690" type="line"/>
      <point x="83" y="375" type="line"/>
      <point x="139" y="375" type="line" smooth="yes"/>
      <point x="184" y="375"/>
      <point x="212" y="405"/>
    </contour>
    <contour>
      <point x="212" y="93" type="curve" smooth="yes"/>
      <point x="212" y="282" type="line" smooth="yes"/>
      <point x="212" y="335"/>
      <point x="184" y="365"/>
      <point x="139" y="365" type="curve" smooth="yes"/>
      <point x="83" y="365" type="line"/>
      <point x="83" y="10" type="line"/>
      <point x="139" y="10" type="line" smooth="yes"/>
      <point x="184" y="10"/>
      <point x="212" y="42"/>
    </contour>
  </outline>
</glyph>
<glyph name="C" format="1">
  <advance width="276"/>
  <unicode hex="0043"/>
  <outline>
    <contour>
      <point x="239" y="101" type="line" smooth="yes"/>
      <point x="239" y="26"/>
      <point x="195" y="-5"/>
      <point x="141" y="-5" type="curve" smooth="yes"/>
      <point x="87" y="-5"/>
      <point x="43" y="26"/>
      <point x="43" y="101" type="curve" smooth="yes"/>
      <point x="43" y="599" type="line" smooth="yes"/>
      <point x="43" y="674"/>
      <point x="87" y="705"/>
      <point x="141" y="705" type="curve" smooth="yes"/>
      <point x="195" y="705"/>
      <point x="239" y="674"/>
      <point x="239" y="599" type="curve" smooth="yes"/>
      <point x="239" y="490" type="line"/>
      <point x="209" y="490" type="line"/>
      <point x="209" y="615" type="line" smooth="yes"/>
      <point x="209" y="666"/>
      <point x="186" y="695"/>
      <point x="141" y="695" type="curve" smooth="yes"/>
      <point x="96" y="695"/>
      <point x="73" y="666"/>
      <point x="73" y="615" type="curve" smooth="yes"/>
      <point x="73" y="85" type="line" smooth="yes"/>
      <point x="73" y="34"/>
      <point x="96" y="5"/>
      <point x="141" y="5" type="curve" smooth="yes"/>
      <point x="186" y="5"/>
      <point x="209" y="34"/>
      <point x="209" y="85" type="curve" smooth="yes"/>
      <point x="209" y="210" type="line"/>
      <point x="239" y="210" type="line"/>
    </contour>
  </outline>
</glyph>
<glyph name="D" format="1">
  <advance width="292"/>
  <unicode hex="0044"/>
  <outline>
    <contour>
      <point x="249" y="109" type="line" smooth="yes"/>
      <point x="249" y="34"/>
      <point x="200" y="0"/>
      <point x="146" y="0" type="curve" smooth="yes"/>
      <point x="28" y="0" type="line"/>
      <point x="28" y="10" type="line"/>
      <point x="53" y="10" type="line"/>
      <point x="53" y="690" type="line"/>
      <point x="28" y="690" type="line"/>
      <point x="28" y="700" type="line"/>
      <point x="146" y="700" type="line" smooth="yes"/>
      <point x="200" y="700"/>
      <point x="249" y="666"/>
      <point x="249" y="591" type="curve" smooth="yes"/>
    </contour>
    <contour>
      <point x="219" y="93" type="curve" smooth="yes"/>
      <point x="219" y="607" type="line" smooth="yes"/>
      <point x="219" y="658"/>
      <point x="191" y="690"/>
      <point x="146" y="690" type="curve" smooth="yes"/>
      <point x="83" y="690" type="line"/>
      <point x="83" y="10" type="line"/>
      <point x="146" y="10" type="line" smooth="yes"/>
      <point x="191" y="10"/>
      <point x="219" y="42"/>
    </contour>
  </outline>
</glyph>
<glyph name="E" format="1">
  <advance width="276"/>
  <unicode hex="0045"/>
  <outline>
    <contour>
      <point x="236" y="0" type="line"/>
      <point x="28" y="0" type="line"/>
      <point x="28" y="10" type="line"/>
      <point x="53" y="10" type="line"/>
      <point x="53" y="690" type="line"/>
      <point x="28" y="690" type="line"/>
      <point x="28" y="700" type="line"/>
      <point x="236" y="700" type="line"/>
      <point x="236" y="490" type="line"/>
      <point x="206" y="490" type="line"/>
      <point x="206" y="690" type="line"/>
      <point x="83" y="690" type="line"/>
      <point x="83" y="375" type="line"/>
      <point x="177" y="375" type="line"/>
      <point x="177" y="365" type="line"/>
      <point x="83" y="365" type="line"/>
      <point x="83" y="10" type="line"/>
      <point x="206" y="10" type="line"/>
      <point x="206" y="210" type="line"/>
      <point x="236" y="210" type="line"/>
    </contour>
  </outline>
</glyph>
<glyph name="F" format="1">
  <advance width="261"/>
  <unicode hex="0046"/>
  <outline>
    <contour>
      <point x="228" y="490" type="line"/>
      <point x="198" y="490" type="line"/>
      <point x="198" y="690" type="line"/>
      <point x="83" y="690" type="line"/>
      <point x="83" y="375" type="line"/>
      <point x="169" y="375" type="line"/>
      <point x="169" y="365" type="line"/>
      <point x="83" y="365" type="line"/>
      <point x="83" y="10" type="line"/>
      <point x="108" y="10" type="line"/>
      <point x="108" y="0" type="line"/>
      <point x="28" y="0" type="line"/>
      <point x="28" y="10" type="line"/>
      <point x="53" y="10" type="line"/>
      <point x="53" y="690" type="line"/>
      <point x="28" y="690" type="line"/>
      <point x="28" y="700" type="line"/>
      <point x="228" y="700" type="line"/>
    </contour>
  </outline>
</glyph>
<glyph name="G" format="1">
  <advance width="286"/>
  <unicode hex="0047"/>
  <outline>
    <contour>
      <point x="243" y="101" type="line" smooth="yes"/>
      <point x="243" y="26"/>
      <point x="197" y="-5"/>
      <point x="143" y="-5" type="curve" smooth="yes"/>
      <point x="89" y="-5"/>
      <point x="43" y="26"/>
      <point x="43" y="101" type="curve" smooth="yes"/>
      <point x="43" y="599" type="line" smooth="yes"/>
      <point x="43" y="674"/>
      <point x="89" y="705"/>
      <point x="143" y="705" type="curve" smooth="yes"/>
      <point x="197" y="705"/>
      <point x="243" y="674"/>
      <point x="243" y="599" type="curve" smooth="yes"/>
      <point x="243" y="490" type="line"/>
      <point x="213" y="490" type="line"/>
      <point x="213" y="615" type="line" smooth="yes"/>
      <point x="213" y="666"/>
      <point x="188" y="695"/>
      <point x="143" y="695" type="curve" smooth="yes"/>
      <point x="98" y="695"/>
      <point x="73" y="666"/>
      <point x="73" y="615" type="curve" smooth="yes"/>
      <point x="73" y="85" type="line" smooth="yes"/>
      <point x="73" y="34"/>
      <point x="98" y="5"/>
      <point x="143" y="5" type="curve" smooth="yes"/>
      <point x="188" y="5"/>
      <point x="213" y="34"/>
      <point x="213" y="85" type="curve" smooth="yes"/>
      <point x="213" y="365" type="line"/>
      <point x="143" y="365" type="line"/>
      <point x="143" y="375" type="line"/>
      <point x="243" y="375" type="line"/>
    </contour>
  </outline>
</glyph>
<glyph name="H" format="1">
  <advance width="300"/>
  <unicode hex="0048"/>
  <outline>
    <contour>
      <point x="272" y="0" type="line"/>
      <point x="192" y="0" type="line"/>
      <point x="192" y="10" type="line"/>
      <point x="217" y="10" type="line"/>
      <point x="217" y="365" type="line"/>
      <point x="83" y="365" type="line"/>
      <point x="83" y="10" type="line"/>
      <point x="108" y="10" type="line"/>
      <point x="108" y="0" type="line"/>
      <point x="28" y="0" type="line"/>
      <point x="28" y="10" type="line"/>
      <point x="53" y="10" type="line"/>
      <point x="53" y="690" type="line"/>
      <point x="28" y="690" type="line"/>
      <point x="28" y="700" type="line"/>
      <point x="108" y="700" type="line"/>
      <point x="108" y="690" type="line"/>
      <point x="83" y="690" type="line"/>
      <point x="83" y="375" type="line"/>
      <point x="217" y="375" type="line"/>
      <point x="217" y="690" type="line"/>
      <point x="192" y="690" type="line"/>
      <point x="192" y="700" type="line"/>
      <point x="272" y="700" type="line"/>
      <point x="272" y="690" type="line"/>
      <point x="247" y="690" type="line"/>
      <point x="247" y="10" type="line"/>
      <point x="272" y="10" type="line"/>
    </contour>
  </outline>
</glyph>
<glyph name="I" format="1">
  <advance width="142"/>
  <unicode hex="0049"/>
  <outline>
    <contour>
      <point x="111" y="0" type="line"/>
      <point x="31" y="0" type="line"/>
      <point x="31" y="10" type="line"/>
      <point x="56" y="10" type="line"/>
      <point x="56" y="690" type="line"/>
      <point x="31" y="690" type="line"/>
      <point x="31" y="700" type="line"/>
      <point x="111" y="700" type="line"/>
      <point x="111" y="690" type="line"/>
      <point x="86" y="690" type="line"/>
      <point x="86" y="10" type="line"/>
      <point x="111" y="10" type="line"/>
    </contour>
  </outline>
</glyph>
<glyph name="J" format="1">
  <advance width="258"/>
  <unicode hex="004A"/>
  <outline>
    <contour>
      <point x="233" y="690" type="line"/>
      <point x="208" y="690" type="line"/>
      <point x="208" y="94" type="line" smooth="yes"/>
      <point x="208" y="27"/>
      <point x="167" y="-5"/>
      <point x="118" y="-5" type="curve" smooth="yes"/>
      <point x="69" y="-5"/>
      <point x="28" y="27"/>
      <point x="28" y="94" type="curve" smooth="yes"/>
      <point x="28" y="210" type="line"/>
      <point x="58" y="210" type="line"/>
      <point x="58" y="78" type="line" smooth="yes"/>
      <point x="58" y="32"/>
      <point x="80" y="5"/>
      <point x="118" y="5" type="curve" smooth="yes"/>
      <point x="156" y="5"/>
      <point x="178" y="32"/>
      <point x="178" y="78" type="curve" smooth="yes"/>
      <point x="178" y="690" type="line"/>
      <point x="153" y="690" type="line"/>
      <point x="153" y="700" type="line"/>
      <point x="233" y="700" type="line"/>
    </contour>
  </outline>
</glyph>
<glyph name="K" format="1">
  <advance width="275"/>
  <unicode hex="004B"/>
  <outline>
    <contour>
      <point x="263" y="0" type="line"/>
      <point x="209" y="0" type="line"/>
      <point x="83" y="358" type="line"/>
      <point x="83" y="10" type="line"/>
      <point x="108" y="10" type="line"/>
      <point x="108" y="0" type="line"/>
      <point x="28" y="0" type="line"/>
      <point x="28" y="10" type="line"/>
      <point x="53" y="10" type="line"/>
      <point x="53" y="690" type="line"/>
      <point x="28" y="690" type="line"/>
      <point x="28" y="700" type="line"/>
      <point x="108" y="700" type="line"/>
      <point x="108" y="690" type="line"/>
      <point x="83" y="690" type="line"/>
      <point x="83" y="367" type="line"/>
      <point x="216" y="690" type="line"/>
      <point x="191" y="690" type="line"/>
      <point x="191" y="700" type="line"/>
      <point x="259" y="700" type="line"/>
      <point x="259" y="690" type="line"/>
      <point x="234" y="690" type="line"/>
      <point x="107" y="382" type="line"/>
      <point x="238" y="10" type="line"/>
      <point x="263" y="10" type="line"/>
    </contour>
  </outline>
</glyph>
<glyph name="L" format="1">
  <advance width="259"/>
  <unicode hex="004C"/>
  <outline>
    <contour>
      <point x="228" y="0" type="line"/>
      <point x="28" y="0" type="line"/>
      <point x="28" y="10" type="line"/>
      <point x="53" y="10" type="line"/>
      <point x="53" y="690" type="line"/>
      <point x="28" y="690" type="line"/>
      <point x="28" y="700" type="line"/>
      <point x="108" y="700" type="line"/>
      <point x="108" y="690" type="line"/>
      <point x="83" y="690" type="line"/>
      <point x="83" y="10" type="line"/>
      <point x="198" y="10" type="line"/>
      <point x="198" y="210" type="line"/>
      <point x="228" y="210" type="line"/>
    </contour>
  </outline>
</glyph>
<glyph name="M" format="1">
  <advance width="360"/>
  <unicode hex="004D"/>
  <outline>
    <contour>
      <point x="332" y="0" type="line"/>
      <point x="254" y="0" type="line"/>
      <point x="254" y="10" type="line"/>
      <point x="279" y="10" type="line"/>
      <point x="279" y="621" type="line"/>
      <point x="182" y="0" type="line"/>
      <point x="166" y="0" type="line"/>
      <point x="70" y="621" type="line"/>
      <point x="70" y="10" type="line"/>
      <point x="95" y="10" type="line"/>
      <point x="95" y="0" type="line"/>
      <point x="28" y="0" type="line"/>
      <point x="28" y="10" type="line"/>
      <point x="53" y="10" type="line"/>
      <point x="53" y="690" type="line"/>
      <point x="28" y="690" type="line"/>
      <point x="28" y="700" type="line"/>
      <point x="89" y="700" type="line"/>
      <point x="181" y="90" type="line"/>
      <point x="276" y="700" type="line"/>
      <point x="332" y="700" type="line"/>
      <point x="332" y="690" type="line"/>
      <point x="307" y="690" type="line"/>
      <point x="307" y="10" type="line"/>
      <point x="332" y="10" type="line"/>
    </contour>
  </outline>
</glyph>
<glyph name="N" format="1">
  <advance width="290"/>
  <unicode hex="004E"/>
  <outline>
    <contour>
      <point x="265" y="690" type="line"/>
      <point x="240" y="690" type="line"/>
      <point x="240" y="0" type="line"/>
      <point x="219" y="0" type="line"/>
      <point x="70" y="646" type="line"/>
      <point x="70" y="10" type="line"/>
      <point x="95" y="10" type="line"/>
      <point x="95" y="0" type="line"/>
      <point x="28" y="0" type="line"/>
      <point x="28" y="10" type="line"/>
      <point x="53" y="10" type="line"/>
      <point x="53" y="690" type="line"/>
      <point x="28" y="690" type="line"/>
      <point x="28" y="700" type="line"/>
      <point x="86" y="700" type="line"/>
      <point x="223" y="108" type="line"/>
      <point x="223" y="690" type="line"/>
      <point x="198" y="690" type="line"/>
      <point x="198" y="700" type="line"/>
      <point x="265" y="700" type="line"/>
    </contour>
  </outline>
</glyph>
<glyph name="O" format="1">
  <advance width="292"/>
  <unicode hex="004F"/>
  <outline>
    <contour>
      <point x="249" y="104" type="line" smooth="yes"/>
      <point x="249" y="29"/>
      <point x="200" y="-5"/>
      <point x="146" y="-5" type="curve" smooth="yes"/>
      <point x="92" y="-5"/>
      <point x="43" y="29"/>
      <point x="43" y="104" type="curve" smooth="yes"/>
      <point x="43" y="596" type="line" smooth="yes"/>
      <point x="43" y="671"/>
      <point x="92" y="705"/>
      <point x="146" y="705" type="curve" smooth="yes"/>
      <point x="200" y="705"/>
      <point x="249" y="671"/>
      <point x="249" y="596" type="curve" smooth="yes"/>
    </contour>
    <contour>
      <point x="219" y="88" type="curve" smooth="yes"/>
      <point x="219" y="612" type="line" smooth="yes"/>
      <point x="219" y="663"/>
      <point x="191" y="695"/>
      <point x="146" y="695" type="curve" smooth="yes"/>
      <point x="101" y="695"/>
      <point x="73" y="663"/>
      <point x="73" y="612" type="curve" smooth="yes"/>
      <point x="73" y="88" type="line" smooth="yes"/>
      <point x="73" y="37"/>
      <point x="101" y="5"/>
      <point x="146" y="5" type="curve" smooth="yes"/>
      <point x="191" y="5"/>
      <point x="219" y="37"/>
    </contour>
  </outline>
</glyph>
<glyph name="P" format="1">
  <advance width="271"/>
  <unicode hex="0050"/>
  <outline>
    <contour>
      <point x="238" y="413" type="line" smooth="yes"/>
      <point x="238" y="338"/>
      <point x="189" y="304"/>
      <point x="135" y="304" type="curve" smooth="yes"/>
      <point x="83" y="304" type="line"/>
      <point x="83" y="10" type="line"/>
      <point x="108" y="10" type="line"/>
      <point x="108" y="0" type="line"/>
      <point x="28" y="0" type="line"/>
      <point x="28" y="10" type="line"/>
      <point x="53" y="10" type="line"/>
      <point x="53" y="690" type="line"/>
      <point x="28" y="690" type="line"/>
      <point x="28" y="700" type="line"/>
      <point x="135" y="700" type="line" smooth="yes"/>
      <point x="189" y="700"/>
      <point x="238" y="666"/>
      <point x="238" y="591" type="curve" smooth="yes"/>
    </contour>
    <contour>
      <point x="208" y="397" type="curve" smooth="yes"/>
      <point x="208" y="607" type="line" smooth="yes"/>
      <point x="208" y="658"/>
      <point x="180" y="690"/>
      <point x="135" y="690" type="curve" smooth="yes"/>
      <point x="83" y="690" type="line"/>
      <point x="83" y="314" type="line"/>
      <point x="135" y="314" type="line" smooth="yes"/>
      <point x="180" y="314"/>
      <point x="208" y="346"/>
    </contour>
  </outline>
</glyph>
<glyph name="Q" format="1">
  <advance width="292"/>
  <unicode hex="0051"/>
  <outline>
    <contour>
      <point x="249" y="104" type="line" smooth="yes"/>
      <point x="249" y="32"/>
      <point x="204" y="-2"/>
      <point x="152" y="-5" type="curve"/>
      <point x="152" y="-90" type="line"/>
      <point x="140" y="-90" type="line"/>
      <point x="140" y="-5" type="line"/>
      <point x="88" y="-2"/>
      <point x="43" y="32"/>
      <point x="43" y="104" type="curve" smooth="yes"/>
      <point x="43" y="596" type="line" smooth="yes"/>
      <point x="43" y="671"/>
      <point x="92" y="705"/>
      <point x="146" y="705" type="curve" smooth="yes"/>
      <point x="200" y="705"/>
      <point x="249" y="671"/>
      <point x="249" y="596" type="curve" smooth="yes"/>
    </contour>
    <contour>
      <point x="219" y="88" type="curve" smooth="yes"/>
      <point x="219" y="612" type="line" smooth="yes"/>
      <point x="219" y="663"/>
      <point x="191" y="695"/>
      <point x="146" y="695" type="curve" smooth="yes"/>
      <point x="101" y="695"/>
      <point x="73" y="663"/>
      <point x="73" y="612" type="curve" smooth="yes"/>
      <point x="73" y="88" type="line" smooth="yes"/>
      <point x="73" y="39"/>
      <point x="98" y="8"/>
      <point x="140" y="5" type="curve"/>
      <point x="140" y="112" type="line"/>
      <point x="152" y="112" type="line"/>
      <point x="152" y="5" type="line"/>
      <point x="194" y="8"/>
      <point x="219" y="39"/>
    </contour>
  </outline>
</glyph>
<glyph name="R" format="1">
  <advance width="288"/>
  <unicode hex="0052"/>
  <outline>
    <contour>
      <point x="263" y="0" type="line"/>
      <point x="250" y="0" type="line" smooth="yes"/>
      <point x="222" y="0"/>
      <point x="208" y="14"/>
      <point x="208" y="45" type="curve" smooth="yes"/>
      <point x="208" y="282" type="line" smooth="yes"/>
      <point x="208" y="335"/>
      <point x="180" y="365"/>
      <point x="135" y="365" type="curve" smooth="yes"/>
      <point x="83" y="365" type="line"/>
      <point x="83" y="10" type="line"/>
      <point x="108" y="10" type="line"/>
      <point x="108" y="0" type="line"/>
      <point x="28" y="0" type="line"/>
      <point x="28" y="10" type="line"/>
      <point x="53" y="10" type="line"/>
      <point x="53" y="690" type="line"/>
      <point x="28" y="690" type="line"/>
      <point x="28" y="700" type="line"/>
      <point x="135" y="700" type="line" smooth="yes"/>
      <point x="189" y="700"/>
      <point x="238" y="666"/>
      <point x="238" y="591" type="curve" smooth="yes"/>
      <point x="238" y="474" type="line" smooth="yes"/>
      <point x="238" y="407"/>
      <point x="203" y="379"/>
      <point x="163" y="370" type="curve"/>
      <point x="203" y="361"/>
      <point x="238" y="332"/>
      <point x="238" y="266" type="curve" smooth="yes"/>
      <point x="238" y="40" type="line" smooth="yes"/>
      <point x="238" y="21"/>
      <point x="245" y="10"/>
      <point x="261" y="10" type="curve" smooth="yes"/>
      <point x="263" y="10" type="line"/>
    </contour>
    <contour>
      <point x="208" y="458" type="curve" smooth="yes"/>
      <point x="208" y="607" type="line" smooth="yes"/>
      <point x="208" y="658"/>
      <point x="180" y="690"/>
      <point x="135" y="690" type="curve" smooth="yes"/>
      <point x="83" y="690" type="line"/>
      <point x="83" y="375" type="line"/>
      <point x="135" y="375" type="line" smooth="yes"/>
      <point x="180" y="375"/>
      <point x="208" y="405"/>
    </contour>
  </outline>
</glyph>
<glyph name="S" format="1">
  <advance width="270"/>
  <unicode hex="0053"/>
  <outline>
    <contour>
      <point x="229" y="101" type="line" smooth="yes"/>
      <point x="229" y="26"/>
      <point x="189" y="-5"/>
      <point x="135" y="-5" type="curve" smooth="yes"/>
      <point x="81" y="-5"/>
      <point x="41" y="26"/>
      <point x="41" y="101" type="curve" smooth="yes"/>
      <point x="41" y="210" type="line"/>
      <point x="71" y="210" type="line"/>
      <point x="71" y="85" type="line" smooth="yes"/>
      <point x="71" y="34"/>
      <point x="90" y="5"/>
      <point x="135" y="5" type="curve" smooth="yes"/>
      <point x="180" y="5"/>
      <point x="199" y="34"/>
      <point x="199" y="85" type="curve" smooth="yes"/>
      <point x="199" y="173" type="line" smooth="yes"/>
      <point x="199" y="221"/>
      <point x="186" y="252"/>
      <point x="163" y="285" type="curve" smooth="yes"/>
      <point x="77" y="408" type="line" smooth="yes"/>
      <point x="54" y="441"/>
      <point x="41" y="480"/>
      <point x="41" y="528" type="curve" smooth="yes"/>
      <point x="41" y="599" type="line" smooth="yes"/>
      <point x="41" y="674"/>
      <point x="81" y="705"/>
      <point x="135" y="705" type="curve" smooth="yes"/>
      <point x="189" y="705"/>
      <point x="229" y="674"/>
      <point x="229" y="599" type="curve" smooth="yes"/>
      <point x="229" y="490" type="line"/>
      <point x="199" y="490" type="line"/>
      <point x="199" y="615" type="line" smooth="yes"/>
      <point x="199" y="666"/>
      <point x="180" y="695"/>
      <point x="135" y="695" type="curve" smooth="yes"/>
      <point x="90" y="695"/>
      <point x="71" y="666"/>
      <point x="71" y="615" type="curve" smooth="yes"/>
      <point x="71" y="531" type="line" smooth="yes"/>
      <point x="71" y="483"/>
      <point x="84" y="452"/>
      <point x="107" y="419" type="curve" smooth="yes"/>
      <point x="193" y="296" type="line" smooth="yes"/>
      <point x="216" y="263"/>
      <point x="229" y="224"/>
      <point x="229" y="176" type="curve" smooth="yes"/>
    </contour>
  </outline>
</glyph>
<glyph name="T" format="1">
  <advance width="296"/>
  <unicode hex="0054"/>
  <outline>
    <contour>
      <point x="266" y="490" type="line"/>
      <point x="236" y="490" type="line"/>
      <point x="236" y="690" type="line"/>
      <point x="163" y="690" type="line"/>
      <point x="163" y="10" type="line"/>
      <point x="188" y="10" type="line"/>
      <point x="188" y="0" type="line"/>
      <point x="108" y="0" type="line"/>
      <point x="108" y="10" type="line"/>
      <point x="133" y="10" type="line"/>
      <point x="133" y="690" type="line"/>
      <point x="60" y="690" type="line"/>
      <point x="60" y="490" type="line"/>
      <point x="30" y="490" type="line"/>
      <point x="30" y="700" type="line"/>
      <point x="266" y="700" type="line"/>
    </contour>
  </outline>
</glyph>
<glyph name="U" format="1">
  <advance width="300"/>
  <unicode hex="0055"/>
  <outline>
    <contour>
      <point x="275" y="690" type="line"/>
      <point x="250" y="690" type="line"/>
      <point x="250" y="104" type="line" smooth="yes"/>
      <point x="250" y="29"/>
      <point x="204" y="-5"/>
      <point x="150" y="-5" type="curve" smooth="yes"/>
      <point x="96" y="-5"/>
      <point x="50" y="29"/>
      <point x="50" y="104" type="curve" smooth="yes"/>
      <point x="50" y="690" type="line"/>
      <point x="25" y="690" type="line"/>
      <point x="25" y="700" type="line"/>
      <point x="105" y="700" type="line"/>
      <point x="105" y="690" type="line"/>
      <point x="80" y="690" type="line"/>
      <point x="80" y="88" type="line" smooth="yes"/>
      <point x="80" y="37"/>
      <point x="105" y="5"/>
      <point x="150" y="5" type="curve" smooth="yes"/>
      <point x="195" y="5"/>
      <point x="220" y="37"/>
      <point x="220" y="88" type="curve" smooth="yes"/>
      <point x="220" y="690" type="line"/>
      <point x="195" y="690" type="line"/>
      <point x="195" y="700" type="line"/>
      <point x="275" y="700" type="line"/>
    </contour>
  </outline>
</glyph>
<glyph name="V" format="1">
  <advance width="276"/>
  <unicode hex="0056"/>
  <outline>
    <contour>
      <point x="262" y="690" type="line"/>
      <point x="237" y="690" type="line"/>
      <point x="151" y="-3" type="line"/>
      <point x="125" y="-3" type="line"/>
      <point x="39" y="690" type="line"/>
      <point x="14" y="690" type="line"/>
      <point x="14" y="700" type="line"/>
      <point x="97" y="700" type="line"/>
      <point x="97" y="690" type="line"/>
      <point x="72" y="690" type="line"/>
      <point x="145" y="55" type="line"/>
      <point x="220" y="690" type="line"/>
      <point x="195" y="690" type="line"/>
      <point x="195" y="700" type="line"/>
      <point x="262" y="700" type="line"/>
    </contour>
  </outline>
</glyph>
<glyph name="W" format="1">
  <advance width="378"/>
  <unicode hex="0057"/>
  <outline>
    <contour>
      <point x="364" y="690" type="line"/>
      <point x="339" y="690" type="line"/>
      <point x="275" y="-3" type="line"/>
      <point x="250" y="-3" type="line"/>
      <point x="188" y="612" type="line"/>
      <point x="128" y="-3" type="line"/>
      <point x="103" y="-3" type="line"/>
      <point x="39" y="690" type="line"/>
      <point x="14" y="690" type="line"/>
      <point x="14" y="700" type="line"/>
      <point x="94" y="700" type="line"/>
      <point x="94" y="690" type="line"/>
      <point x="69" y="690" type="line"/>
      <point x="124" y="85" type="line"/>
      <point x="180" y="700" type="line"/>
      <point x="205" y="700" type="line"/>
      <point x="270" y="85" type="line"/>
      <point x="323" y="690" type="line"/>
      <point x="298" y="690" type="line"/>
      <point x="298" y="700" type="line"/>
      <point x="364" y="700" type="line"/>
    </contour>
  </outline>
</glyph>
<glyph name="X" format="1">
  <advance width="259"/>
  <unicode hex="0058"/>
  <outline>
    <contour>
      <point x="247" y="0" type="line"/>
      <point x="167" y="0" type="line"/>
      <point x="167" y="10" type="line"/>
      <point x="192" y="10" type="line"/>
      <point x="125" y="318" type="line"/>
      <point x="54" y="10" type="line"/>
      <point x="79" y="10" type="line"/>
      <point x="79" y="0" type="line"/>
      <point x="12" y="0" type="line"/>
      <point x="12" y="10" type="line"/>
      <point x="37" y="10" type="line"/>
      <point x="118" y="350" type="line"/>
      <point x="42" y="690" type="line"/>
      <point x="17" y="690" type="line"/>
      <point x="17" y="700" type="line"/>
      <point x="97" y="700" type="line"/>
      <point x="97" y="690" type="line"/>
      <point x="72" y="690" type="line"/>
      <point x="134" y="404" type="line"/>
      <point x="200" y="690" type="line"/>
      <point x="175" y="690" type="line"/>
      <point x="175" y="700" type="line"/>
      <point x="242" y="700" type="line"/>
      <point x="242" y="690" type="line"/>
      <point x="217" y="690" type="line"/>
      <point x="141" y="371" type="line"/>
      <point x="222" y="10" type="line"/>
      <point x="247" y="10" type="line"/>
    </contour>
  </outline>
</glyph>
<glyph name="Y" format="1">
  <advance width="271"/>
  <unicode hex="0059"/>
  <outline>
    <contour>
      <point x="263" y="690" type="line"/>
      <point x="238" y="690" type="line"/>
      <point x="150" y="294" type="line"/>
      <point x="150" y="10" type="line"/>
      <point x="175" y="10" type="line"/>
      <point x="175" y="0" type="line"/>
      <point x="95" y="0" type="line"/>
      <point x="95" y="10" type="line"/>
      <point x="120" y="10" type="line"/>
      <point x="120" y="291" type="line"/>
      <point x="33" y="690" type="line"/>
      <point x="8" y="690" type="line"/>
      <point x="8" y="700" type="line"/>
      <point x="90" y="700" type="line"/>
      <point x="90" y="690" type="line"/>
      <point x="65" y="690" type="line"/>
      <point x="142" y="324" type="line"/>
      <point x="222" y="690" type="line"/>
      <point x="197" y="690" type="line"/>
      <point x="197" y="700" type="line"/>
      <point x="263" y="700" type="line"/>
    </contour>
  </outline>
</glyph>
<glyph name="Z" format="1">
  <advance width="262"/>
  <unicode hex="005A"/>
  <outline>
    <contour>
      <point x="233" y="690" type="line"/>
      <point x="58" y="10" type="line"/>
      <point x="197" y="10" type="line"/>
      <point x="197" y="210" type="line"/>
      <point x="227" y="210" type="line"/>
      <point x="227" y="0" type="line"/>
      <point x="28" y="0" type="line"/>
      <point x="28" y="10" type="line"/>
      <point x="203" y="690" type="line"/>
      <point x="65" y="690" type="line"/>
      <point x="65" y="490" type="line"/>
      <point x="35" y="490" type="line"/>
      <point x="35" y="700" type="line"/>
      <point x="233" y="700" type="line"/>
    </contour>
  </outline>
</glyph>
<glyph name="bracketleft" format="1">
  <advance width="172"/>
  <unicode hex="005B"/>
  <outline>
    <contour>
      <point x="150" y="0" type="line"/>
      <point x="50" y="0" type="line"/>
      <point x="50" y="700" type="line"/>
      <point x="150" y="700" type="line"/>
      <point x="150" y="690" type="line"/>
      <point x="80" y="690" type="line"/>
      <point x="80" y="10" type="line"/>
      <point x="150" y="10" type="line"/>
    </contour>
  </outline>
</glyph>
<glyph name="backslash" format="1">
  <advance width="147"/>
  <unicode hex="005C"/>
  <outline>
    <contour>
      <point x="131" y="0" type="line"/>
      <point x="116" y="0" type="line"/>
      <point x="16" y="700" type="line"/>
      <point x="31" y="700" type="line"/>
    </contour>
  </outline>
</glyph>
<glyph name="bracketright" format="1">
  <advance width="172"/>
  <unicode hex="005D"/>
  <outline>
    <contour>
      <point x="122" y="0" type="line"/>
      <point x="22" y="0" type="line"/>
      <point x="22" y="10" type="line"/>
      <point x="92" y="10" type="line"/>
      <point x="92" y="690" type="line"/>
      <point x="22" y="690" type="line"/>
      <point x="22" y="700" type="line"/>
      <point x="122" y="700" type="line"/>
    </contour>
  </outline>
</glyph>
<glyph name="asciicircum" format="1">
  <advance width="280"/>
  <unicode hex="005E"/>
  <outline>
    <contour>
      <point x="235" y="490" type="line"/>
      <point x="220" y="490" type="line"/>
      <point x="140" y="680" type="line"/>
      <point x="60" y="490" type="line"/>
      <point x="45" y="490" type="line"/>
      <point x="135" y="700" type="line"/>
      <point x="145" y="700" type="line"/>
    </contour>
  </outline>
</glyph>
<glyph name="underscore" format="1">
  <advance width="250"/>
  <unicode hex="005F"/>
  <outline>
    <contour>
      <point x="250" y="-90" type="line"/>
      <point x="0" y="-90" type="line"/>
      <point x="0" y="-78" type="line"/>
      <point x="250" y="-78" type="line"/>
    </contour>
  </outline>
</glyph>
<glyph name="grave" format="1">
  <advance width="300"/>
  <unicode hex="0060"/>
  <outline>
    <contour>
      <point x="186" y="550" type="line"/>
      <point x="176" y="550" type="line"/>
      <point x="102" y="655" type="line"/>
      <point x="102" y="660" type="line"/>
      <point x="135" y="660" type="line"/>
    </contour>
  </outline>
</glyph>
<glyph name="a" format="1">
  <advance width="242"/>
  <unicode hex="0061"/>
  <outline>
    <contour>
      <point x="227" y="0" type="line"/>
      <point x="172" y="0" type="line"/>
      <point x="172" y="19" type="line"/>
      <point x="154" y="6"/>
      <point x="131" y="-5"/>
      <point x="100" y="-5" type="curve" smooth="yes"/>
      <point x="53" y="-5"/>
      <point x="33" y="20"/>
      <point x="33" y="70" type="curve" smooth="yes"/>
      <point x="33" y="208" type="line" smooth="yes"/>
      <point x="33" y="264"/>
      <point x="63" y="295"/>
      <point x="122" y="295" type="curve" smooth="yes"/>
      <point x="172" y="295" type="line"/>
      <point x="172" y="449" type="line" smooth="yes"/>
      <point x="172" y="490"/>
      <point x="157" y="515"/>
      <point x="119" y="515" type="curve" smooth="yes"/>
      <point x="81" y="515"/>
      <point x="66" y="490"/>
      <point x="66" y="449" type="curve" smooth="yes"/>
      <point x="66" y="361" type="line"/>
      <point x="36" y="361" type="line"/>
      <point x="36" y="433" type="line" smooth="yes"/>
      <point x="36" y="489"/>
      <point x="60" y="525"/>
      <point x="119" y="525" type="curve" smooth="yes"/>
      <point x="178" y="525"/>
      <point x="202" y="489"/>
      <point x="202" y="433" type="curve" smooth="yes"/>
      <point x="202" y="10" type="line"/>
      <point x="227" y="10" type="line"/>
    </contour>
    <contour>
      <point x="172" y="32" type="curve"/>
      <point x="172" y="285" type="line"/>
      <point x="119" y="285" type="line" smooth="yes"/>
      <point x="82" y="285"/>
      <point x="63" y="260"/>
      <point x="63" y="219" type="curve" smooth="yes"/>
      <point x="63" y="65" type="line" smooth="yes"/>
      <point x="63" y="26"/>
      <point x="75" y="7"/>
      <point x="109" y="7" type="curve" smooth="yes"/>
      <point x="130" y="7"/>
      <point x="153" y="16"/>
    </contour>
  </outline>
</glyph>
<glyph name="b" format="1">
  <advance width="252"/>
  <unicode hex="0062"/>
  <outline>
    <contour>
      <point x="216" y="70" type="line" smooth="yes"/>
      <point x="216" y="20"/>
      <point x="194" y="-5"/>
      <point x="147" y="-5" type="curve" smooth="yes"/>
      <point x="113" y="-5"/>
      <point x="91" y="6"/>
      <point x="73" y="19" type="curve"/>
      <point x="73" y="0" type="line"/>
      <point x="18" y="0" type="line"/>
      <point x="18" y="10" type="line"/>
      <point x="43" y="10" type="line"/>
      <point x="43" y="690" type="line"/>
      <point x="18" y="690" type="line"/>
      <point x="18" y="700" type="line"/>
      <point x="73" y="700" type="line"/>
      <point x="73" y="501" type="line"/>
      <point x="91" y="514"/>
      <point x="113" y="525"/>
      <point x="147" y="525" type="curve" smooth="yes"/>
      <point x="194" y="525"/>
      <point x="216" y="500"/>
      <point x="216" y="450" type="curve" smooth="yes"/>
    </contour>
    <contour>
      <point x="186" y="65" type="curve" smooth="yes"/>
      <point x="186" y="455" type="line" smooth="yes"/>
      <point x="186" y="494"/>
      <point x="172" y="513"/>
      <point x="138" y="513" type="curve" smooth="yes"/>
      <point x="116" y="513"/>
      <point x="92" y="504"/>
      <point x="73" y="488" type="curve"/>
      <point x="73" y="32" type="line"/>
      <point x="92" y="16"/>
      <point x="116" y="7"/>
      <point x="138" y="7" type="curve" smooth="yes"/>
      <point x="172" y="7"/>
      <point x="186" y="26"/>
    </contour>
  </outline>
</glyph>
<glyph name="c" format="1">
  <advance width="246"/>
  <unicode hex="0063"/>
  <outline>
    <contour>
      <point x="213" y="87" type="line" smooth="yes"/>
      <point x="213" y="31"/>
      <point x="183" y="-5"/>
      <point x="124" y="-5" type="curve" smooth="yes"/>
      <point x="65" y="-5"/>
      <point x="35" y="31"/>
      <point x="35" y="87" type="curve" smooth="yes"/>
      <point x="35" y="433" type="line" smooth="yes"/>
      <point x="35" y="489"/>
      <point x="65" y="525"/>
      <point x="124" y="525" type="curve" smooth="yes"/>
      <point x="183" y="525"/>
      <point x="213" y="489"/>
      <point x="213" y="433" type="curve" smooth="yes"/>
      <point x="213" y="361" type="line"/>
      <point x="183" y="361" type="line"/>
      <point x="183" y="449" type="line" smooth="yes"/>
      <point x="183" y="490"/>
      <point x="164" y="515"/>
      <point x="124" y="515" type="curve" smooth="yes"/>
      <point x="84" y="515"/>
      <point x="65" y="490"/>
      <point x="65" y="449" type="curve" smooth="yes"/>
      <point x="65" y="71" type="line" smooth="yes"/>
      <point x="65" y="30"/>
      <point x="84" y="5"/>
      <point x="124" y="5" type="curve" smooth="yes"/>
      <point x="164" y="5"/>
      <point x="183" y="30"/>
      <point x="183" y="71" type="curve" smooth="yes"/>
      <point x="183" y="159" type="line"/>
      <point x="213" y="159" type="line"/>
    </contour>
  </outline>
</glyph>
<glyph name="d" format="1">
  <advance width="252"/>
  <unicode hex="0064"/>
  <outline>
    <contour>
      <point x="234" y="0" type="line"/>
      <point x="179" y="0" type="line"/>
      <point x="179" y="19" type="line"/>
      <point x="161" y="6"/>
      <point x="139" y="-5"/>
      <point x="105" y="-5" type="curve" smooth="yes"/>
      <point x="58" y="-5"/>
      <point x="36" y="20"/>
      <point x="36" y="70" type="curve" smooth="yes"/>
      <point x="36" y="450" type="line" smooth="yes"/>
      <point x="36" y="500"/>
      <point x="58" y="525"/>
      <point x="105" y="525" type="curve" smooth="yes"/>
      <point x="139" y="525"/>
      <point x="161" y="514"/>
      <point x="179" y="501" type="curve"/>
      <point x="179" y="690" type="line"/>
      <point x="154" y="690" type="line"/>
      <point x="154" y="700" type="line"/>
      <point x="209" y="700" type="line"/>
      <point x="209" y="10" type="line"/>
      <point x="234" y="10" type="line"/>
    </contour>
    <contour>
      <point x="179" y="32" type="curve"/>
      <point x="179" y="488" type="line"/>
      <point x="160" y="504"/>
      <point x="136" y="513"/>
      <point x="114" y="513" type="curve" smooth="yes"/>
      <point x="80" y="513"/>
      <point x="66" y="494"/>
      <point x="66" y="455" type="curve" smooth="yes"/>
      <point x="66" y="65" type="line" smooth="yes"/>
      <point x="66" y="26"/>
      <point x="80" y="7"/>
      <point x="114" y="7" type="curve" smooth="yes"/>
      <point x="136" y="7"/>
      <point x="160" y="16"/>
    </contour>
  </outline>
</glyph>
<glyph name="f" format="1">
  <advance width="136"/>
  <unicode hex="0066"/>
  <outline>
    <contour>
      <point x="133" y="690" type="line"/>
      <point x="123" y="690" type="line" smooth="yes"/>
      <point x="93" y="690"/>
      <point x="78" y="670"/>
      <point x="78" y="639" type="curve" smooth="yes"/>
      <point x="78" y="520" type="line"/>
      <point x="118" y="520" type="line"/>
      <point x="118" y="510" type="line"/>
      <point x="78" y="510" type="line"/>
      <point x="78" y="10" type="line"/>
      <point x="103" y="10" type="line"/>
      <point x="103" y="0" type="line"/>
      <point x="23" y="0" type="line"/>
      <point x="23" y="10" type="line"/>
      <point x="48" y="10" type="line"/>
      <point x="48" y="510" type="line"/>
      <point x="23" y="510" type="line"/>
      <point x="23" y="520" type="line"/>
      <point x="48" y="520" type="line"/>
      <point x="48" y="631" type="line" smooth="yes"/>
      <point x="48" y="673"/>
      <point x="71" y="700"/>
      <point x="115" y="700" type="curve" smooth="yes"/>
      <point x="133" y="700" type="line"/>
    </contour>
  </outline>
</glyph>
<glyph name="g" format="1">
  <advance width="252"/>
  <unicode hex="0067"/>
  <outline>
    <contour>
      <point x="234" y="510" type="line"/>
      <point x="209" y="510" type="line"/>
      <point x="209" y="-53" type="line" smooth="yes"/>
      <point x="209" y="-109"/>
      <point x="181" y="-145"/>
      <point x="122" y="-145" type="curve" smooth="yes"/>
      <point x="63" y="-145"/>
      <point x="36" y="-109"/>
      <point x="36" y="-53" type="curve" smooth="yes"/>
      <point x="36" y="-35" type="line"/>
      <point x="66" y="-35" type="line"/>
      <point x="66" y="-69" type="line" smooth="yes"/>
      <point x="66" y="-110"/>
      <point x="84" y="-135"/>
      <point x="122" y="-135" type="curve" smooth="yes"/>
      <point x="160" y="-135"/>
      <point x="179" y="-110"/>
      <point x="179" y="-69" type="curve" smooth="yes"/>
      <point x="179" y="29" type="line"/>
      <point x="161" y="16"/>
      <point x="139" y="5"/>
      <point x="105" y="5" type="curve" smooth="yes"/>
      <point x="58" y="5"/>
      <point x="36" y="30"/>
      <point x="36" y="80" type="curve" smooth="yes"/>
      <point x="36" y="450" type="line" smooth="yes"/>
      <point x="36" y="500"/>
      <point x="58" y="525"/>
      <point x="105" y="525" type="curve" smooth="yes"/>
      <point x="139" y="525"/>
      <point x="161" y="514"/>
      <point x="179" y="501" type="curve"/>
      <point x="179" y="520" type="line"/>
      <point x="234" y="520" type="line"/>
    </contour>
    <contour>
      <point x="179" y="42" type="curve"/>
      <point x="179" y="488" type="line"/>
      <point x="160" y="504"/>
      <point x="136" y="513"/>
      <point x="114" y="513" type="curve" smooth="yes"/>
      <point x="80" y="513"/>
      <point x="66" y="494"/>
      <point x="66" y="455" type="curve" smooth="yes"/>
      <point x="66" y="75" type="line" smooth="yes"/>
      <point x="66" y="36"/>
      <point x="80" y="17"/>
      <point x="114" y="17" type="curve" smooth="yes"/>
      <point x="136" y="17"/>
      <point x="160" y="26"/>
    </contour>
  </outline>
</glyph>
<glyph name="h" format="1">
  <advance width="256"/>
  <unicode hex="0068"/>
  <outline>
    <contour>
      <point x="241" y="0" type="line"/>
      <point x="186" y="0" type="line"/>
      <point x="186" y="455" type="line" smooth="yes"/>
      <point x="186" y="494"/>
      <point x="172" y="513"/>
      <point x="138" y="513" type="curve" smooth="yes"/>
      <point x="116" y="513"/>
      <point x="92" y="504"/>
      <point x="73" y="488" type="curve"/>
      <point x="73" y="10" type="line"/>
      <point x="98" y="10" type="line"/>
      <point x="98" y="0" type="line"/>
      <point x="18" y="0" type="line"/>
      <point x="18" y="10" type="line"/>
      <point x="43" y="10" type="line"/>
      <point x="43" y="690" type="line"/>
      <point x="18" y="690" type="line"/>
      <point x="18" y="700" type="line"/>
      <point x="73" y="700" type="line"/>
      <point x="73" y="501" type="line"/>
      <point x="91" y="514"/>
      <point x="113" y="525"/>
      <point x="147" y="525" type="curve" smooth="yes"/>
      <point x="194" y="525"/>
      <point x="216" y="500"/>
      <point x="216" y="450" type="curve" smooth="yes"/>
      <point x="216" y="10" type="line"/>
      <point x="241" y="10" type="line"/>
    </contour>
  </outline>
</glyph>
<glyph name="i" format="1">
  <advance width="124"/>
  <unicode hex="0069"/>
  <outline>
    <contour>
      <point x="77" y="615" type="line"/>
      <point x="47" y="615" type="line"/>
      <point x="47" y="700" type="line"/>
      <point x="77" y="700" type="line"/>
    </contour>
    <contour>
      <point x="103" y="0" type="line"/>
      <point x="23" y="0" type="line"/>
      <point x="23" y="10" type="line"/>
      <point x="48" y="10" type="line"/>
      <point x="48" y="510" type="line"/>
      <point x="23" y="510" type="line"/>
      <point x="23" y="520" type="line"/>
      <point x="78" y="520" type="line"/>
      <point x="78" y="10" type="line"/>
      <point x="103" y="10" type="line"/>
    </contour>
  </outline>
</glyph>
<glyph name="j" format="1">
  <advance width="118"/>
  <unicode hex="006A"/>
  <outline>
    <contour>
      <point x="75" y="615" type="line"/>
      <point x="45" y="615" type="line"/>
      <point x="45" y="700" type="line"/>
      <point x="75" y="700" type="line"/>
    </contour>
    <contour>
      <point x="76" y="-71" type="line" smooth="yes"/>
      <point x="76" y="-113"/>
      <point x="53" y="-140"/>
      <point x="9" y="-140" type="curve" smooth="yes"/>
      <point x="-9" y="-140" type="line"/>
      <point x="-9" y="-130" type="line"/>
      <point x="1" y="-130" type="line" smooth="yes"/>
      <point x="31" y="-130"/>
      <point x="46" y="-110"/>
      <point x="46" y="-79" type="curve" smooth="yes"/>
      <point x="46" y="510" type="line"/>
      <point x="21" y="510" type="line"/>
      <point x="21" y="520" type="line"/>
      <point x="76" y="520" type="line"/>
    </contour>
  </outline>
</glyph>
<glyph name="k" format="1">
  <advance width="241"/>
  <unicode hex="006B"/>
  <outline>
    <contour>
      <point x="239" y="0" type="line"/>
      <point x="185" y="0" type="line"/>
      <point x="73" y="265" type="line"/>
      <point x="73" y="10" type="line"/>
      <point x="98" y="10" type="line"/>
      <point x="98" y="0" type="line"/>
      <point x="18" y="0" type="line"/>
      <point x="18" y="10" type="line"/>
      <point x="43" y="10" type="line"/>
      <point x="43" y="690" type="line"/>
      <point x="18" y="690" type="line"/>
      <point x="18" y="700" type="line"/>
      <point x="73" y="700" type="line"/>
      <point x="73" y="275" type="line"/>
      <point x="185" y="510" type="line"/>
      <point x="164" y="510" type="line"/>
      <point x="164" y="520" type="line"/>
      <point x="223" y="520" type="line"/>
      <point x="223" y="510" type="line"/>
      <point x="201" y="510" type="line"/>
      <point x="96" y="288" type="line"/>
      <point x="212" y="10" type="line"/>
      <point x="239" y="10" type="line"/>
    </contour>
  </outline>
</glyph>
<glyph name="l" format="1">
  <advance width="122"/>
  <unicode hex="006C"/>
  <outline>
    <contour>
      <point x="101" y="0" type="line"/>
      <point x="21" y="0" type="line"/>
      <point x="21" y="10" type="line"/>
      <point x="46" y="10" type="line"/>
      <point x="46" y="690" type="line"/>
      <point x="21" y="690" type="line"/>
      <point x="21" y="700" type="line"/>
      <point x="76" y="700" type="line"/>
      <point x="76" y="10" type="line"/>
      <point x="101" y="10" type="line"/>
    </contour>
  </outline>
</glyph>
<glyph name="m" format="1">
  <advance width="401"/>
  <unicode hex="006D"/>
  <outline>
    <contour>
      <point x="386" y="0" type="line"/>
      <point x="331" y="0" type="line"/>
      <point x="331" y="455" type="line" smooth="yes"/>
      <point x="331" y="494"/>
      <point x="317" y="513"/>
      <point x="283" y="513" type="curve" smooth="yes"/>
      <point x="258" y="513"/>
      <point x="233" y="502"/>
      <point x="213" y="484" type="curve"/>
      <point x="216" y="475"/>
      <point x="218" y="463"/>
      <point x="218" y="450" type="curve" smooth="yes"/>
      <point x="218" y="10" type="line"/>
      <point x="243" y="10" type="line"/>
      <point x="243" y="0" type="line"/>
      <point x="188" y="0" type="line"/>
      <point x="188" y="455" type="line" smooth="yes"/>
      <point x="188" y="494"/>
      <point x="174" y="513"/>
      <point x="140" y="513" type="curve" smooth="yes"/>
      <point x="118" y="513"/>
      <point x="94" y="504"/>
      <point x="75" y="488" type="curve"/>
      <point x="75" y="10" type="line"/>
      <point x="100" y="10" type="line"/>
      <point x="100" y="0" type="line"/>
      <point x="20" y="0" type="line"/>
      <point x="20" y="10" type="line"/>
      <point x="45" y="10" type="line"/>
      <point x="45" y="510" type="line"/>
      <point x="20" y="510" type="line"/>
      <point x="20" y="520" type="line"/>
      <point x="75" y="520" type="line"/>
      <point x="75" y="501" type="line"/>
      <point x="93" y="514"/>
      <point x="115" y="525"/>
      <point x="149" y="525" type="curve" smooth="yes"/>
      <point x="179" y="525"/>
      <point x="198" y="515"/>
      <point x="209" y="495" type="curve"/>
      <point x="227" y="511"/>
      <point x="256" y="525"/>
      <point x="292" y="525" type="curve" smooth="yes"/>
      <point x="339" y="525"/>
      <point x="361" y="500"/>
      <point x="361" y="450" type="curve" smooth="yes"/>
      <point x="361" y="10" type="line"/>
      <point x="386" y="10" type="line"/>
    </contour>
  </outline>
</glyph>
<glyph name="n" format="1">
  <advance width="258"/>
  <unicode hex="006E"/>
  <outline>
    <contour>
      <point x="243" y="0" type="line"/>
      <point x="188" y="0" type="line"/>
      <point x="188" y="455" type="line" smooth="yes"/>
      <point x="188" y="494"/>
      <point x="174" y="513"/>
      <point x="140" y="513" type="curve" smooth="yes"/>
      <point x="118" y="513"/>
      <point x="94" y="504"/>
      <point x="75" y="488" type="curve"/>
      <point x="75" y="10" type="line"/>
      <point x="100" y="10" type="line"/>
      <point x="100" y="0" type="line"/>
      <point x="20" y="0" type="line"/>
      <point x="20" y="10" type="line"/>
      <point x="45" y="10" type="line"/>
      <point x="45" y="510" type="line"/>
      <point x="20" y="510" type="line"/>
      <point x="20" y="520" type="line"/>
      <point x="75" y="520" type="line"/>
      <point x="75" y="501" type="line"/>
      <point x="93" y="514"/>
      <point x="115" y="525"/>
      <point x="149" y="525" type="curve" smooth="yes"/>
      <point x="196" y="525"/>
      <point x="218" y="500"/>
      <point x="218" y="450" type="curve" smooth="yes"/>
      <point x="218" y="10" type="line"/>
      <point x="243" y="10" type="line"/>
    </contour>
  </outline>
</glyph>
<glyph name="p" format="1">
  <advance width="252"/>
  <unicode hex="0070"/>
  <outline>
    <contour>
      <point x="216" y="70" type="line" smooth="yes"/>
      <point x="216" y="20"/>
      <point x="194" y="-5"/>
      <point x="147" y="-5" type="curve" smooth="yes"/>
      <point x="113" y="-5"/>
      <point x="91" y="6"/>
      <point x="73" y="19" type="curve"/>
      <point x="73" y="-130" type="line"/>
      <point x="98" y="-130" type="line"/>
      <point x="98" y="-140" type="line"/>
      <point x="18" y="-140" type="line"/>
      <point x="18" y="-130" type="line"/>
      <point x="43" y="-130" type="line"/>
      <point x="43" y="510" type="line"/>
      <point x="18" y="510" type="line"/>
      <point x="18" y="520" type="line"/>
      <point x="73" y="520" type="line"/>
      <point x="73" y="501" type="line"/>
      <point x="91" y="514"/>
      <point x="113" y="525"/>
      <point x="147" y="525" type="curve" smooth="yes"/>
      <point x="194" y="525"/>
      <point x="216" y="500"/>
      <point x="216" y="450" type="curve" smooth="yes"/>
    </contour>
    <contour>
      <point x="186" y="65" type="curve" smooth="yes"/>
      <point x="186" y="455" type="line" smooth="yes"/>
      <point x="186" y="494"/>
      <point x="172" y="513"/>
      <point x="138" y="513" type="curve" smooth="yes"/>
      <point x="116" y="513"/>
      <point x="92" y="504"/>
      <point x="73" y="488" type="curve"/>
      <point x="73" y="32" type="line"/>
      <point x="92" y="16"/>
      <point x="116" y="7"/>
      <point x="138" y="7" type="curve" smooth="yes"/>
      <point x="172" y="7"/>
      <point x="186" y="26"/>
    </contour>
  </outline>
</glyph>
<glyph name="r" format="1">
  <advance width="218"/>
  <unicode hex="0072"/>
  <outline>
    <contour>
      <point x="198" y="361" type="line"/>
      <point x="168" y="361" type="line"/>
      <point x="168" y="455" type="line" smooth="yes"/>
      <point x="168" y="494"/>
      <point x="162" y="513"/>
      <point x="130" y="513" type="curve" smooth="yes"/>
      <point x="113" y="513"/>
      <point x="95" y="504"/>
      <point x="75" y="488" type="curve"/>
      <point x="75" y="10" type="line"/>
      <point x="100" y="10" type="line"/>
      <point x="100" y="0" type="line"/>
      <point x="20" y="0" type="line"/>
      <point x="20" y="10" type="line"/>
      <point x="45" y="10" type="line"/>
      <point x="45" y="510" type="line"/>
      <point x="20" y="510" type="line"/>
      <point x="20" y="520" type="line"/>
      <point x="75" y="520" type="line"/>
      <point x="75" y="501" type="line"/>
      <point x="93" y="514"/>
      <point x="112" y="525"/>
      <point x="139" y="525" type="curve" smooth="yes"/>
      <point x="186" y="525"/>
      <point x="198" y="500"/>
      <point x="198" y="450" type="curve" smooth="yes"/>
    </contour>
  </outline>
</glyph>
<glyph name="t" format="1">
  <advance width="136"/>
  <unicode hex="0074"/>
  <outline>
    <contour>
      <point x="123" y="0" type="line"/>
      <point x="110" y="0" type="line" smooth="yes"/>
      <point x="66" y="0"/>
      <point x="43" y="27"/>
      <point x="43" y="69" type="curve" smooth="yes"/>
      <point x="43" y="510" type="line"/>
      <point x="18" y="510" type="line"/>
      <point x="18" y="520" type="line"/>
      <point x="43" y="520" type="line"/>
      <point x="43" y="686" type="line"/>
      <point x="73" y="700" type="line"/>
      <point x="73" y="520" type="line"/>
      <point x="118" y="520" type="line"/>
      <point x="118" y="510" type="line"/>
      <point x="73" y="510" type="line"/>
      <point x="73" y="61" type="line" smooth="yes"/>
      <point x="73" y="30"/>
      <point x="88" y="10"/>
      <point x="118" y="10" type="curve" smooth="yes"/>
      <point x="123" y="10" type="line"/>
    </contour>
  </outline>
</glyph>
<glyph name="u" format="1">
  <advance width="256"/>
  <unicode hex="0075"/>
  <outline>
    <contour>
      <point x="238" y="0" type="line"/>
      <point x="183" y="0" type="line"/>
      <point x="183" y="19" type="line"/>
      <point x="165" y="6"/>
      <point x="143" y="-5"/>
      <point x="109" y="-5" type="curve" smooth="yes"/>
      <point x="62" y="-5"/>
      <point x="40" y="20"/>
      <point x="40" y="70" type="curve" smooth="yes"/>
      <point x="40" y="510" type="line"/>
      <point x="15" y="510" type="line"/>
      <point x="15" y="520" type="line"/>
      <point x="70" y="520" type="line"/>
      <point x="70" y="65" type="line" smooth="yes"/>
      <point x="70" y="26"/>
      <point x="84" y="7"/>
      <point x="118" y="7" type="curve" smooth="yes"/>
      <point x="140" y="7"/>
      <point x="164" y="16"/>
      <point x="183" y="32" type="curve"/>
      <point x="183" y="510" type="line"/>
      <point x="158" y="510" type="line"/>
      <point x="158" y="520" type="line"/>
      <point x="213" y="520" type="line"/>
      <point x="213" y="10" type="line"/>
      <point x="238" y="10" type="line"/>
    </contour>
  </outline>
</glyph>
<glyph name="x" format="1">
  <advance width="243"/>
  <unicode hex="0078"/>
  <outline>
    <contour>
      <point x="234" y="0" type="line"/>
      <point x="153" y="0" type="line"/>
      <point x="153" y="10" type="line"/>
      <point x="178" y="10" type="line"/>
      <point x="117" y="231" type="line"/>
      <point x="51" y="10" type="line"/>
      <point x="76" y="10" type="line"/>
      <point x="76" y="0" type="line"/>
      <point x="9" y="0" type="line"/>
      <point x="9" y="10" type="line"/>
      <point x="34" y="10" type="line"/>
      <point x="109" y="256" type="line"/>
      <point x="36" y="510" type="line"/>
      <point x="11" y="510" type="line"/>
      <point x="11" y="520" type="line"/>
      <point x="92" y="520" type="line"/>
      <point x="92" y="510" type="line"/>
      <point x="67" y="510" type="line"/>
      <point x="126" y="301" type="line"/>
      <point x="190" y="510" type="line"/>
      <point x="165" y="510" type="line"/>
      <point x="165" y="520" type="line"/>
      <point x="232" y="520" type="line"/>
      <point x="232" y="510" type="line"/>
      <point x="207" y="510" type="line"/>
      <point x="133" y="276" type="line"/>
      <point x="209" y="10" type="line"/>
      <point x="234" y="10" type="line"/>
    </contour>
  </outline>
</glyph>
<glyph name="y" format="1">
  <advance width="251"/>
  <unicode hex="0079"/>
  <outline>
    <contour>
      <point x="213" y="-53" type="line" smooth="yes"/>
      <point x="213" y="-109"/>
      <point x="185" y="-145"/>
      <point x="126" y="-145" type="curve" smooth="yes"/>
      <point x="67" y="-145"/>
      <point x="40" y="-109"/>
      <point x="40" y="-53" type="curve" smooth="yes"/>
      <point x="40" y="-35" type="line"/>
      <point x="70" y="-35" type="line"/>
      <point x="70" y="-69" type="line" smooth="yes"/>
      <point x="70" y="-110"/>
      <point x="88" y="-135"/>
      <point x="126" y="-135" type="curve" smooth="yes"/>
      <point x="164" y="-135"/>
      <point x="183" y="-110"/>
      <point x="183" y="-69" type="curve" smooth="yes"/>
      <point x="183" y="29" type="line"/>
      <point x="165" y="16"/>
      <point x="143" y="5"/>
      <point x="109" y="5" type="curve" smooth="yes"/>
      <point x="62" y="5"/>
      <point x="40" y="30"/>
      <point x="40" y="80" type="curve" smooth="yes"/>
      <point x="40" y="510" type="line"/>
      <point x="15" y="510" type="line"/>
      <point x="15" y="520" type="line"/>
      <point x="70" y="520" type="line"/>
      <point x="70" y="75" type="line" smooth="yes"/>
      <point x="70" y="36"/>
      <point x="84" y="17"/>
      <point x="118" y="17" type="curve" smooth="yes"/>
      <point x="140" y="17"/>
      <point x="164" y="26"/>
      <point x="183" y="42" type="curve"/>
      <point x="183" y="510" type="line"/>
      <point x="158" y="510" type="line"/>
      <point x="158" y="520" type="line"/>
      <point x="213" y="520" type="line"/>
    </contour>
  </outline>
</glyph>
<glyph name="z" format="1">
  <advance width="236"/>
  <unicode hex="007A"/>
  <outline>
    <contour>
      <point x="209" y="510" type="line"/>
      <point x="56" y="10" type="line"/>
      <point x="178" y="10" type="line"/>
      <point x="178" y="159" type="line"/>
      <point x="206" y="159" type="line"/>
      <point x="206" y="0" type="line"/>
      <point x="25" y="0" type="line"/>
      <point x="25" y="10" type="line"/>
      <point x="178" y="510" type="line"/>
      <point x="60" y="510" type="line"/>
      <point x="60" y="361" type="line"/>
      <point x="32" y="361" type="line"/>
      <point x="32" y="520" type="line"/>
      <point x="209" y="520" type="line"/>
    </contour>
  </outline>
</glyph>
<glyph name="braceleft" format="1">
  <advance width="205"/>
  <unicode hex="007B"/>
  <outline>
    <contour>
      <point x="183" y="0" type="line"/>
      <point x="167" y="0" type="line" smooth="yes"/>
      <point x="109" y="0"/>
      <point x="79" y="35"/>
      <point x="79" y="91" type="curve" smooth="yes"/>
      <point x="79" y="295" type="line" smooth="yes"/>
      <point x="79" y="339"/>
      <point x="55" y="365"/>
      <point x="17" y="365" type="curve" smooth="yes"/>
      <point x="8" y="365" type="line"/>
      <point x="8" y="375" type="line"/>
      <point x="17" y="375" type="line" smooth="yes"/>
      <point x="55" y="375"/>
      <point x="79" y="401"/>
      <point x="79" y="445" type="curve" smooth="yes"/>
      <point x="79" y="609" type="line" smooth="yes"/>
      <point x="79" y="665"/>
      <point x="109" y="700"/>
      <point x="167" y="700" type="curve" smooth="yes"/>
      <point x="183" y="700" type="line"/>
      <point x="183" y="690" type="line"/>
      <point x="169" y="690" type="line" smooth="yes"/>
      <point x="129" y="690"/>
      <point x="109" y="667"/>
      <point x="109" y="623" type="curve" smooth="yes"/>
      <point x="109" y="458" type="line" smooth="yes"/>
      <point x="109" y="405"/>
      <point x="78" y="378"/>
      <point x="46" y="370" type="curve"/>
      <point x="78" y="362"/>
      <point x="109" y="335"/>
      <point x="109" y="282" type="curve" smooth="yes"/>
      <point x="109" y="77" type="line" smooth="yes"/>
      <point x="109" y="33"/>
      <point x="129" y="10"/>
      <point x="169" y="10" type="curve" smooth="yes"/>
      <point x="183" y="10" type="line"/>
    </contour>
  </outline>
</glyph>
<glyph name="bar" format="1">
  <advance width="102"/>
  <unicode hex="007C"/>
  <outline>
    <contour>
      <point x="57" y="-140" type="line"/>
      <point x="43" y="-140" type="line"/>
      <point x="43" y="700" type="line"/>
      <point x="57" y="700" type="line"/>
    </contour>
  </outline>
</glyph>
<glyph name="braceright" format="1">
  <advance width="205"/>
  <unicode hex="007D"/>
  <outline>
    <contour>
      <point x="197" y="365" type="line"/>
      <point x="188" y="365" type="line" smooth="yes"/>
      <point x="150" y="365"/>
      <point x="126" y="339"/>
      <point x="126" y="295" type="curve" smooth="yes"/>
      <point x="126" y="91" type="line" smooth="yes"/>
      <point x="126" y="35"/>
      <point x="96" y="0"/>
      <point x="38" y="0" type="curve" smooth="yes"/>
      <point x="22" y="0" type="line"/>
      <point x="22" y="10" type="line"/>
      <point x="36" y="10" type="line" smooth="yes"/>
      <point x="76" y="10"/>
      <point x="96" y="33"/>
      <point x="96" y="77" type="curve" smooth="yes"/>
      <point x="96" y="282" type="line" smooth="yes"/>
      <point x="96" y="335"/>
      <point x="127" y="362"/>
      <point x="159" y="370" type="curve"/>
      <point x="127" y="378"/>
      <point x="96" y="405"/>
      <point x="96" y="458" type="curve" smooth="yes"/>
      <point x="96" y="623" type="line" smooth="yes"/>
      <point x="96" y="667"/>
      <point x="76" y="690"/>
      <point x="36" y="690" type="curve" smooth="yes"/>
      <point x="22" y="690" type="line"/>
      <point x="22" y="700" type="line"/>
      <point x="38" y="700" type="line" smooth="yes"/>
      <point x="96" y="700"/>
      <point x="126" y="665"/>
      <point x="126" y="609" type="curve" smooth="yes"/>
      <point x="126" y="445" type="line" smooth="yes"/>
      <point x="126" y="401"/>
      <point x="150" y="375"/>
      <point x="188" y="375" type="curve" smooth="yes"/>
      <point x="197" y="375" type="line"/>
    </contour>
  </outline>
</glyph>
<glyph name="asciitilde" format="1">
  <advance width="300"/>
  <unicode hex="007E"/>
  <outline>
    <contour>
      <point x="233" y="394" type="line"/>
      <point x="231" y="384" type="line" smooth="yes"/>
      <point x="225" y="355"/>
      <point x="212" y="342"/>
      <point x="180" y="349" type="curve" smooth="yes"/>
      <point x="114" y="363" type="line" smooth="yes"/>
      <point x="89" y="368"/>
      <point x="82" y="361"/>
      <point x="76" y="343" type="curve"/>
      <point x="67" y="345" type="line"/>
      <point x="69" y="355" type="line" smooth="yes"/>
      <point x="75" y="384"/>
      <point x="88" y="397"/>
      <point x="120" y="390" type="curve" smooth="yes"/>
      <point x="186" y="376" type="line" smooth="yes"/>
      <point x="211" y="371"/>
      <point x="218" y="378"/>
      <point x="224" y="396" type="curve"/>
    </contour>
  </outline>
</glyph>
<glyph name="exclamdown" format="1">
  <advance width="118"/>
  <unicode hex="00A1"/>
  <outline>
    <contour>
      <point x="74" y="615" type="line"/>
      <point x="44" y="615" type="line"/>
      <point x="44" y="700" type="line"/>
      <point x="74" y="700" type="line"/>
    </contour>
    <contour>
      <point x="74" y="0" type="line"/>
      <point x="44" y="0" type="line"/>
      <point x="44" y="294" type="line"/>
      <point x="54" y="570" type="line"/>
      <point x="64" y="570" type="line"/>
      <point x="74" y="294" type="line"/>
    </contour>
  </outline>
</glyph>
<glyph name="cent" format="1">
  <advance width="246"/>
  <unicode hex="00A2"/>
  <outline>
    <contour>
      <point x="213" y="167" type="line" smooth="yes"/>
      <point x="213" y="113"/>
      <point x="185" y="78"/>
      <point x="131" y="75" type="curve"/>
      <point x="131" y="-10" type="line"/>
      <point x="117" y="-10" type="line"/>
      <point x="117" y="75" type="line"/>
      <point x="63" y="78"/>
      <point x="35" y="113"/>
      <point x="35" y="167" type="curve" smooth="yes"/>
      <point x="35" y="533" type="line" smooth="yes"/>
      <point x="35" y="587"/>
      <point x="63" y="622"/>
      <point x="117" y="625" type="curve"/>
      <point x="117" y="710" type="line"/>
      <point x="131" y="710" type="line"/>
      <point x="131" y="625" type="line"/>
      <point x="185" y="622"/>
      <point x="213" y="587"/>
      <point x="213" y="533" type="curve" smooth="yes"/>
      <point x="213" y="461" type="line"/>
      <point x="183" y="461" type="line"/>
      <point x="183" y="549" type="line" smooth="yes"/>
      <point x="183" y="590"/>
      <point x="164" y="615"/>
      <point x="124" y="615" type="curve" smooth="yes"/>
      <point x="84" y="615"/>
      <point x="65" y="590"/>
      <point x="65" y="549" type="curve" smooth="yes"/>
      <point x="65" y="151" type="line" smooth="yes"/>
      <point x="65" y="110"/>
      <point x="84" y="85"/>
      <point x="124" y="85" type="curve" smooth="yes"/>
      <point x="164" y="85"/>
      <point x="183" y="110"/>
      <point x="183" y="151" type="curve" smooth="yes"/>
      <point x="183" y="239" type="line"/>
      <point x="213" y="239" type="line"/>
    </contour>
  </outline>
</glyph>
<glyph name="sterling" format="1">
  <advance width="276"/>
  <unicode hex="00A3"/>
  <outline>
    <contour>
      <point x="236" y="0" type="line"/>
      <point x="28" y="0" type="line"/>
      <point x="28" y="10" type="line"/>
      <point x="53" y="10" type="line"/>
      <point x="53" y="365" type="line"/>
      <point x="28" y="365" type="line"/>
      <point x="28" y="375" type="line"/>
      <point x="53" y="375" type="line"/>
      <point x="53" y="606" type="line" smooth="yes"/>
      <point x="53" y="673"/>
      <point x="90" y="705"/>
      <point x="144" y="705" type="curve" smooth="yes"/>
      <point x="198" y="705"/>
      <point x="236" y="673"/>
      <point x="236" y="606" type="curve" smooth="yes"/>
      <point x="236" y="490" type="line"/>
      <point x="206" y="490" type="line"/>
      <point x="206" y="622" type="line" smooth="yes"/>
      <point x="206" y="668"/>
      <point x="184" y="695"/>
      <point x="144" y="695" type="curve" smooth="yes"/>
      <point x="104" y="695"/>
      <point x="83" y="668"/>
      <point x="83" y="622" type="curve" smooth="yes"/>
      <point x="83" y="375" type="line"/>
      <point x="177" y="375" type="line"/>
      <point x="177" y="365" type="line"/>
      <point x="83" y="365" type="line"/>
      <point x="83" y="10" type="line"/>
      <point x="206" y="10" type="line"/>
      <point x="206" y="210" type="line"/>
      <point x="236" y="210" type="line"/>
    </contour>
  </outline>
</glyph>
<glyph name="yen" format="1">
  <advance width="271"/>
  <unicode hex="00A5"/>
  <outline>
    <contour>
      <point x="263" y="690" type="line"/>
      <point x="238" y="690" type="line"/>
      <point x="150" y="294" type="line"/>
      <point x="150" y="242" type="line"/>
      <point x="220" y="242" type="line"/>
      <point x="220" y="232" type="line"/>
      <point x="150" y="232" type="line"/>
      <point x="150" y="191" type="line"/>
      <point x="220" y="191" type="line"/>
      <point x="220" y="181" type="line"/>
      <point x="150" y="181" type="line"/>
      <point x="150" y="10" type="line"/>
      <point x="175" y="10" type="line"/>
      <point x="175" y="0" type="line"/>
      <point x="95" y="0" type="line"/>
      <point x="95" y="10" type="line"/>
      <point x="120" y="10" type="line"/>
      <point x="120" y="181" type="line"/>
      <point x="50" y="181" type="line"/>
      <point x="50" y="191" type="line"/>
      <point x="120" y="191" type="line"/>
      <point x="120" y="232" type="line"/>
      <point x="50" y="232" type="line"/>
      <point x="50" y="242" type="line"/>
      <point x="120" y="242" type="line"/>
      <point x="120" y="291" type="line"/>
      <point x="33" y="690" type="line"/>
      <point x="8" y="690" type="line"/>
      <point x="8" y="700" type="line"/>
      <point x="90" y="700" type="line"/>
      <point x="90" y="690" type="line"/>
      <point x="65" y="690" type="line"/>
      <point x="142" y="324" type="line"/>
      <point x="222" y="690" type="line"/>
      <point x="197" y="690" type="line"/>
      <point x="197" y="700" type="line"/>
      <point x="263" y="700" type="line"/>
    </contour>
  </outline>
</glyph>
<glyph name="section" format="1">
  <advance width="280"/>
  <unicode hex="00A7"/>
  <outline>
    <contour>
      <point x="254" y="326" type="curve" smooth="yes"/>
      <point x="254" y="280"/>
      <point x="230" y="250"/>
      <point x="187" y="226" type="curve"/>
      <point x="220" y="197"/>
      <point x="234" y="169"/>
      <point x="234" y="122" type="curve" smooth="yes"/>
      <point x="234" y="101" type="line" smooth="yes"/>
      <point x="234" y="26"/>
      <point x="194" y="-5"/>
      <point x="140" y="-5" type="curve" smooth="yes"/>
      <point x="86" y="-5"/>
      <point x="46" y="26"/>
      <point x="46" y="101" type="curve" smooth="yes"/>
      <point x="46" y="210" type="line"/>
      <point x="76" y="210" type="line"/>
      <point x="76" y="85" type="line" smooth="yes"/>
      <point x="76" y="34"/>
      <point x="95" y="5"/>
      <point x="140" y="5" type="curve" smooth="yes"/>
      <point x="185" y="5"/>
      <point x="204" y="34"/>
      <point x="204" y="85" type="curve" smooth="yes"/>
      <point x="204" y="119" type="line" smooth="yes"/>
      <point x="204" y="167"/>
      <point x="195" y="187"/>
      <point x="152" y="220" type="curve" smooth="yes"/>
      <point x="80" y="276" type="line" smooth="yes"/>
      <point x="47" y="302"/>
      <point x="26" y="330"/>
      <point x="26" y="374" type="curve" smooth="yes"/>
      <point x="26" y="420"/>
      <point x="50" y="450"/>
      <point x="93" y="474" type="curve"/>
      <point x="60" y="503"/>
      <point x="46" y="531"/>
      <point x="46" y="578" type="curve" smooth="yes"/>
      <point x="46" y="599" type="line" smooth="yes"/>
      <point x="46" y="674"/>
      <point x="86" y="705"/>
      <point x="140" y="705" type="curve" smooth="yes"/>
      <point x="194" y="705"/>
      <point x="234" y="674"/>
      <point x="234" y="599" type="curve" smooth="yes"/>
      <point x="234" y="490" type="line"/>
      <point x="204" y="490" type="line"/>
      <point x="204" y="615" type="line" smooth="yes"/>
      <point x="204" y="666"/>
      <point x="185" y="695"/>
      <point x="140" y="695" type="curve" smooth="yes"/>
      <point x="95" y="695"/>
      <point x="76" y="666"/>
      <point x="76" y="615" type="curve" smooth="yes"/>
      <point x="76" y="581" type="line" smooth="yes"/>
      <point x="76" y="533"/>
      <point x="85" y="513"/>
      <point x="128" y="480" type="curve" smooth="yes"/>
      <point x="200" y="424" type="line" smooth="yes"/>
      <point x="233" y="398"/>
      <point x="254" y="370"/>
    </contour>
    <contour>
      <point x="224" y="323" type="curve" smooth="yes"/>
      <point x="224" y="361"/>
      <point x="208" y="384"/>
      <point x="181" y="405" type="curve" smooth="yes"/>
      <point x="101" y="467" type="line"/>
      <point x="69" y="444"/>
      <point x="56" y="415"/>
      <point x="56" y="377" type="curve" smooth="yes"/>
      <point x="56" y="339"/>
      <point x="72" y="316"/>
      <point x="99" y="295" type="curve" smooth="yes"/>
      <point x="179" y="233" type="line"/>
      <point x="211" y="256"/>
      <point x="224" y="285"/>
    </contour>
  </outline>
</glyph>
<glyph name="dieresis" format="1">
  <advance width="300"/>
  <unicode hex="00A8"/>
  <outline>
    <contour>
      <point x="209" y="558" type="line"/>
      <point x="181" y="558" type="line"/>
      <point x="181" y="643" type="line"/>
      <point x="209" y="643" type="line"/>
    </contour>
    <contour>
      <point x="119" y="558" type="line"/>
      <point x="91" y="558" type="line"/>
      <point x="91" y="643" type="line"/>
      <point x="119" y="643" type="line"/>
    </contour>
  </outline>
</glyph>
<glyph name="copyright" format="1">
  <advance width="368"/>
  <unicode hex="00A9"/>
  <outline>
    <contour>
      <point x="333" y="134" type="line" smooth="yes"/>
      <point x="333" y="58"/>
      <point x="274" y="-5"/>
      <point x="184" y="-5" type="curve" smooth="yes"/>
      <point x="94" y="-5"/>
      <point x="35" y="58"/>
      <point x="35" y="134" type="curve" smooth="yes"/>
      <point x="35" y="566" type="line" smooth="yes"/>
      <point x="35" y="642"/>
      <point x="94" y="705"/>
      <point x="184" y="705" type="curve" smooth="yes"/>
      <point x="274" y="705"/>
      <point x="333" y="642"/>
      <point x="333" y="566" type="curve" smooth="yes"/>
    </contour>
    <contour>
      <point x="320" y="131" type="curve" smooth="yes"/>
      <point x="320" y="569" type="line" smooth="yes"/>
      <point x="320" y="638"/>
      <point x="266" y="694"/>
      <point x="184" y="694" type="curve" smooth="yes"/>
      <point x="102" y="694"/>
      <point x="48" y="638"/>
      <point x="48" y="569" type="curve" smooth="yes"/>
      <point x="48" y="131" type="line" smooth="yes"/>
      <point x="48" y="62"/>
      <point x="102" y="6"/>
      <point x="184" y="6" type="curve" smooth="yes"/>
      <point x="266" y="6"/>
      <point x="320" y="62"/>
    </contour>
    <contour>
      <point x="252" y="178" type="line" smooth="yes"/>
      <point x="252" y="125"/>
      <point x="220" y="104"/>
      <point x="182" y="104" type="curve" smooth="yes"/>
      <point x="144" y="104"/>
      <point x="112" y="125"/>
      <point x="112" y="178" type="curve" smooth="yes"/>
      <point x="112" y="526" type="line" smooth="yes"/>
      <point x="112" y="579"/>
      <point x="144" y="600"/>
      <point x="182" y="600" type="curve" smooth="yes"/>
      <point x="220" y="600"/>
      <point x="252" y="579"/>
      <point x="252" y="526" type="curve" smooth="yes"/>
      <point x="252" y="450" type="line"/>
      <point x="229" y="450" type="line"/>
      <point x="229" y="537" type="line" smooth="yes"/>
      <point x="229" y="573"/>
      <point x="213" y="593"/>
      <point x="182" y="593" type="curve" smooth="yes"/>
      <point x="151" y="593"/>
      <point x="135" y="573"/>
      <point x="135" y="537" type="curve" smooth="yes"/>
      <point x="135" y="167" type="line" smooth="yes"/>
      <point x="135" y="131"/>
      <point x="151" y="111"/>
      <point x="182" y="111" type="curve" smooth="yes"/>
      <point x="213" y="111"/>
      <point x="229" y="131"/>
      <point x="229" y="167" type="curve" smooth="yes"/>
      <point x="229" y="254" type="line"/>
      <point x="252" y="254" type="line"/>
    </contour>
  </outline>
</glyph>
<glyph name="ordfeminine" format="1">
  <advance width="206"/>
  <unicode hex="00AA"/>
  <outline>
    <contour>
      <point x="186" y="298" type="line"/>
      <point x="141" y="298" type="line"/>
      <point x="141" y="313" type="line"/>
      <point x="127" y="303"/>
      <point x="109" y="294"/>
      <point x="87" y="294" type="curve" smooth="yes"/>
      <point x="51" y="294"/>
      <point x="35" y="314"/>
      <point x="35" y="352" type="curve" smooth="yes"/>
      <point x="35" y="459" type="line" smooth="yes"/>
      <point x="35" y="503"/>
      <point x="59" y="527"/>
      <point x="104" y="527" type="curve" smooth="yes"/>
      <point x="141" y="527" type="line"/>
      <point x="141" y="646" type="line" smooth="yes"/>
      <point x="141" y="678"/>
      <point x="129" y="697"/>
      <point x="102" y="697" type="curve" smooth="yes"/>
      <point x="75" y="697"/>
      <point x="63" y="678"/>
      <point x="63" y="646" type="curve" smooth="yes"/>
      <point x="63" y="578" type="line"/>
      <point x="38" y="578" type="line"/>
      <point x="38" y="634" type="line" smooth="yes"/>
      <point x="38" y="677"/>
      <point x="56" y="705"/>
      <point x="102" y="705" type="curve" smooth="yes"/>
      <point x="148" y="705"/>
      <point x="166" y="677"/>
      <point x="166" y="634" type="curve" smooth="yes"/>
      <point x="166" y="306" type="line"/>
      <point x="186" y="306" type="line"/>
    </contour>
    <contour>
      <point x="141" y="323" type="curve"/>
      <point x="141" y="519" type="line"/>
      <point x="102" y="519" type="line" smooth="yes"/>
      <point x="75" y="519"/>
      <point x="61" y="500"/>
      <point x="61" y="468" type="curve" smooth="yes"/>
      <point x="61" y="349" type="line" smooth="yes"/>
      <point x="61" y="318"/>
      <point x="70" y="304"/>
      <point x="94" y="304" type="curve" smooth="yes"/>
      <point x="111" y="304"/>
      <point x="126" y="311"/>
    </contour>
  </outline>
</glyph>
<glyph name="guillemotleft" format="1">
  <advance width="240"/>
  <unicode hex="00AB"/>
  <outline>
    <contour>
      <point x="212" y="141" type="line"/>
      <point x="202" y="141" type="line"/>
      <point x="110" y="325" type="line"/>
      <point x="110" y="335" type="line"/>
      <point x="202" y="520" type="line"/>
      <point x="212" y="520" type="line"/>
      <point x="142" y="330" type="line"/>
    </contour>
    <contour>
      <point x="128" y="141" type="line"/>
      <point x="118" y="141" type="line"/>
      <point x="26" y="325" type="line"/>
      <point x="26" y="335" type="line"/>
      <point x="118" y="520" type="line"/>
      <point x="128" y="520" type="line"/>
      <point x="58" y="330" type="line"/>
    </contour>
  </outline>
</glyph>
<glyph name="degree" format="1">
  <advance width="232"/>
  <unicode hex="00B0"/>
  <outline>
    <contour>
      <point x="195" y="382" type="line" smooth="yes"/>
      <point x="195" y="326"/>
      <point x="163" y="295"/>
      <point x="116" y="295" type="curve" smooth="yes"/>
      <point x="69" y="295"/>
      <point x="37" y="326"/>
      <point x="37" y="382" type="curve" smooth="yes"/>
      <point x="37" y="618" type="line" smooth="yes"/>
      <point x="37" y="674"/>
      <point x="69" y="705"/>
      <point x="116" y="705" type="curve" smooth="yes"/>
      <point x="163" y="705"/>
      <point x="195" y="674"/>
      <point x="195" y="618" type="curve" smooth="yes"/>
    </contour>
    <contour>
      <point x="165" y="366" type="curve" smooth="yes"/>
      <point x="165" y="634" type="line" smooth="yes"/>
      <point x="165" y="673"/>
      <point x="148" y="695"/>
      <point x="116" y="695" type="curve" smooth="yes"/>
      <point x="84" y="695"/>
      <point x="67" y="673"/>
      <point x="67" y="634" type="curve" smooth="yes"/>
      <point x="67" y="366" type="line" smooth="yes"/>
      <point x="67" y="327"/>
      <point x="84" y="305"/>
      <point x="116" y="305" type="curve" smooth="yes"/>
      <point x="148" y="305"/>
      <point x="165" y="327"/>
    </contour>
  </outline>
</glyph>
<glyph name="acute" format="1">
  <advance width="300"/>
  <unicode hex="00B4"/>
  <outline>
    <contour>
      <point x="198" y="655" type="line"/>
      <point x="124" y="550" type="line"/>
      <point x="114" y="550" type="line"/>
      <point x="165" y="660" type="line"/>
      <point x="198" y="660" type="line"/>
    </contour>
  </outline>
</glyph>
<glyph name="paragraph" format="1">
  <advance width="283"/>
  <unicode hex="00B6"/>
  <outline>
    <contour>
      <point x="255" y="0" type="line"/>
      <point x="211" y="0" type="line"/>
      <point x="211" y="690" type="line"/>
      <point x="201" y="690" type="line"/>
      <point x="201" y="0" type="line"/>
      <point x="165" y="0" type="line"/>
      <point x="165" y="10" type="line"/>
      <point x="190" y="10" type="line"/>
      <point x="190" y="304" type="line"/>
      <point x="138" y="304" type="line" smooth="yes"/>
      <point x="84" y="304"/>
      <point x="35" y="338"/>
      <point x="35" y="413" type="curve" smooth="yes"/>
      <point x="35" y="591" type="line" smooth="yes"/>
      <point x="35" y="666"/>
      <point x="84" y="700"/>
      <point x="138" y="700" type="curve" smooth="yes"/>
      <point x="255" y="700" type="line"/>
      <point x="255" y="690" type="line"/>
      <point x="230" y="690" type="line"/>
      <point x="230" y="10" type="line"/>
      <point x="255" y="10" type="line"/>
    </contour>
    <contour>
      <point x="190" y="314" type="line"/>
      <point x="190" y="690" type="line"/>
      <point x="138" y="690" type="line" smooth="yes"/>
      <point x="93" y="690"/>
      <point x="65" y="658"/>
      <point x="65" y="607" type="curve" smooth="yes"/>
      <point x="65" y="397" type="line" smooth="yes"/>
      <point x="65" y="346"/>
      <point x="93" y="314"/>
      <point x="138" y="314" type="curve" smooth="yes"/>
    </contour>
  </outline>
</glyph>
<glyph name="periodcentered" format="1">
  <advance width="110"/>
  <unicode hex="00B7"/>
  <outline>
    <contour>
      <point x="70" y="328" type="line"/>
      <point x="40" y="328" type="line"/>
      <point x="40" y="413" type="line"/>
      <point x="70" y="413" type="line"/>
    </contour>
  </outline>
</glyph>
<glyph name="cedilla" format="1">
  <advance width="300"/>
  <unicode hex="00B8"/>
  <outline>
    <contour>
      <point x="194" y="-67" type="curve" smooth="yes"/>
      <point x="194" y="-98"/>
      <point x="166" y="-106"/>
      <point x="133" y="-106" type="curve" smooth="yes"/>
      <point x="106" y="-106" type="line"/>
      <point x="106" y="-96" type="line"/>
      <point x="129" y="-96" type="line" smooth="yes"/>
      <point x="158" y="-96"/>
      <point x="166" y="-87"/>
      <point x="166" y="-67" type="curve" smooth="yes"/>
      <point x="166" y="-47"/>
      <point x="158" y="-38"/>
      <point x="129" y="-38" type="curve" smooth="yes"/>
      <point x="122" y="-38" type="line"/>
      <point x="122" y="-32" type="line"/>
      <point x="141" y="0" type="line"/>
      <point x="156" y="0" type="line"/>
      <point x="139" y="-28" type="line"/>
      <point x="141" y="-28" type="line" smooth="yes"/>
      <point x="171" y="-28"/>
      <point x="194" y="-36"/>
    </contour>
  </outline>
</glyph>
<glyph name="ordmasculine" format="1">
  <advance width="214"/>
  <unicode hex="00BA"/>
  <outline>
    <contour>
      <point x="176" y="366" type="line" smooth="yes"/>
      <point x="176" y="323"/>
      <point x="153" y="295"/>
      <point x="107" y="295" type="curve" smooth="yes"/>
      <point x="61" y="295"/>
      <point x="38" y="323"/>
      <point x="38" y="366" type="curve" smooth="yes"/>
      <point x="38" y="634" type="line" smooth="yes"/>
      <point x="38" y="677"/>
      <point x="61" y="705"/>
      <point x="107" y="705" type="curve" smooth="yes"/>
      <point x="153" y="705"/>
      <point x="176" y="677"/>
      <point x="176" y="634" type="curve" smooth="yes"/>
    </contour>
    <contour>
      <point x="151" y="354" type="curve" smooth="yes"/>
      <point x="151" y="646" type="line" smooth="yes"/>
      <point x="151" y="678"/>
      <point x="136" y="698"/>
      <point x="107" y="698" type="curve" smooth="yes"/>
      <point x="78" y="698"/>
      <point x="63" y="678"/>
      <point x="63" y="646" type="curve" smooth="yes"/>
      <point x="63" y="354" type="line" smooth="yes"/>
      <point x="63" y="322"/>
      <point x="78" y="302"/>
      <point x="107" y="302" type="curve" smooth="yes"/>
      <point x="136" y="302"/>
      <point x="151" y="322"/>
    </contour>
  </outline>
</glyph>
<glyph name="guillemotright" format="1">
  <advance width="240"/>
  <unicode hex="00BB"/>
  <outline>
    <contour>
      <point x="214" y="325" type="line"/>
      <point x="122" y="141" type="line"/>
      <point x="112" y="141" type="line"/>
      <point x="182" y="330" type="line"/>
      <point x="112" y="520" type="line"/>
      <point x="122" y="520" type="line"/>
      <point x="214" y="335" type="line"/>
    </contour>
    <contour>
      <point x="130" y="325" type="line"/>
      <point x="38" y="141" type="line"/>
      <point x="28" y="141" type="line"/>
      <point x="98" y="330" type="line"/>
      <point x="28" y="520" type="line"/>
      <point x="38" y="520" type="line"/>
      <point x="130" y="335" type="line"/>
    </contour>
  </outline>
</glyph>
<glyph name="questiondown" format="1">
  <advance width="253"/>
  <unicode hex="00BF"/>
  <outline>
    <contour>
      <point x="142" y="615" type="line"/>
      <point x="112" y="615" type="line"/>
      <point x="112" y="700" type="line"/>
      <point x="142" y="700" type="line"/>
    </contour>
    <contour>
      <point x="221" y="101" type="line" smooth="yes"/>
      <point x="221" y="26"/>
      <point x="179" y="-5"/>
      <point x="129" y="-5" type="curve" smooth="yes"/>
      <point x="79" y="-5"/>
      <point x="37" y="26"/>
      <point x="37" y="101" type="curve" smooth="yes"/>
      <point x="37" y="194" type="line" smooth="yes"/>
      <point x="37" y="243"/>
      <point x="44" y="272"/>
      <point x="68" y="307" type="curve" smooth="yes"/>
      <point x="93" y="344" type="line" smooth="yes"/>
      <point x="113" y="374"/>
      <point x="115" y="393"/>
      <point x="117" y="450" type="curve" smooth="yes"/>
      <point x="122" y="570" type="line"/>
      <point x="132" y="570" type="line"/>
      <point x="137" y="450" type="line" smooth="yes"/>
      <point x="138" y="425"/>
      <point x="139" y="402"/>
      <point x="139" y="391" type="curve" smooth="yes"/>
      <point x="139" y="375"/>
      <point x="138" y="360"/>
      <point x="124" y="340" type="curve" smooth="yes"/>
      <point x="97" y="300" type="line" smooth="yes"/>
      <point x="74" y="266"/>
      <point x="67" y="245"/>
      <point x="67" y="197" type="curve" smooth="yes"/>
      <point x="67" y="85" type="line" smooth="yes"/>
      <point x="67" y="34"/>
      <point x="89" y="5"/>
      <point x="129" y="5" type="curve" smooth="yes"/>
      <point x="169" y="5"/>
      <point x="191" y="34"/>
      <point x="191" y="85" type="curve" smooth="yes"/>
      <point x="191" y="210" type="line"/>
      <point x="221" y="210" type="line"/>
    </contour>
  </outline>
</glyph>
<glyph name="Aring" format="1">
  <advance width="270"/>
  <unicode hex="00C5"/>
  <outline>
    <contour>
      <point x="256" y="0" type="line"/>
      <point x="173" y="0" type="line"/>
      <point x="173" y="10" type="line"/>
      <point x="198" y="10" type="line"/>
      <point x="174" y="221" type="line"/>
      <point x="80" y="221" type="line"/>
      <point x="56" y="10" type="line"/>
      <point x="81" y="10" type="line"/>
      <point x="81" y="0" type="line"/>
      <point x="14" y="0" type="line"/>
      <point x="14" y="10" type="line"/>
      <point x="39" y="10" type="line"/>
      <point x="122" y="703" type="line"/>
      <point x="148" y="703" type="line"/>
      <point x="231" y="10" type="line"/>
      <point x="256" y="10" type="line"/>
    </contour>
    <contour>
      <point x="173" y="231" type="line"/>
      <point x="128" y="636" type="line"/>
      <point x="82" y="231" type="line"/>
    </contour>
    <contour>
      <point x="202" y="780" type="curve" smooth="yes"/>
      <point x="202" y="746"/>
      <point x="178" y="725"/>
      <point x="137" y="725" type="curve" smooth="yes"/>
      <point x="96" y="725"/>
      <point x="72" y="746"/>
      <point x="72" y="780" type="curve" smooth="yes"/>
      <point x="72" y="814"/>
      <point x="96" y="835"/>
      <point x="137" y="835" type="curve" smooth="yes"/>
      <point x="178" y="835"/>
      <point x="202" y="814"/>
    </contour>
    <contour>
      <point x="174" y="777" type="curve" smooth="yes"/>
      <point x="174" y="783" type="line" smooth="yes"/>
      <point x="174" y="811"/>
      <point x="160" y="826"/>
      <point x="137" y="826" type="curve" smooth="yes"/>
      <point x="114" y="826"/>
      <point x="100" y="811"/>
      <point x="100" y="783" type="curve" smooth="yes"/>
      <point x="100" y="777" type="line" smooth="yes"/>
      <point x="100" y="749"/>
      <point x="114" y="734"/>
      <point x="137" y="734" type="curve" smooth="yes"/>
      <point x="160" y="734"/>
      <point x="174" y="749"/>
    </contour>
  </outline>
</glyph>
<glyph name="AE" format="1">
  <advance width="397"/>
  <unicode hex="00C6"/>
  <outline>
    <contour>
      <point x="357" y="0" type="line"/>
      <point x="149" y="0" type="line"/>
      <point x="149" y="10" type="line"/>
      <point x="174" y="10" type="line"/>
      <point x="174" y="221" type="line"/>
      <point x="85" y="221" type="line"/>
      <point x="45" y="10" type="line"/>
      <point x="70" y="10" type="line"/>
      <point x="70" y="0" type="line"/>
      <point x="9" y="0" type="line"/>
      <point x="9" y="10" type="line"/>
      <point x="29" y="10" type="line"/>
      <point x="158" y="690" type="line"/>
      <point x="135" y="690" type="line"/>
      <point x="135" y="700" type="line"/>
      <point x="357" y="700" type="line"/>
      <point x="357" y="490" type="line"/>
      <point x="327" y="490" type="line"/>
      <point x="327" y="690" type="line"/>
      <point x="204" y="690" type="line"/>
      <point x="204" y="375" type="line"/>
      <point x="298" y="375" type="line"/>
      <point x="298" y="365" type="line"/>
      <point x="204" y="365" type="line"/>
      <point x="204" y="10" type="line"/>
      <point x="327" y="10" type="line"/>
      <point x="327" y="210" type="line"/>
      <point x="357" y="210" type="line"/>
    </contour>
    <contour>
      <point x="174" y="231" type="line"/>
      <point x="174" y="690" type="line"/>
      <point x="87" y="231" type="line"/>
    </contour>
  </outline>
</glyph>
<glyph name="Ccedilla" format="1">
  <advance width="276"/>
  <unicode hex="00C7"/>
  <outline>
    <contour>
      <point x="239" y="101" type="line" smooth="yes"/>
      <point x="239" y="28"/>
      <point x="197" y="-3"/>
      <point x="145" y="-5" type="curve"/>
      <point x="131" y="-28" type="line"/>
      <point x="133" y="-28" type="line" smooth="yes"/>
      <point x="163" y="-28"/>
      <point x="186" y="-36"/>
      <point x="186" y="-67" type="curve" smooth="yes"/>
      <point x="186" y="-98"/>
      <point x="158" y="-106"/>
      <point x="125" y="-106" type="curve" smooth="yes"/>
      <point x="98" y="-106" type="line"/>
      <point x="98" y="-96" type="line"/>
      <point x="121" y="-96" type="line" smooth="yes"/>
      <point x="150" y="-96"/>
      <point x="158" y="-87"/>
      <point x="158" y="-67" type="curve" smooth="yes"/>
      <point x="158" y="-47"/>
      <point x="150" y="-38"/>
      <point x="121" y="-38" type="curve" smooth="yes"/>
      <point x="114" y="-38" type="line"/>
      <point x="114" y="-32" type="line"/>
      <point x="130" y="-5" type="line"/>
      <point x="81" y="-1"/>
      <point x="43" y="31"/>
      <point x="43" y="101" type="curve" smooth="yes"/>
      <point x="43" y="599" type="line" smooth="yes"/>
      <point x="43" y="674"/>
      <point x="87" y="705"/>
      <point x="141" y="705" type="curve" smooth="yes"/>
      <point x="195" y="705"/>
      <point x="239" y="674"/>
      <point x="239" y="599" type="curve" smooth="yes"/>
      <point x="239" y="490" type="line"/>
      <point x="209" y="490" type="line"/>
      <point x="209" y="615" type="line" smooth="yes"/>
      <point x="209" y="666"/>
      <point x="186" y="695"/>
      <point x="141" y="695" type="curve" smooth="yes"/>
      <point x="96" y="695"/>
      <point x="73" y="666"/>
      <point x="73" y="615" type="curve" smooth="yes"/>
      <point x="73" y="85" type="line" smooth="yes"/>
      <point x="73" y="34"/>
      <point x="96" y="5"/>
      <point x="141" y="5" type="curve" smooth="yes"/>
      <point x="186" y="5"/>
      <point x="209" y="34"/>
      <point x="209" y="85" type="curve" smooth="yes"/>
      <point x="209" y="210" type="line"/>
      <point x="239" y="210" type="line"/>
    </contour>
  </outline>
</glyph>
<glyph name="Oslash" format="1">
  <advance width="292"/>
  <unicode hex="00D8"/>
  <outline>
    <contour>
      <point x="249" y="104" type="line" smooth="yes"/>
      <point x="249" y="29"/>
      <point x="200" y="-5"/>
      <point x="146" y="-5" type="curve" smooth="yes"/>
      <point x="123" y="-5"/>
      <point x="102" y="1"/>
      <point x="84" y="14" type="curve"/>
      <point x="69" y="-60" type="line"/>
      <point x="56" y="-60" type="line"/>
      <point x="73" y="22" type="line"/>
      <point x="54" y="40"/>
      <point x="43" y="67"/>
      <point x="43" y="104" type="curve" smooth="yes"/>
      <point x="43" y="596" type="line" smooth="yes"/>
      <point x="43" y="671"/>
      <point x="92" y="705"/>
      <point x="146" y="705" type="curve" smooth="yes"/>
      <point x="169" y="705"/>
      <point x="190" y="699"/>
      <point x="208" y="686" type="curve"/>
      <point x="223" y="760" type="line"/>
      <point x="236" y="760" type="line"/>
      <point x="219" y="677" type="line"/>
      <point x="238" y="660"/>
      <point x="249" y="633"/>
      <point x="249" y="596" type="curve" smooth="yes"/>
    </contour>
    <contour>
      <point x="204" y="667" type="line"/>
      <point x="191" y="685"/>
      <point x="171" y="695"/>
      <point x="146" y="695" type="curve" smooth="yes"/>
      <point x="101" y="695"/>
      <point x="73" y="663"/>
      <point x="73" y="612" type="curve" smooth="yes"/>
      <point x="73" y="88" type="line" smooth="yes"/>
      <point x="73" y="74"/>
      <point x="75" y="62"/>
      <point x="79" y="52" type="curve"/>
    </contour>
    <contour>
      <point x="219" y="88" type="curve" smooth="yes"/>
      <point x="219" y="612" type="line" smooth="yes"/>
      <point x="219" y="626"/>
      <point x="217" y="638"/>
      <point x="213" y="648" type="curve"/>
      <point x="88" y="33" type="line"/>
      <point x="101" y="15"/>
      <point x="121" y="5"/>
      <point x="146" y="5" type="curve" smooth="yes"/>
      <point x="191" y="5"/>
      <point x="219" y="37"/>
    </contour>
  </outline>
</glyph>
<glyph name="Thorn" format="1">
  <advance width="271"/>
  <unicode hex="00DE"/>
  <outline>
    <contour>
      <point x="238" y="276" type="line" smooth="yes"/>
      <point x="238" y="201"/>
      <point x="189" y="167"/>
      <point x="135" y="167" type="curve" smooth="yes"/>
      <point x="83" y="167" type="line"/>
      <point x="83" y="10" type="line"/>
      <point x="108" y="10" type="line"/>
      <point x="108" y="0" type="line"/>
      <point x="28" y="0" type="line"/>
      <point x="28" y="10" type="line"/>
      <point x="53" y="10" type="line"/>
      <point x="53" y="690" type="line"/>
      <point x="28" y="690" type="line"/>
      <point x="28" y="700" type="line"/>
      <point x="108" y="700" type="line"/>
      <point x="108" y="690" type="line"/>
      <point x="83" y="690" type="line"/>
      <point x="83" y="563" type="line"/>
      <point x="135" y="563" type="line" smooth="yes"/>
      <point x="189" y="563"/>
      <point x="238" y="529"/>
      <point x="238" y="454" type="curve" smooth="yes"/>
    </contour>
    <contour>
      <point x="208" y="260" type="curve" smooth="yes"/>
      <point x="208" y="470" type="line" smooth="yes"/>
      <point x="208" y="521"/>
      <point x="180" y="553"/>
      <point x="135" y="553" type="curve" smooth="yes"/>
      <point x="83" y="553" type="line"/>
      <point x="83" y="177" type="line"/>
      <point x="135" y="177" type="line" smooth="yes"/>
      <point x="180" y="177"/>
      <point x="208" y="209"/>
    </contour>
  </outline>
</glyph>
<glyph name="germandbls" format="1">
  <advance width="253"/>
  <unicode hex="00DF"/>
  <outline>
    <contour>
      <point x="218" y="92" type="line" smooth="yes"/>
      <point x="218" y="36"/>
      <point x="187" y="0"/>
      <point x="131" y="0" type="curve" smooth="yes"/>
      <point x="110" y="0" type="line"/>
      <point x="110" y="10" type="line"/>
      <point x="131" y="10" type="line" smooth="yes"/>
      <point x="169" y="10"/>
      <point x="188" y="35"/>
      <point x="188" y="76" type="curve" smooth="yes"/>
      <point x="188" y="282" type="line" smooth="yes"/>
      <point x="188" y="335"/>
      <point x="160" y="365"/>
      <point x="115" y="365" type="curve" smooth="yes"/>
      <point x="110" y="365" type="line"/>
      <point x="110" y="375" type="line"/>
      <point x="115" y="375" type="line" smooth="yes"/>
      <point x="160" y="375"/>
      <point x="188" y="405"/>
      <point x="188" y="458" type="curve" smooth="yes"/>
      <point x="188" y="629" type="line" smooth="yes"/>
      <point x="188" y="670"/>
      <point x="169" y="695"/>
      <point x="131" y="695" type="curve" smooth="yes"/>
      <point x="93" y="695"/>
      <point x="75" y="670"/>
      <point x="75" y="629" type="curve" smooth="yes"/>
      <point x="75" y="0" type="line"/>
      <point x="20" y="0" type="line"/>
      <point x="20" y="10" type="line"/>
      <point x="45" y="10" type="line"/>
      <point x="45" y="613" type="line" smooth="yes"/>
      <point x="45" y="669"/>
      <point x="75" y="705"/>
      <point x="131" y="705" type="curve" smooth="yes"/>
      <point x="187" y="705"/>
      <point x="218" y="669"/>
      <point x="218" y="613" type="curve" smooth="yes"/>
      <point x="218" y="474" type="line" smooth="yes"/>
      <point x="218" y="407"/>
      <point x="183" y="379"/>
      <point x="143" y="370" type="curve"/>
      <point x="183" y="361"/>
      <point x="218" y="332"/>
      <point x="218" y="266" type="curve" smooth="yes"/>
    </contour>
  </outline>
</glyph>
<glyph name="ae" format="1">
  <advance width="385"/>
  <unicode hex="00E6"/>
  <outline>
    <contour>
      <point x="350" y="87" type="line" smooth="yes"/>
      <point x="350" y="31"/>
      <point x="320" y="-5"/>
      <point x="261" y="-5" type="curve" smooth="yes"/>
      <point x="222" y="-5"/>
      <point x="199" y="12"/>
      <point x="187" y="36" type="curve"/>
      <point x="174" y="12"/>
      <point x="155" y="-5"/>
      <point x="117" y="-5" type="curve" smooth="yes"/>
      <point x="58" y="-5"/>
      <point x="33" y="31"/>
      <point x="33" y="87" type="curve" smooth="yes"/>
      <point x="33" y="208" type="line" smooth="yes"/>
      <point x="33" y="264"/>
      <point x="63" y="295"/>
      <point x="122" y="295" type="curve" smooth="yes"/>
      <point x="172" y="295" type="line"/>
      <point x="172" y="449" type="line" smooth="yes"/>
      <point x="172" y="490"/>
      <point x="157" y="515"/>
      <point x="119" y="515" type="curve" smooth="yes"/>
      <point x="81" y="515"/>
      <point x="66" y="490"/>
      <point x="66" y="449" type="curve" smooth="yes"/>
      <point x="66" y="361" type="line"/>
      <point x="36" y="361" type="line"/>
      <point x="36" y="433" type="line" smooth="yes"/>
      <point x="36" y="489"/>
      <point x="60" y="525"/>
      <point x="119" y="525" type="curve" smooth="yes"/>
      <point x="159" y="525"/>
      <point x="176" y="508"/>
      <point x="188" y="484" type="curve"/>
      <point x="200" y="508"/>
      <point x="222" y="525"/>
      <point x="261" y="525" type="curve" smooth="yes"/>
      <point x="320" y="525"/>
      <point x="350" y="489"/>
      <point x="350" y="433" type="curve" smooth="yes"/>
      <point x="350" y="256" type="line"/>
      <point x="202" y="256" type="line"/>
      <point x="202" y="71" type="line" smooth="yes"/>
      <point x="202" y="30"/>
      <point x="221" y="5"/>
      <point x="261" y="5" type="curve" smooth="yes"/>
      <point x="301" y="5"/>
      <point x="320" y="30"/>
      <point x="320" y="71" type="curve" smooth="yes"/>
      <point x="320" y="159" type="line"/>
      <point x="350" y="159" type="line"/>
    </contour>
    <contour>
      <point x="320" y="266" type="line"/>
      <point x="320" y="449" type="line" smooth="yes"/>
      <point x="320" y="490"/>
      <point x="301" y="515"/>
      <point x="261" y="515" type="curve" smooth="yes"/>
      <point x="221" y="515"/>
      <point x="202" y="490"/>
      <point x="202" y="449" type="curve" smooth="yes"/>
      <point x="202" y="266" type="line"/>
    </contour>
    <contour>
      <point x="172" y="71" type="curve" smooth="yes"/>
      <point x="172" y="285" type="line"/>
      <point x="119" y="285" type="line" smooth="yes"/>
      <point x="82" y="285"/>
      <point x="63" y="260"/>
      <point x="63" y="219" type="curve" smooth="yes"/>
      <point x="63" y="71" type="line" smooth="yes"/>
      <point x="63" y="30"/>
      <point x="79" y="5"/>
      <point x="117" y="5" type="curve" smooth="yes"/>
      <point x="155" y="5"/>
      <point x="172" y="30"/>
    </contour>
  </outline>
</glyph>
<glyph name="eth" format="1">
  <advance width="248"/>
  <unicode hex="00F0"/>
  <outline>
    <contour>
      <point x="236" y="652" type="line"/>
      <point x="213" y="640" type="line"/>
      <point x="213" y="637"/>
      <point x="213" y="634"/>
      <point x="213" y="631" type="curve" smooth="yes"/>
      <point x="213" y="87" type="line" smooth="yes"/>
      <point x="213" y="31"/>
      <point x="183" y="-5"/>
      <point x="124" y="-5" type="curve" smooth="yes"/>
      <point x="65" y="-5"/>
      <point x="35" y="31"/>
      <point x="35" y="87" type="curve" smooth="yes"/>
      <point x="35" y="440" type="line" smooth="yes"/>
      <point x="35" y="496"/>
      <point x="66" y="525"/>
      <point x="119" y="525" type="curve" smooth="yes"/>
      <point x="145" y="525"/>
      <point x="166" y="519"/>
      <point x="183" y="510" type="curve"/>
      <point x="183" y="624" type="line"/>
      <point x="110" y="586" type="line"/>
      <point x="110" y="598" type="line"/>
      <point x="183" y="636" type="line"/>
      <point x="183" y="639" type="line" smooth="yes"/>
      <point x="183" y="670"/>
      <point x="168" y="690"/>
      <point x="138" y="690" type="curve" smooth="yes"/>
      <point x="123" y="690" type="line"/>
      <point x="123" y="700" type="line"/>
      <point x="146" y="700" type="line" smooth="yes"/>
      <point x="183" y="700"/>
      <point x="205" y="681"/>
      <point x="211" y="651" type="curve"/>
      <point x="236" y="664" type="line"/>
    </contour>
    <contour>
      <point x="183" y="71" type="curve" smooth="yes"/>
      <point x="183" y="499" type="line"/>
      <point x="167" y="507"/>
      <point x="148" y="513"/>
      <point x="125" y="513" type="curve" smooth="yes"/>
      <point x="87" y="513"/>
      <point x="65" y="489"/>
      <point x="65" y="447" type="curve" smooth="yes"/>
      <point x="65" y="71" type="line" smooth="yes"/>
      <point x="65" y="30"/>
      <point x="84" y="5"/>
      <point x="124" y="5" type="curve" smooth="yes"/>
      <point x="164" y="5"/>
      <point x="183" y="30"/>
    </contour>
  </outline>
</glyph>
<glyph name="oslash" format="1">
  <advance width="247"/>
  <unicode hex="00F8"/>
  <outline>
    <contour>
      <point x="213" y="87" type="line" smooth="yes"/>
      <point x="213" y="31"/>
      <point x="183" y="-5"/>
      <point x="124" y="-5" type="curve" smooth="yes"/>
      <point x="105" y="-5"/>
      <point x="89" y="-1"/>
      <point x="76" y="6" type="curve"/>
      <point x="62" y="-60" type="line"/>
      <point x="49" y="-60" type="line"/>
      <point x="65" y="13" type="line"/>
      <point x="46" y="29"/>
      <point x="35" y="55"/>
      <point x="35" y="87" type="curve" smooth="yes"/>
      <point x="35" y="433" type="line" smooth="yes"/>
      <point x="35" y="489"/>
      <point x="65" y="525"/>
      <point x="124" y="525" type="curve" smooth="yes"/>
      <point x="143" y="525"/>
      <point x="160" y="521"/>
      <point x="172" y="514" type="curve"/>
      <point x="186" y="580" type="line"/>
      <point x="199" y="580" type="line"/>
      <point x="183" y="507" type="line"/>
      <point x="203" y="491"/>
      <point x="213" y="465"/>
      <point x="213" y="433" type="curve" smooth="yes"/>
    </contour>
    <contour>
      <point x="168" y="498" type="line"/>
      <point x="159" y="509"/>
      <point x="144" y="515"/>
      <point x="124" y="515" type="curve" smooth="yes"/>
      <point x="84" y="515"/>
      <point x="65" y="490"/>
      <point x="65" y="449" type="curve" smooth="yes"/>
      <point x="65" y="71" type="line" smooth="yes"/>
      <point x="65" y="59"/>
      <point x="67" y="48"/>
      <point x="70" y="39" type="curve"/>
    </contour>
    <contour>
      <point x="183" y="71" type="curve" smooth="yes"/>
      <point x="183" y="449" type="line" smooth="yes"/>
      <point x="183" y="461"/>
      <point x="181" y="472"/>
      <point x="178" y="481" type="curve"/>
      <point x="80" y="22" type="line"/>
      <point x="90" y="11"/>
      <point x="104" y="5"/>
      <point x="124" y="5" type="curve" smooth="yes"/>
      <point x="164" y="5"/>
      <point x="183" y="30"/>
    </contour>
  </outline>
</glyph>
<glyph name="thorn" format="1">
  <advance width="249"/>
  <unicode hex="00FE"/>
  <outline>
    <contour>
      <point x="213" y="70" type="line" smooth="yes"/>
      <point x="213" y="20"/>
      <point x="191" y="-5"/>
      <point x="144" y="-5" type="curve" smooth="yes"/>
      <point x="110" y="-5"/>
      <point x="88" y="6"/>
      <point x="70" y="19" type="curve"/>
      <point x="70" y="-130" type="line"/>
      <point x="95" y="-130" type="line"/>
      <point x="95" y="-140" type="line"/>
      <point x="15" y="-140" type="line"/>
      <point x="15" y="-130" type="line"/>
      <point x="40" y="-130" type="line"/>
      <point x="40" y="690" type="line"/>
      <point x="15" y="690" type="line"/>
      <point x="15" y="700" type="line"/>
      <point x="70" y="700" type="line"/>
      <point x="70" y="501" type="line"/>
      <point x="88" y="514"/>
      <point x="110" y="525"/>
      <point x="144" y="525" type="curve" smooth="yes"/>
      <point x="191" y="525"/>
      <point x="213" y="500"/>
      <point x="213" y="450" type="curve" smooth="yes"/>
    </contour>
    <contour>
      <point x="183" y="65" type="curve" smooth="yes"/>
      <point x="183" y="455" type="line" smooth="yes"/>
      <point x="183" y="494"/>
      <point x="169" y="513"/>
      <point x="135" y="513" type="curve" smooth="yes"/>
      <point x="113" y="513"/>
      <point x="89" y="504"/>
      <point x="70" y="488" type="curve"/>
      <point x="70" y="32" type="line"/>
      <point x="89" y="16"/>
      <point x="113" y="7"/>
      <point x="135" y="7" type="curve" smooth="yes"/>
      <point x="169" y="7"/>
      <point x="183" y="26"/>
    </contour>
  </outline>
</glyph>
<glyph name="dotlessi" format="1">
  <advance width="124"/>
  <unicode hex="0131"/>
  <outline>
    <contour>
      <point x="103" y="0" type="line"/>
      <point x="23" y="0" type="line"/>
      <point x="23" y="10" type="line"/>
      <point x="48" y="10" type="line"/>
      <point x="48" y="510" type="line"/>
      <point x="23" y="510" type="line"/>
      <point x="23" y="520" type="line"/>
      <point x="78" y="520" type="line"/>
      <point x="78" y="10" type="line"/>
      <point x="103" y="10" type="line"/>
    </contour>
  </outline>
</glyph>
<glyph name="Lslash" format="1">
  <advance width="259"/>
  <unicode hex="0141"/>
  <outline>
    <contour>
      <point x="228" y="0" type="line"/>
      <point x="28" y="0" type="line"/>
      <point x="28" y="10" type="line"/>
      <point x="53" y="10" type="line"/>
      <point x="53" y="338" type="line"/>
      <point x="28" y="323" type="line"/>
      <point x="28" y="336" type="line"/>
      <point x="53" y="351" type="line"/>
      <point x="53" y="690" type="line"/>
      <point x="28" y="690" type="line"/>
      <point x="28" y="700" type="line"/>
      <point x="108" y="700" type="line"/>
      <point x="108" y="690" type="line"/>
      <point x="83" y="690" type="line"/>
      <point x="83" y="369" type="line"/>
      <point x="143" y="406" type="line"/>
      <point x="143" y="393" type="line"/>
      <point x="83" y="356" type="line"/>
      <point x="83" y="10" type="line"/>
      <point x="198" y="10" type="line"/>
      <point x="198" y="210" type="line"/>
      <point x="228" y="210" type="line"/>
    </contour>
  </outline>
</glyph>
<glyph name="OE" format="1">
  <advance width="432"/>
  <unicode hex="0152"/>
  <outline>
    <contour>
      <point x="392" y="0" type="line"/>
      <point x="146" y="0" type="line" smooth="yes"/>
      <point x="92" y="0"/>
      <point x="43" y="34"/>
      <point x="43" y="109" type="curve" smooth="yes"/>
      <point x="43" y="591" type="line" smooth="yes"/>
      <point x="43" y="666"/>
      <point x="92" y="700"/>
      <point x="146" y="700" type="curve" smooth="yes"/>
      <point x="392" y="700" type="line"/>
      <point x="392" y="490" type="line"/>
      <point x="362" y="490" type="line"/>
      <point x="362" y="690" type="line"/>
      <point x="239" y="690" type="line"/>
      <point x="239" y="375" type="line"/>
      <point x="333" y="375" type="line"/>
      <point x="333" y="365" type="line"/>
      <point x="239" y="365" type="line"/>
      <point x="239" y="10" type="line"/>
      <point x="362" y="10" type="line"/>
      <point x="362" y="210" type="line"/>
      <point x="392" y="210" type="line"/>
    </contour>
    <contour>
      <point x="209" y="10" type="line"/>
      <point x="209" y="690" type="line"/>
      <point x="146" y="690" type="line" smooth="yes"/>
      <point x="101" y="690"/>
      <point x="73" y="658"/>
      <point x="73" y="607" type="curve" smooth="yes"/>
      <point x="73" y="93" type="line" smooth="yes"/>
      <point x="73" y="42"/>
      <point x="101" y="10"/>
      <point x="146" y="10" type="curve" smooth="yes"/>
    </contour>
  </outline>
</glyph>
<glyph name="oe" format="1">
  <advance width="396"/>
  <unicode hex="0153"/>
  <outline>
    <contour>
      <point x="361" y="87" type="line" smooth="yes"/>
      <point x="361" y="31"/>
      <point x="331" y="-5"/>
      <point x="272" y="-5" type="curve" smooth="yes"/>
      <point x="231" y="-5"/>
      <point x="211" y="13"/>
      <point x="198" y="35" type="curve"/>
      <point x="185" y="13"/>
      <point x="165" y="-5"/>
      <point x="124" y="-5" type="curve" smooth="yes"/>
      <point x="65" y="-5"/>
      <point x="35" y="31"/>
      <point x="35" y="87" type="curve" smooth="yes"/>
      <point x="35" y="433" type="line" smooth="yes"/>
      <point x="35" y="489"/>
      <point x="65" y="525"/>
      <point x="124" y="525" type="curve" smooth="yes"/>
      <point x="165" y="525"/>
      <point x="185" y="507"/>
      <point x="198" y="485" type="curve"/>
      <point x="211" y="507"/>
      <point x="231" y="525"/>
      <point x="272" y="525" type="curve" smooth="yes"/>
      <point x="331" y="525"/>
      <point x="361" y="489"/>
      <point x="361" y="433" type="curve" smooth="yes"/>
      <point x="361" y="256" type="line"/>
      <point x="213" y="256" type="line"/>
      <point x="213" y="71" type="line" smooth="yes"/>
      <point x="213" y="30"/>
      <point x="232" y="5"/>
      <point x="272" y="5" type="curve" smooth="yes"/>
      <point x="312" y="5"/>
      <point x="331" y="30"/>
      <point x="331" y="71" type="curve" smooth="yes"/>
      <point x="331" y="159" type="line"/>
      <point x="361" y="159" type="line"/>
    </contour>
    <contour>
      <point x="331" y="266" type="line"/>
      <point x="331" y="449" type="line" smooth="yes"/>
      <point x="331" y="490"/>
      <point x="312" y="515"/>
      <point x="272" y="515" type="curve" smooth="yes"/>
      <point x="232" y="515"/>
      <point x="213" y="490"/>
      <point x="213" y="449" type="curve" smooth="yes"/>
      <point x="213" y="266" type="line"/>
    </contour>
    <contour>
      <point x="183" y="71" type="curve" smooth="yes"/>
      <point x="183" y="449" type="line" smooth="yes"/>
      <point x="183" y="490"/>
      <point x="164" y="515"/>
      <point x="124" y="515" type="curve" smooth="yes"/>
      <point x="84" y="515"/>
      <point x="65" y="490"/>
      <point x="65" y="449" type="curve" smooth="yes"/>
      <point x="65" y="71" type="line" smooth="yes"/>
      <point x="65" y="30"/>
      <point x="84" y="5"/>
      <point x="124" y="5" type="curve" smooth="yes"/>
      <point x="164" y="5"/>
      <point x="183" y="30"/>
    </contour>
  </outline>
</glyph>
<glyph name="florin" format="1">
  <advance width="148"/>
  <unicode hex="0192"/>
  <outline>
    <contour>
      <point x="133" y="690" type="line"/>
      <point x="123" y="690" type="line" smooth="yes"/>
      <point x="93" y="690"/>
      <point x="78" y="670"/>
      <point x="78" y="639" type="curve" smooth="yes"/>
      <point x="78" y="520" type="line"/>
      <point x="118" y="520" type="line"/>
      <point x="118" y="510" type="line"/>
      <point x="78" y="510" type="line"/>
      <point x="78" y="-71" type="line" smooth="yes"/>
      <point x="78" y="-113"/>
      <point x="55" y="-140"/>
      <point x="11" y="-140" type="curve" smooth="yes"/>
      <point x="-7" y="-140" type="line"/>
      <point x="-7" y="-130" type="line"/>
      <point x="3" y="-130" type="line" smooth="yes"/>
      <point x="33" y="-130"/>
      <point x="48" y="-110"/>
      <point x="48" y="-79" type="curve" smooth="yes"/>
      <point x="48" y="510" type="line"/>
      <point x="23" y="510" type="line"/>
      <point x="23" y="520" type="line"/>
      <point x="48" y="520" type="line"/>
      <point x="48" y="631" type="line" smooth="yes"/>
      <point x="48" y="673"/>
      <point x="71" y="700"/>
      <point x="115" y="700" type="curve" smooth="yes"/>
      <point x="133" y="700" type="line"/>
    </contour>
  </outline>
</glyph>
<glyph name="circumflex" format="1">
  <advance width="300"/>
  <unicode hex="02C6"/>
  <outline>
    <contour>
      <point x="223" y="550" type="line"/>
      <point x="213" y="550" type="line"/>
      <point x="150" y="621" type="line"/>
      <point x="87" y="550" type="line"/>
      <point x="77" y="550" type="line"/>
      <point x="144" y="660" type="line"/>
      <point x="156" y="660" type="line"/>
    </contour>
  </outline>
</glyph>
<glyph name="caron" format="1">
  <advance width="300"/>
  <unicode hex="02C7"/>
  <outline>
    <contour>
      <point x="223" y="660" type="line"/>
      <point x="156" y="550" type="line"/>
      <point x="144" y="550" type="line"/>
      <point x="77" y="660" type="line"/>
      <point x="87" y="660" type="line"/>
      <point x="150" y="589" type="line"/>
      <point x="213" y="660" type="line"/>
    </contour>
  </outline>
</glyph>
<glyph name="breve" format="1">
  <advance width="300"/>
  <unicode hex="02D8"/>
  <outline>
    <contour>
      <point x="219" y="622" type="line" smooth="yes"/>
      <point x="219" y="586"/>
      <point x="195" y="560"/>
      <point x="150" y="560" type="curve" smooth="yes"/>
      <point x="105" y="560"/>
      <point x="81" y="586"/>
      <point x="81" y="622" type="curve" smooth="yes"/>
      <point x="81" y="624" type="line"/>
      <point x="111" y="624" type="line"/>
      <point x="111" y="615" type="line" smooth="yes"/>
      <point x="111" y="587"/>
      <point x="124" y="570"/>
      <point x="150" y="570" type="curve" smooth="yes"/>
      <point x="176" y="570"/>
      <point x="189" y="587"/>
      <point x="189" y="615" type="curve" smooth="yes"/>
      <point x="189" y="624" type="line"/>
      <point x="219" y="624" type="line"/>
    </contour>
  </outline>
</glyph>
<glyph name="ring" format="1">
  <advance width="300"/>
  <unicode hex="02DA"/>
  <outline>
    <contour>
      <point x="215" y="605" type="curve" smooth="yes"/>
      <point x="215" y="571"/>
      <point x="191" y="550"/>
      <point x="150" y="550" type="curve" smooth="yes"/>
      <point x="109" y="550"/>
      <point x="85" y="571"/>
      <point x="85" y="605" type="curve" smooth="yes"/>
      <point x="85" y="639"/>
      <point x="109" y="660"/>
      <point x="150" y="660" type="curve" smooth="yes"/>
      <point x="191" y="660"/>
      <point x="215" y="639"/>
    </contour>
    <contour>
      <point x="187" y="602" type="curve" smooth="yes"/>
      <point x="187" y="608" type="line" smooth="yes"/>
      <point x="187" y="636"/>
      <point x="173" y="651"/>
      <point x="150" y="651" type="curve" smooth="yes"/>
      <point x="127" y="651"/>
      <point x="113" y="636"/>
      <point x="113" y="608" type="curve" smooth="yes"/>
      <point x="113" y="602" type="line" smooth="yes"/>
      <point x="113" y="574"/>
      <point x="127" y="559"/>
      <point x="150" y="559" type="curve" smooth="yes"/>
      <point x="173" y="559"/>
      <point x="187" y="574"/>
    </contour>
  </outline>
</glyph>
<glyph name="ogonek" format="1">
  <advance width="300"/>
  <unicode hex="02DB"/>
  <outline>
    <contour>
      <point x="217" y="-85" type="line"/>
      <point x="199" y="-85" type="line" smooth="yes"/>
      <point x="155" y="-85"/>
      <point x="132" y="-58"/>
      <point x="132" y="-16" type="curve" smooth="yes"/>
      <point x="132" y="0" type="line"/>
      <point x="162" y="0" type="line"/>
      <point x="162" y="-24" type="line" smooth="yes"/>
      <point x="162" y="-55"/>
      <point x="177" y="-75"/>
      <point x="207" y="-75" type="curve" smooth="yes"/>
      <point x="217" y="-75" type="line"/>
    </contour>
  </outline>
</glyph>
<glyph name="tilde" format="1">
  <advance width="300"/>
  <unicode hex="02DC"/>
  <outline>
    <contour>
      <point x="223" y="617" type="line"/>
      <point x="221" y="607" type="line" smooth="yes"/>
      <point x="215" y="578"/>
      <point x="200" y="563"/>
      <point x="170" y="572" type="curve" smooth="yes"/>
      <point x="124" y="586" type="line" smooth="yes"/>
      <point x="100" y="593"/>
      <point x="92" y="584"/>
      <point x="86" y="566" type="curve"/>
      <point x="77" y="568" type="line"/>
      <point x="79" y="578" type="line" smooth="yes"/>
      <point x="85" y="607"/>
      <point x="100" y="622"/>
      <point x="130" y="613" type="curve" smooth="yes"/>
      <point x="176" y="599" type="line" smooth="yes"/>
      <point x="200" y="592"/>
      <point x="208" y="601"/>
      <point x="214" y="619" type="curve"/>
    </contour>
  </outline>
</glyph>
<glyph name="hungarumlaut" format="1">
  <advance width="300"/>
  <unicode hex="02DD"/>
  <outline>
    <contour>
      <point x="224" y="655" type="line"/>
      <point x="150" y="550" type="line"/>
      <point x="140" y="550" type="line"/>
      <point x="191" y="660" type="line"/>
      <point x="224" y="660" type="line"/>
    </contour>
    <contour>
      <point x="152" y="655" type="line"/>
      <point x="78" y="550" type="line"/>
      <point x="68" y="550" type="line"/>
      <point x="119" y="660" type="line"/>
      <point x="152" y="660" type="line"/>
    </contour>
  </outline>
</glyph>
<glyph name="endash" format="1">
  <advance width="200"/>
  <unicode hex="2013"/>
  <outline>
    <contour>
      <point x="180" y="364" type="line"/>
      <point x="20" y="364" type="line"/>
      <point x="20" y="376" type="line"/>
      <point x="180" y="376" type="line"/>
    </contour>
  </outline>
</glyph>
<glyph name="emdash" format="1">
  <advance width="300"/>
  <unicode hex="2014"/>
  <outline>
    <contour>
      <point x="280" y="364" type="line"/>
      <point x="20" y="364" type="line"/>
      <point x="20" y="376" type="line"/>
      <point x="280" y="376" type="line"/>
    </contour>
  </outline>
</glyph>
<glyph name="quoteleft" format="1">
  <advance width="114"/>
  <unicode hex="2018"/>
  <unicode hex="02BB"/>
  <outline>
    <contour>
      <point x="79" y="702" type="line"/>
      <point x="69" y="522" type="line"/>
      <point x="37" y="522" type="line"/>
      <point x="37" y="542" type="line"/>
      <point x="71" y="702" type="line"/>
    </contour>
  </outline>
</glyph>
<glyph name="quoteright" format="1">
  <advance width="114"/>
  <unicode hex="2019"/>
  <unicode hex="02BC"/>
  <outline>
    <contour>
      <point x="77" y="680" type="line"/>
      <point x="43" y="520" type="line"/>
      <point x="35" y="520" type="line"/>
      <point x="45" y="700" type="line"/>
      <point x="77" y="700" type="line"/>
    </contour>
  </outline>
</glyph>
<glyph name="quotesinglbase" format="1">
  <advance width="114"/>
  <unicode hex="201A"/>
  <outline>
    <contour>
      <point x="77" y="65" type="line"/>
      <point x="43" y="-95" type="line"/>
      <point x="35" y="-95" type="line"/>
      <point x="45" y="85" type="line"/>
      <point x="77" y="85" type="line"/>
    </contour>
  </outline>
</glyph>
<glyph name="quotedblleft" format="1">
  <advance width="190"/>
  <unicode hex="201C"/>
  <outline>
    <contour>
      <point x="157" y="702" type="line"/>
      <point x="147" y="522" type="line"/>
      <point x="115" y="522" type="line"/>
      <point x="115" y="542" type="line"/>
      <point x="149" y="702" type="line"/>
    </contour>
    <contour>
      <point x="77" y="702" type="line"/>
      <point x="67" y="522" type="line"/>
      <point x="35" y="522" type="line"/>
      <point x="35" y="542" type="line"/>
      <point x="69" y="702" type="line"/>
    </contour>
  </outline>
</glyph>
<glyph name="quotedblright" format="1">
  <advance width="190"/>
  <unicode hex="201D"/>
  <outline>
    <contour>
      <point x="155" y="680" type="line"/>
      <point x="121" y="520" type="line"/>
      <point x="113" y="520" type="line"/>
      <point x="123" y="700" type="line"/>
      <point x="155" y="700" type="line"/>
    </contour>
    <contour>
      <point x="75" y="680" type="line"/>
      <point x="41" y="520" type="line"/>
      <point x="33" y="520" type="line"/>
      <point x="43" y="700" type="line"/>
      <point x="75" y="700" type="line"/>
    </contour>
  </outline>
</glyph>
<glyph name="quotedblbase" format="1">
  <advance width="190"/>
  <unicode hex="201E"/>
  <outline>
    <contour>
      <point x="155" y="65" type="line"/>
      <point x="121" y="-95" type="line"/>
      <point x="113" y="-95" type="line"/>
      <point x="123" y="85" type="line"/>
      <point x="155" y="85" type="line"/>
    </contour>
    <contour>
      <point x="75" y="65" type="line"/>
      <point x="41" y="-95" type="line"/>
      <point x="33" y="-95" type="line"/>
      <point x="43" y="85" type="line"/>
      <point x="75" y="85" type="line"/>
    </contour>
  </outline>
</glyph>
<glyph name="daggerdbl" format="1">
  <advance width="230"/>
  <unicode hex="2021"/>
  <outline>
    <contour>
      <point x="215" y="266" type="line"/>
      <point x="130" y="266" type="line"/>
      <point x="120" y="0" type="line"/>
      <point x="110" y="0" type="line"/>
      <point x="100" y="266" type="line"/>
      <point x="15" y="266" type="line"/>
      <point x="15" y="276" type="line"/>
      <point x="100" y="276" type="line"/>
      <point x="100" y="490" type="line"/>
      <point x="15" y="490" type="line"/>
      <point x="15" y="500" type="line"/>
      <point x="100" y="500" type="line"/>
      <point x="100" y="690" type="line"/>
      <point x="75" y="690" type="line"/>
      <point x="75" y="700" type="line"/>
      <point x="155" y="700" type="line"/>
      <point x="155" y="690" type="line"/>
      <point x="130" y="690" type="line"/>
      <point x="130" y="500" type="line"/>
      <point x="215" y="500" type="line"/>
      <point x="215" y="490" type="line"/>
      <point x="130" y="490" type="line"/>
      <point x="130" y="276" type="line"/>
      <point x="215" y="276" type="line"/>
    </contour>
  </outline>
</glyph>
<glyph name="ellipsis" format="1">
  <advance width="330"/>
  <unicode hex="2026"/>
  <outline>
    <contour>
      <point x="290" y="0" type="line"/>
      <point x="260" y="0" type="line"/>
      <point x="260" y="85" type="line"/>
      <point x="290" y="85" type="line"/>
    </contour>
    <contour>
      <point x="180" y="0" type="line"/>
      <point x="150" y="0" type="line"/>
      <point x="150" y="85" type="line"/>
      <point x="180" y="85" type="line"/>
    </contour>
    <contour>
      <point x="70" y="0" type="line"/>
      <point x="40" y="0" type="line"/>
      <point x="40" y="85" type="line"/>
      <point x="70" y="85" type="line"/>
    </contour>
  </outline>
</glyph>
<glyph name="perthousand" format="1">
  <advance width="678"/>
  <unicode hex="2030"/>
  <outline>
    <contour>
      <point x="641" y="82" type="line" smooth="yes"/>
      <point x="641" y="26"/>
      <point x="609" y="-5"/>
      <point x="562" y="-5" type="curve" smooth="yes"/>
      <point x="515" y="-5"/>
      <point x="483" y="26"/>
      <point x="483" y="82" type="curve" smooth="yes"/>
      <point x="483" y="318" type="line" smooth="yes"/>
      <point x="483" y="374"/>
      <point x="515" y="405"/>
      <point x="562" y="405" type="curve" smooth="yes"/>
      <point x="609" y="405"/>
      <point x="641" y="374"/>
      <point x="641" y="318" type="curve" smooth="yes"/>
    </contour>
    <contour>
      <point x="195" y="382" type="line" smooth="yes"/>
      <point x="195" y="326"/>
      <point x="163" y="295"/>
      <point x="116" y="295" type="curve" smooth="yes"/>
      <point x="69" y="295"/>
      <point x="37" y="326"/>
      <point x="37" y="382" type="curve" smooth="yes"/>
      <point x="37" y="618" type="line" smooth="yes"/>
      <point x="37" y="674"/>
      <point x="69" y="705"/>
      <point x="116" y="705" type="curve" smooth="yes"/>
      <point x="163" y="705"/>
      <point x="195" y="674"/>
      <point x="195" y="618" type="curve" smooth="yes"/>
    </contour>
    <contour>
      <point x="372" y="700" type="line"/>
      <point x="112" y="0" type="line"/>
      <point x="98" y="0" type="line"/>
      <point x="358" y="700" type="line"/>
    </contour>
    <contour>
      <point x="433" y="82" type="line" smooth="yes"/>
      <point x="433" y="26"/>
      <point x="401" y="-5"/>
      <point x="354" y="-5" type="curve" smooth="yes"/>
      <point x="307" y="-5"/>
      <point x="275" y="26"/>
      <point x="275" y="82" type="curve" smooth="yes"/>
      <point x="275" y="318" type="line" smooth="yes"/>
      <point x="275" y="374"/>
      <point x="307" y="405"/>
      <point x="354" y="405" type="curve" smooth="yes"/>
      <point x="401" y="405"/>
      <point x="433" y="374"/>
      <point x="433" y="318" type="curve" smooth="yes"/>
    </contour>
    <contour>
      <point x="611" y="66" type="curve" smooth="yes"/>
      <point x="611" y="334" type="line" smooth="yes"/>
      <point x="611" y="373"/>
      <point x="594" y="395"/>
      <point x="562" y="395" type="curve" smooth="yes"/>
      <point x="530" y="395"/>
      <point x="513" y="373"/>
      <point x="513" y="334" type="curve" smooth="yes"/>
      <point x="513" y="66" type="line" smooth="yes"/>
      <point x="513" y="27"/>
      <point x="530" y="5"/>
      <point x="562" y="5" type="curve" smooth="yes"/>
      <point x="594" y="5"/>
      <point x="611" y="27"/>
    </contour>
    <contour>
      <point x="165" y="366" type="curve" smooth="yes"/>
      <point x="165" y="634" type="line" smooth="yes"/>
      <point x="165" y="673"/>
      <point x="148" y="695"/>
      <point x="116" y="695" type="curve" smooth="yes"/>
      <point x="84" y="695"/>
      <point x="67" y="673"/>
      <point x="67" y="634" type="curve" smooth="yes"/>
      <point x="67" y="366" type="line" smooth="yes"/>
      <point x="67" y="327"/>
      <point x="84" y="305"/>
      <point x="116" y="305" type="curve" smooth="yes"/>
      <point x="148" y="305"/>
      <point x="165" y="327"/>
    </contour>
    <contour>
      <point x="403" y="66" type="curve" smooth="yes"/>
      <point x="403" y="334" type="line" smooth="yes"/>
      <point x="403" y="373"/>
      <point x="386" y="395"/>
      <point x="354" y="395" type="curve" smooth="yes"/>
      <point x="322" y="395"/>
      <point x="305" y="373"/>
      <point x="305" y="334" type="curve" smooth="yes"/>
      <point x="305" y="66" type="line" smooth="yes"/>
      <point x="305" y="27"/>
      <point x="322" y="5"/>
      <point x="354" y="5" type="curve" smooth="yes"/>
      <point x="386" y="5"/>
      <point x="403" y="27"/>
    </contour>
  </outline>
</glyph>
<glyph name="guilsinglleft" format="1">
  <advance width="156"/>
  <unicode hex="2039"/>
  <outline>
    <contour>
      <point x="128" y="141" type="line"/>
      <point x="118" y="141" type="line"/>
      <point x="26" y="325" type="line"/>
      <point x="26" y="335" type="line"/>
      <point x="118" y="520" type="line"/>
      <point x="128" y="520" type="line"/>
      <point x="58" y="330" type="line"/>
    </contour>
  </outline>
</glyph>
<glyph name="guilsinglright" format="1">
  <advance width="156"/>
  <unicode hex="203A"/>
  <outline>
    <contour>
      <point x="130" y="325" type="line"/>
      <point x="38" y="141" type="line"/>
      <point x="28" y="141" type="line"/>
      <point x="98" y="330" type="line"/>
      <point x="28" y="520" type="line"/>
      <point x="38" y="520" type="line"/>
      <point x="130" y="335" type="line"/>
    </contour>
  </outline>
</glyph>
<glyph name="Euro" format="1">
  <advance width="276"/>
  <unicode hex="20AC"/>
  <outline>
    <contour>
      <point x="73" y="323" type="line"/>
      <point x="73" y="85" type="line" smooth="yes"/>
      <point x="73" y="34"/>
      <point x="96" y="5"/>
      <point x="141" y="5" type="curve" smooth="yes"/>
      <point x="186" y="5"/>
      <point x="209" y="34"/>
      <point x="209" y="85" type="curve" smooth="yes"/>
      <point x="209" y="210" type="line"/>
      <point x="239" y="210" type="line"/>
      <point x="239" y="101" type="line" smooth="yes"/>
      <point x="239" y="26"/>
      <point x="195" y="-5"/>
      <point x="141" y="-5" type="curve" smooth="yes"/>
      <point x="87" y="-5"/>
      <point x="43" y="26"/>
      <point x="43" y="101" type="curve" smooth="yes"/>
      <point x="43" y="323" type="line"/>
      <point x="18" y="323" type="line"/>
      <point x="18" y="333" type="line"/>
      <point x="43" y="333" type="line"/>
      <point x="43" y="374" type="line"/>
      <point x="18" y="374" type="line"/>
      <point x="18" y="384" type="line"/>
      <point x="43" y="384" type="line"/>
      <point x="43" y="599" type="line" smooth="yes"/>
      <point x="43" y="674"/>
      <point x="87" y="705"/>
      <point x="141" y="705" type="curve" smooth="yes"/>
      <point x="195" y="705"/>
      <point x="239" y="674"/>
      <point x="239" y="599" type="curve" smooth="yes"/>
      <point x="239" y="490" type="line"/>
      <point x="209" y="490" type="line"/>
      <point x="209" y="615" type="line" smooth="yes"/>
      <point x="209" y="666"/>
      <point x="186" y="695"/>
      <point x="141" y="695" type="curve" smooth="yes"/>
      <point x="96" y="695"/>
      <point x="73" y="666"/>
      <point x="73" y="615" type="curve" smooth="yes"/>
      <point x="73" y="384" type="line"/>
      <point x="188" y="384" type="line"/>
      <point x="188" y="374" type="line"/>
      <point x="73" y="374" type="line"/>
      <point x="73" y="333" type="line"/>
      <point x="188" y="333" type="line"/>
      <point x="188" y="323" type="line"/>
    </contour>
  </outline>
</glyph>
<glyph name="uni2117" format="1">
  <advance width="368"/>
  <unicode hex="2117"/>
  <outline>
    <contour>
      <point x="333" y="134" type="line" smooth="yes"/>
      <point x="333" y="58"/>
      <point x="274" y="-5"/>
      <point x="184" y="-5" type="curve" smooth="yes"/>
      <point x="94" y="-5"/>
      <point x="35" y="58"/>
      <point x="35" y="134" type="curve" smooth="yes"/>
      <point x="35" y="566" type="line" smooth="yes"/>
      <point x="35" y="642"/>
      <point x="94" y="705"/>
      <point x="184" y="705" type="curve" smooth="yes"/>
      <point x="274" y="705"/>
      <point x="333" y="642"/>
      <point x="333" y="566" type="curve" smooth="yes"/>
    </contour>
    <contour>
      <point x="320" y="131" type="curve" smooth="yes"/>
      <point x="320" y="569" type="line" smooth="yes"/>
      <point x="320" y="638"/>
      <point x="266" y="694"/>
      <point x="184" y="694" type="curve" smooth="yes"/>
      <point x="102" y="694"/>
      <point x="48" y="638"/>
      <point x="48" y="569" type="curve" smooth="yes"/>
      <point x="48" y="131" type="line" smooth="yes"/>
      <point x="48" y="62"/>
      <point x="102" y="6"/>
      <point x="184" y="6" type="curve" smooth="yes"/>
      <point x="266" y="6"/>
      <point x="320" y="62"/>
    </contour>
    <contour>
      <point x="256" y="397" type="line" smooth="yes"/>
      <point x="256" y="344"/>
      <point x="222" y="320"/>
      <point x="184" y="320" type="curve" smooth="yes"/>
      <point x="148" y="320" type="line"/>
      <point x="148" y="115" type="line"/>
      <point x="165" y="115" type="line"/>
      <point x="165" y="108" type="line"/>
      <point x="107" y="108" type="line"/>
      <point x="107" y="115" type="line"/>
      <point x="125" y="115" type="line"/>
      <point x="125" y="591" type="line"/>
      <point x="107" y="591" type="line"/>
      <point x="107" y="598" type="line"/>
      <point x="184" y="598" type="line" smooth="yes"/>
      <point x="222" y="598"/>
      <point x="256" y="574"/>
      <point x="256" y="521" type="curve" smooth="yes"/>
    </contour>
    <contour>
      <point x="233" y="385" type="curve" smooth="yes"/>
      <point x="233" y="532" type="line" smooth="yes"/>
      <point x="233" y="568"/>
      <point x="214" y="591"/>
      <point x="182" y="591" type="curve" smooth="yes"/>
      <point x="148" y="591" type="line"/>
      <point x="148" y="327" type="line"/>
      <point x="182" y="327" type="line" smooth="yes"/>
      <point x="214" y="327"/>
      <point x="233" y="350"/>
    </contour>
  </outline>
</glyph>
<glyph name="trademark" format="1">
  <advance width="465"/>
  <unicode hex="2122"/>
  <outline>
    <contour>
      <point x="444" y="290" type="line"/>
      <point x="387" y="290" type="line"/>
      <point x="387" y="297" type="line"/>
      <point x="405" y="297" type="line"/>
      <point x="405" y="645" type="line"/>
      <point x="337" y="290" type="line"/>
      <point x="326" y="290" type="line"/>
      <point x="258" y="645" type="line"/>
      <point x="258" y="297" type="line"/>
      <point x="276" y="297" type="line"/>
      <point x="276" y="290" type="line"/>
      <point x="228" y="290" type="line"/>
      <point x="228" y="297" type="line"/>
      <point x="246" y="297" type="line"/>
      <point x="246" y="693" type="line"/>
      <point x="228" y="693" type="line"/>
      <point x="228" y="700" type="line"/>
      <point x="271" y="700" type="line"/>
      <point x="336" y="348" type="line"/>
      <point x="404" y="700" type="line"/>
      <point x="444" y="700" type="line"/>
      <point x="444" y="693" type="line"/>
      <point x="426" y="693" type="line"/>
      <point x="426" y="297" type="line"/>
      <point x="444" y="297" type="line"/>
    </contour>
    <contour>
      <point x="193" y="553" type="line"/>
      <point x="170" y="553" type="line"/>
      <point x="170" y="693" type="line"/>
      <point x="119" y="693" type="line"/>
      <point x="119" y="297" type="line"/>
      <point x="136" y="297" type="line"/>
      <point x="136" y="290" type="line"/>
      <point x="78" y="290" type="line"/>
      <point x="78" y="297" type="line"/>
      <point x="96" y="297" type="line"/>
      <point x="96" y="693" type="line"/>
      <point x="49" y="693" type="line"/>
      <point x="49" y="553" type="line"/>
      <point x="26" y="553" type="line"/>
      <point x="26" y="700" type="line"/>
      <point x="193" y="700" type="line"/>
    </contour>
  </outline>
</glyph>
<glyph name="radical" format="1">
  <advance width="245"/>
  <unicode hex="221A"/>
  <outline>
    <contour>
      <point x="234" y="700" type="line"/>
      <point x="139" y="-3" type="line"/>
      <point x="118" y="-3" type="line"/>
      <point x="35" y="289" type="line"/>
      <point x="12" y="289" type="line"/>
      <point x="12" y="299" type="line"/>
      <point x="64" y="299" type="line"/>
      <point x="132" y="46" type="line"/>
      <point x="219" y="700" type="line"/>
    </contour>
  </outline>
</glyph>
<glyph name="apple" format="1">
  <advance width="265"/>
  <unicode hex="F8FF"/>
  <outline>
    <contour>
      <point x="246" y="0" type="line"/>
      <point x="165" y="0" type="line"/>
      <point x="165" y="10" type="line"/>
      <point x="190" y="10" type="line"/>
      <point x="128" y="140" type="line"/>
      <point x="58" y="10" type="line"/>
      <point x="83" y="10" type="line"/>
      <point x="83" y="0" type="line"/>
      <point x="19" y="0" type="line"/>
      <point x="19" y="10" type="line"/>
      <point x="44" y="10" type="line"/>
      <point x="120" y="153" type="line"/>
      <point x="23" y="350" type="line"/>
      <point x="121" y="530" type="line"/>
      <point x="44" y="690" type="line"/>
      <point x="19" y="690" type="line"/>
      <point x="19" y="700" type="line"/>
      <point x="100" y="700" type="line"/>
      <point x="100" y="690" type="line"/>
      <point x="75" y="690" type="line"/>
      <point x="137" y="560" type="line"/>
      <point x="207" y="690" type="line"/>
      <point x="182" y="690" type="line"/>
      <point x="182" y="700" type="line"/>
      <point x="246" y="700" type="line"/>
      <point x="246" y="690" type="line"/>
      <point x="221" y="690" type="line"/>
      <point x="145" y="547" type="line"/>
      <point x="242" y="350" type="line"/>
      <point x="144" y="170" type="line"/>
      <point x="221" y="10" type="line"/>
      <point x="246" y="10" type="line"/>
    </contour>
    <contour>
      <point x="218" y="334" type="line"/>
      <point x="128" y="517" type="line"/>
      <point x="47" y="366" type="line"/>
      <point x="137" y="183" type="line"/>
    </contour>
  </outline>
</glyph>
<glyph name="f_f" format="1">
  <advance width="266"/>
  <unicode hex="FB00"/>
  <outline>
    <contour>
      <point x="266" y="690" type="line"/>
      <point x="256" y="690" type="line" smooth="yes"/>
      <point x="226" y="690"/>
      <point x="211" y="670"/>
      <point x="211" y="639" type="curve" smooth="yes"/>
      <point x="211" y="520" type="line"/>
      <point x="251" y="520" type="line"/>
      <point x="251" y="510" type="line"/>
      <point x="211" y="510" type="line"/>
      <point x="211" y="10" type="line"/>
      <point x="236" y="10" type="line"/>
      <point x="236" y="0" type="line"/>
      <point x="156" y="0" type="line"/>
      <point x="156" y="10" type="line"/>
      <point x="181" y="10" type="line"/>
      <point x="181" y="510" type="line"/>
      <point x="75" y="510" type="line"/>
      <point x="75" y="10" type="line"/>
      <point x="100" y="10" type="line"/>
      <point x="100" y="0" type="line"/>
      <point x="20" y="0" type="line"/>
      <point x="20" y="10" type="line"/>
      <point x="45" y="10" type="line"/>
      <point x="45" y="510" type="line"/>
      <point x="20" y="510" type="line"/>
      <point x="20" y="520" type="line"/>
      <point x="45" y="520" type="line"/>
      <point x="45" y="631" type="line" smooth="yes"/>
      <point x="45" y="673"/>
      <point x="68" y="700"/>
      <point x="112" y="700" type="curve" smooth="yes"/>
      <point x="130" y="700" type="line"/>
      <point x="130" y="690" type="line"/>
      <point x="120" y="690" type="line" smooth="yes"/>
      <point x="90" y="690"/>
      <point x="75" y="670"/>
      <point x="75" y="639" type="curve" smooth="yes"/>
      <point x="75" y="520" type="line"/>
      <point x="181" y="520" type="line"/>
      <point x="181" y="631" type="line" smooth="yes"/>
      <point x="181" y="673"/>
      <point x="204" y="700"/>
      <point x="248" y="700" type="curve" smooth="yes"/>
      <point x="266" y="700" type="line"/>
    </contour>
  </outline>
</glyph>
<glyph name="AE.sc" format="1">
  <advance width="363"/>
  <outline>
    <contour>
      <point x="329" y="0" type="line"/>
      <point x="143" y="0" type="line"/>
      <point x="143" y="10" type="line"/>
      <point x="168" y="10" type="line"/>
      <point x="168" y="148" type="line"/>
      <point x="78" y="148" type="line"/>
      <point x="44" y="10" type="line"/>
      <point x="69" y="10" type="line"/>
      <point x="69" y="0" type="line"/>
      <point x="3" y="0" type="line"/>
      <point x="3" y="10" type="line"/>
      <point x="28" y="10" type="line"/>
      <point x="152" y="510" type="line"/>
      <point x="125" y="510" type="line"/>
      <point x="125" y="520" type="line"/>
      <point x="329" y="520" type="line"/>
      <point x="329" y="361" type="line"/>
      <point x="299" y="361" type="line"/>
      <point x="299" y="510" type="line"/>
      <point x="198" y="510" type="line"/>
      <point x="198" y="275" type="line"/>
      <point x="276" y="275" type="line"/>
      <point x="276" y="265" type="line"/>
      <point x="198" y="265" type="line"/>
      <point x="198" y="10" type="line"/>
      <point x="299" y="10" type="line"/>
      <point x="299" y="159" type="line"/>
      <point x="329" y="159" type="line"/>
    </contour>
    <contour>
      <point x="168" y="158" type="line"/>
      <point x="168" y="510" type="line"/>
      <point x="81" y="158" type="line"/>
    </contour>
  </outline>
</glyph>
<glyph name="A.sc" format="1">
  <advance width="250"/>
  <outline>
    <contour>
      <point x="237" y="0" type="line"/>
      <point x="156" y="0" type="line"/>
      <point x="156" y="10" type="line"/>
      <point x="181" y="10" type="line"/>
      <point x="162" y="148" type="line"/>
      <point x="74" y="148" type="line"/>
      <point x="54" y="10" type="line"/>
      <point x="79" y="10" type="line"/>
      <point x="79" y="0" type="line"/>
      <point x="13" y="0" type="line"/>
      <point x="13" y="10" type="line"/>
      <point x="38" y="10" type="line"/>
      <point x="114" y="523" type="line"/>
      <point x="136" y="523" type="line"/>
      <point x="212" y="10" type="line"/>
      <point x="237" y="10" type="line"/>
    </contour>
    <contour>
      <point x="160" y="158" type="line"/>
      <point x="118" y="460" type="line"/>
      <point x="75" y="158" type="line"/>
    </contour>
  </outline>
</glyph>
<glyph name="B.sc" format="1">
  <advance width="245"/>
  <outline>
    <contour>
      <point x="210" y="92" type="line" smooth="yes"/>
      <point x="210" y="36"/>
      <point x="180" y="0"/>
      <point x="121" y="0" type="curve" smooth="yes"/>
      <point x="20" y="0" type="line"/>
      <point x="20" y="10" type="line"/>
      <point x="45" y="10" type="line"/>
      <point x="45" y="510" type="line"/>
      <point x="20" y="510" type="line"/>
      <point x="20" y="520" type="line"/>
      <point x="119" y="520" type="line" smooth="yes"/>
      <point x="178" y="520"/>
      <point x="208" y="484"/>
      <point x="208" y="428" type="curve" smooth="yes"/>
      <point x="208" y="357" type="line" smooth="yes"/>
      <point x="208" y="312"/>
      <point x="187" y="281"/>
      <point x="148" y="270" type="curve"/>
      <point x="189" y="261"/>
      <point x="210" y="227"/>
      <point x="210" y="183" type="curve" smooth="yes"/>
    </contour>
    <contour>
      <point x="178" y="341" type="curve" smooth="yes"/>
      <point x="178" y="444" type="line" smooth="yes"/>
      <point x="178" y="485"/>
      <point x="159" y="510"/>
      <point x="119" y="510" type="curve" smooth="yes"/>
      <point x="75" y="510" type="line"/>
      <point x="75" y="275" type="line"/>
      <point x="119" y="275" type="line" smooth="yes"/>
      <point x="159" y="275"/>
      <point x="178" y="300"/>
    </contour>
    <contour>
      <point x="180" y="76" type="curve" smooth="yes"/>
      <point x="180" y="199" type="line" smooth="yes"/>
      <point x="180" y="240"/>
      <point x="161" y="265"/>
      <point x="121" y="265" type="curve" smooth="yes"/>
      <point x="75" y="265" type="line"/>
      <point x="75" y="10" type="line"/>
      <point x="121" y="10" type="line" smooth="yes"/>
      <point x="161" y="10"/>
      <point x="180" y="35"/>
    </contour>
  </outline>
</glyph>
<glyph name="Ccedilla.sc" format="1">
  <advance width="246"/>
  <outline>
    <contour>
      <point x="213" y="87" type="line" smooth="yes"/>
      <point x="213" y="32"/>
      <point x="184" y="-4"/>
      <point x="127" y="-5" type="curve"/>
      <point x="113" y="-28" type="line"/>
      <point x="115" y="-28" type="line" smooth="yes"/>
      <point x="145" y="-28"/>
      <point x="168" y="-36"/>
      <point x="168" y="-67" type="curve" smooth="yes"/>
      <point x="168" y="-98"/>
      <point x="140" y="-106"/>
      <point x="107" y="-106" type="curve" smooth="yes"/>
      <point x="80" y="-106" type="line"/>
      <point x="80" y="-96" type="line"/>
      <point x="103" y="-96" type="line" smooth="yes"/>
      <point x="132" y="-96"/>
      <point x="140" y="-87"/>
      <point x="140" y="-67" type="curve" smooth="yes"/>
      <point x="140" y="-47"/>
      <point x="132" y="-38"/>
      <point x="103" y="-38" type="curve" smooth="yes"/>
      <point x="96" y="-38" type="line"/>
      <point x="96" y="-32" type="line"/>
      <point x="112" y="-5" type="line"/>
      <point x="61" y="0"/>
      <point x="35" y="35"/>
      <point x="35" y="87" type="curve" smooth="yes"/>
      <point x="35" y="433" type="line" smooth="yes"/>
      <point x="35" y="489"/>
      <point x="65" y="525"/>
      <point x="124" y="525" type="curve" smooth="yes"/>
      <point x="183" y="525"/>
      <point x="213" y="489"/>
      <point x="213" y="433" type="curve" smooth="yes"/>
      <point x="213" y="361" type="line"/>
      <point x="183" y="361" type="line"/>
      <point x="183" y="449" type="line" smooth="yes"/>
      <point x="183" y="490"/>
      <point x="164" y="515"/>
      <point x="124" y="515" type="curve" smooth="yes"/>
      <point x="84" y="515"/>
      <point x="65" y="490"/>
      <point x="65" y="449" type="curve" smooth="yes"/>
      <point x="65" y="71" type="line" smooth="yes"/>
      <point x="65" y="30"/>
      <point x="84" y="5"/>
      <point x="124" y="5" type="curve" smooth="yes"/>
      <point x="164" y="5"/>
      <point x="183" y="30"/>
      <point x="183" y="71" type="curve" smooth="yes"/>
      <point x="183" y="159" type="line"/>
      <point x="213" y="159" type="line"/>
    </contour>
  </outline>
</glyph>
<glyph name="D.sc" format="1">
  <advance width="252"/>
  <outline>
    <contour>
      <point x="217" y="92" type="line" smooth="yes"/>
      <point x="217" y="36"/>
      <point x="187" y="0"/>
      <point x="128" y="0" type="curve" smooth="yes"/>
      <point x="20" y="0" type="line"/>
      <point x="20" y="10" type="line"/>
      <point x="45" y="10" type="line"/>
      <point x="45" y="510" type="line"/>
      <point x="20" y="510" type="line"/>
      <point x="20" y="520" type="line"/>
      <point x="128" y="520" type="line" smooth="yes"/>
      <point x="187" y="520"/>
      <point x="217" y="484"/>
      <point x="217" y="428" type="curve" smooth="yes"/>
    </contour>
    <contour>
      <point x="187" y="76" type="curve" smooth="yes"/>
      <point x="187" y="444" type="line" smooth="yes"/>
      <point x="187" y="485"/>
      <point x="168" y="510"/>
      <point x="128" y="510" type="curve" smooth="yes"/>
      <point x="75" y="510" type="line"/>
      <point x="75" y="10" type="line"/>
      <point x="128" y="10" type="line" smooth="yes"/>
      <point x="168" y="10"/>
      <point x="187" y="35"/>
    </contour>
  </outline>
</glyph>
<glyph name="E.sc" format="1">
  <advance width="240"/>
  <outline>
    <contour>
      <point x="206" y="0" type="line"/>
      <point x="20" y="0" type="line"/>
      <point x="20" y="10" type="line"/>
      <point x="45" y="10" type="line"/>
      <point x="45" y="510" type="line"/>
      <point x="20" y="510" type="line"/>
      <point x="20" y="520" type="line"/>
      <point x="206" y="520" type="line"/>
      <point x="206" y="361" type="line"/>
      <point x="176" y="361" type="line"/>
      <point x="176" y="510" type="line"/>
      <point x="75" y="510" type="line"/>
      <point x="75" y="275" type="line"/>
      <point x="153" y="275" type="line"/>
      <point x="153" y="265" type="line"/>
      <point x="75" y="265" type="line"/>
      <point x="75" y="10" type="line"/>
      <point x="176" y="10" type="line"/>
      <point x="176" y="159" type="line"/>
      <point x="206" y="159" type="line"/>
    </contour>
  </outline>
</glyph>
<glyph name="F.sc" format="1">
  <advance width="226"/>
  <outline>
    <contour>
      <point x="201" y="361" type="line"/>
      <point x="171" y="361" type="line"/>
      <point x="171" y="510" type="line"/>
      <point x="75" y="510" type="line"/>
      <point x="75" y="275" type="line"/>
      <point x="148" y="275" type="line"/>
      <point x="148" y="265" type="line"/>
      <point x="75" y="265" type="line"/>
      <point x="75" y="10" type="line"/>
      <point x="100" y="10" type="line"/>
      <point x="100" y="0" type="line"/>
      <point x="20" y="0" type="line"/>
      <point x="20" y="10" type="line"/>
      <point x="45" y="10" type="line"/>
      <point x="45" y="510" type="line"/>
      <point x="20" y="510" type="line"/>
      <point x="20" y="520" type="line"/>
      <point x="201" y="520" type="line"/>
    </contour>
  </outline>
</glyph>
<glyph name="H.sc" format="1">
  <advance width="263"/>
  <outline>
    <contour>
      <point x="243" y="0" type="line"/>
      <point x="163" y="0" type="line"/>
      <point x="163" y="10" type="line"/>
      <point x="188" y="10" type="line"/>
      <point x="188" y="265" type="line"/>
      <point x="75" y="265" type="line"/>
      <point x="75" y="10" type="line"/>
      <point x="100" y="10" type="line"/>
      <point x="100" y="0" type="line"/>
      <point x="20" y="0" type="line"/>
      <point x="20" y="10" type="line"/>
      <point x="45" y="10" type="line"/>
      <point x="45" y="510" type="line"/>
      <point x="20" y="510" type="line"/>
      <point x="20" y="520" type="line"/>
      <point x="100" y="520" type="line"/>
      <point x="100" y="510" type="line"/>
      <point x="75" y="510" type="line"/>
      <point x="75" y="275" type="line"/>
      <point x="188" y="275" type="line"/>
      <point x="188" y="510" type="line"/>
      <point x="163" y="510" type="line"/>
      <point x="163" y="520" type="line"/>
      <point x="243" y="520" type="line"/>
      <point x="243" y="510" type="line"/>
      <point x="218" y="510" type="line"/>
      <point x="218" y="10" type="line"/>
      <point x="243" y="10" type="line"/>
    </contour>
  </outline>
</glyph>
<glyph name="J.sc" format="1">
  <advance width="228"/>
  <outline>
    <contour>
      <point x="209" y="510" type="line"/>
      <point x="184" y="510" type="line"/>
      <point x="184" y="82" type="line" smooth="yes"/>
      <point x="184" y="26"/>
      <point x="155" y="-5"/>
      <point x="102" y="-5" type="curve" smooth="yes"/>
      <point x="49" y="-5"/>
      <point x="20" y="26"/>
      <point x="20" y="82" type="curve" smooth="yes"/>
      <point x="20" y="159" type="line"/>
      <point x="50" y="159" type="line"/>
      <point x="50" y="66" type="line" smooth="yes"/>
      <point x="50" y="25"/>
      <point x="67" y="5"/>
      <point x="102" y="5" type="curve" smooth="yes"/>
      <point x="137" y="5"/>
      <point x="154" y="25"/>
      <point x="154" y="66" type="curve" smooth="yes"/>
      <point x="154" y="510" type="line"/>
      <point x="129" y="510" type="line"/>
      <point x="129" y="520" type="line"/>
      <point x="209" y="520" type="line"/>
    </contour>
  </outline>
</glyph>
<glyph name="K.sc" format="1">
  <advance width="238"/>
  <outline>
    <contour>
      <point x="236" y="0" type="line"/>
      <point x="183" y="0" type="line"/>
      <point x="75" y="262" type="line"/>
      <point x="75" y="10" type="line"/>
      <point x="100" y="10" type="line"/>
      <point x="100" y="0" type="line"/>
      <point x="20" y="0" type="line"/>
      <point x="20" y="10" type="line"/>
      <point x="45" y="10" type="line"/>
      <point x="45" y="510" type="line"/>
      <point x="20" y="510" type="line"/>
      <point x="20" y="520" type="line"/>
      <point x="100" y="520" type="line"/>
      <point x="100" y="510" type="line"/>
      <point x="75" y="510" type="line"/>
      <point x="75" y="273" type="line"/>
      <point x="185" y="510" type="line"/>
      <point x="160" y="510" type="line"/>
      <point x="160" y="520" type="line"/>
      <point x="225" y="520" type="line"/>
      <point x="225" y="510" type="line"/>
      <point x="200" y="510" type="line"/>
      <point x="97" y="287" type="line"/>
      <point x="211" y="10" type="line"/>
      <point x="236" y="10" type="line"/>
    </contour>
  </outline>
</glyph>
<glyph name="L.sc" format="1">
  <advance width="226"/>
  <outline>
    <contour>
      <point x="201" y="0" type="line"/>
      <point x="20" y="0" type="line"/>
      <point x="20" y="10" type="line"/>
      <point x="45" y="10" type="line"/>
      <point x="45" y="510" type="line"/>
      <point x="20" y="510" type="line"/>
      <point x="20" y="520" type="line"/>
      <point x="100" y="520" type="line"/>
      <point x="100" y="510" type="line"/>
      <point x="75" y="510" type="line"/>
      <point x="75" y="10" type="line"/>
      <point x="171" y="10" type="line"/>
      <point x="171" y="159" type="line"/>
      <point x="201" y="159" type="line"/>
    </contour>
  </outline>
</glyph>
<glyph name="Lslash.sc" format="1">
  <advance width="226"/>
  <outline>
    <contour>
      <point x="201" y="0" type="line"/>
      <point x="20" y="0" type="line"/>
      <point x="20" y="10" type="line"/>
      <point x="45" y="10" type="line"/>
      <point x="45" y="224" type="line"/>
      <point x="20" y="209" type="line"/>
      <point x="20" y="222" type="line"/>
      <point x="45" y="237" type="line"/>
      <point x="45" y="510" type="line"/>
      <point x="20" y="510" type="line"/>
      <point x="20" y="520" type="line"/>
      <point x="100" y="520" type="line"/>
      <point x="100" y="510" type="line"/>
      <point x="75" y="510" type="line"/>
      <point x="75" y="255" type="line"/>
      <point x="135" y="292" type="line"/>
      <point x="135" y="279" type="line"/>
      <point x="75" y="242" type="line"/>
      <point x="75" y="10" type="line"/>
      <point x="171" y="10" type="line"/>
      <point x="171" y="159" type="line"/>
      <point x="201" y="159" type="line"/>
    </contour>
  </outline>
</glyph>
<glyph name="M.sc" format="1">
  <advance width="300"/>
  <outline>
    <contour>
      <point x="280" y="0" type="line"/>
      <point x="200" y="0" type="line"/>
      <point x="200" y="10" type="line"/>
      <point x="225" y="10" type="line"/>
      <point x="225" y="398" type="line"/>
      <point x="154" y="0" type="line"/>
      <point x="132" y="0" type="line"/>
      <point x="61" y="398" type="line"/>
      <point x="61" y="10" type="line"/>
      <point x="86" y="10" type="line"/>
      <point x="86" y="0" type="line"/>
      <point x="20" y="0" type="line"/>
      <point x="20" y="10" type="line"/>
      <point x="45" y="10" type="line"/>
      <point x="45" y="510" type="line"/>
      <point x="20" y="510" type="line"/>
      <point x="20" y="520" type="line"/>
      <point x="72" y="520" type="line"/>
      <point x="149" y="53" type="line"/>
      <point x="230" y="520" type="line"/>
      <point x="280" y="520" type="line"/>
      <point x="280" y="510" type="line"/>
      <point x="255" y="510" type="line"/>
      <point x="255" y="10" type="line"/>
      <point x="280" y="10" type="line"/>
    </contour>
  </outline>
</glyph>
<glyph name="N.sc" format="1">
  <advance width="246"/>
  <outline>
    <contour>
      <point x="228" y="510" type="line"/>
      <point x="203" y="510" type="line"/>
      <point x="203" y="0" type="line"/>
      <point x="185" y="0" type="line"/>
      <point x="61" y="464" type="line"/>
      <point x="61" y="10" type="line"/>
      <point x="86" y="10" type="line"/>
      <point x="86" y="0" type="line"/>
      <point x="20" y="0" type="line"/>
      <point x="20" y="10" type="line"/>
      <point x="45" y="10" type="line"/>
      <point x="45" y="510" type="line"/>
      <point x="20" y="510" type="line"/>
      <point x="20" y="520" type="line"/>
      <point x="75" y="520" type="line"/>
      <point x="187" y="103" type="line"/>
      <point x="187" y="510" type="line"/>
      <point x="162" y="510" type="line"/>
      <point x="162" y="520" type="line"/>
      <point x="228" y="520" type="line"/>
    </contour>
  </outline>
</glyph>
<glyph name="OE.sc" format="1">
  <advance width="372"/>
  <outline>
    <contour>
      <point x="338" y="0" type="line"/>
      <point x="124" y="0" type="line" smooth="yes"/>
      <point x="65" y="0"/>
      <point x="35" y="36"/>
      <point x="35" y="92" type="curve" smooth="yes"/>
      <point x="35" y="428" type="line" smooth="yes"/>
      <point x="35" y="484"/>
      <point x="65" y="520"/>
      <point x="124" y="520" type="curve" smooth="yes"/>
      <point x="338" y="520" type="line"/>
      <point x="338" y="361" type="line"/>
      <point x="308" y="361" type="line"/>
      <point x="308" y="510" type="line"/>
      <point x="207" y="510" type="line"/>
      <point x="207" y="275" type="line"/>
      <point x="285" y="275" type="line"/>
      <point x="285" y="265" type="line"/>
      <point x="207" y="265" type="line"/>
      <point x="207" y="10" type="line"/>
      <point x="308" y="10" type="line"/>
      <point x="308" y="159" type="line"/>
      <point x="338" y="159" type="line"/>
    </contour>
    <contour>
      <point x="177" y="10" type="line"/>
      <point x="177" y="510" type="line"/>
      <point x="124" y="510" type="line" smooth="yes"/>
      <point x="84" y="510"/>
      <point x="65" y="485"/>
      <point x="65" y="444" type="curve" smooth="yes"/>
      <point x="65" y="76" type="line" smooth="yes"/>
      <point x="65" y="35"/>
      <point x="84" y="10"/>
      <point x="124" y="10" type="curve" smooth="yes"/>
    </contour>
  </outline>
</glyph>
<glyph name="P.sc" format="1">
  <advance width="233"/>
  <outline>
    <contour>
      <point x="210" y="316" type="line" smooth="yes"/>
      <point x="210" y="260"/>
      <point x="180" y="224"/>
      <point x="121" y="224" type="curve" smooth="yes"/>
      <point x="75" y="224" type="line"/>
      <point x="75" y="10" type="line"/>
      <point x="100" y="10" type="line"/>
      <point x="100" y="0" type="line"/>
      <point x="20" y="0" type="line"/>
      <point x="20" y="10" type="line"/>
      <point x="45" y="10" type="line"/>
      <point x="45" y="510" type="line"/>
      <point x="20" y="510" type="line"/>
      <point x="20" y="520" type="line"/>
      <point x="121" y="520" type="line" smooth="yes"/>
      <point x="180" y="520"/>
      <point x="210" y="484"/>
      <point x="210" y="428" type="curve" smooth="yes"/>
    </contour>
    <contour>
      <point x="180" y="300" type="curve" smooth="yes"/>
      <point x="180" y="444" type="line" smooth="yes"/>
      <point x="180" y="485"/>
      <point x="161" y="510"/>
      <point x="121" y="510" type="curve" smooth="yes"/>
      <point x="75" y="510" type="line"/>
      <point x="75" y="234" type="line"/>
      <point x="121" y="234" type="line" smooth="yes"/>
      <point x="161" y="234"/>
      <point x="180" y="259"/>
    </contour>
  </outline>
</glyph>
<glyph name="Q.sc" format="1">
  <advance width="248"/>
  <outline>
    <contour>
      <point x="213" y="87" type="line" smooth="yes"/>
      <point x="213" y="33"/>
      <point x="185" y="-3"/>
      <point x="130" y="-5" type="curve"/>
      <point x="130" y="-90" type="line"/>
      <point x="118" y="-90" type="line"/>
      <point x="118" y="-5" type="line"/>
      <point x="63" y="-3"/>
      <point x="35" y="33"/>
      <point x="35" y="87" type="curve" smooth="yes"/>
      <point x="35" y="433" type="line" smooth="yes"/>
      <point x="35" y="489"/>
      <point x="65" y="525"/>
      <point x="124" y="525" type="curve" smooth="yes"/>
      <point x="183" y="525"/>
      <point x="213" y="489"/>
      <point x="213" y="433" type="curve" smooth="yes"/>
    </contour>
    <contour>
      <point x="183" y="71" type="curve" smooth="yes"/>
      <point x="183" y="449" type="line" smooth="yes"/>
      <point x="183" y="490"/>
      <point x="164" y="515"/>
      <point x="124" y="515" type="curve" smooth="yes"/>
      <point x="84" y="515"/>
      <point x="65" y="490"/>
      <point x="65" y="449" type="curve" smooth="yes"/>
      <point x="65" y="71" type="line" smooth="yes"/>
      <point x="65" y="32"/>
      <point x="82" y="8"/>
      <point x="118" y="5" type="curve"/>
      <point x="118" y="112" type="line"/>
      <point x="130" y="112" type="line"/>
      <point x="130" y="5" type="line"/>
      <point x="166" y="8"/>
      <point x="183" y="32"/>
    </contour>
  </outline>
</glyph>
<glyph name="S.sc" format="1">
  <advance width="236"/>
  <outline>
    <contour>
      <point x="204" y="87" type="line" smooth="yes"/>
      <point x="204" y="31"/>
      <point x="177" y="-5"/>
      <point x="118" y="-5" type="curve" smooth="yes"/>
      <point x="59" y="-5"/>
      <point x="32" y="31"/>
      <point x="32" y="87" type="curve" smooth="yes"/>
      <point x="32" y="159" type="line"/>
      <point x="62" y="159" type="line"/>
      <point x="62" y="71" type="line" smooth="yes"/>
      <point x="62" y="30"/>
      <point x="78" y="5"/>
      <point x="118" y="5" type="curve" smooth="yes"/>
      <point x="158" y="5"/>
      <point x="176" y="29"/>
      <point x="176" y="71" type="curve" smooth="yes"/>
      <point x="176" y="109" type="line" smooth="yes"/>
      <point x="176" y="172"/>
      <point x="165" y="185"/>
      <point x="140" y="214" type="curve" smooth="yes"/>
      <point x="70" y="294" type="line" smooth="yes"/>
      <point x="39" y="330"/>
      <point x="32" y="357"/>
      <point x="32" y="408" type="curve" smooth="yes"/>
      <point x="32" y="433" type="line" smooth="yes"/>
      <point x="32" y="489"/>
      <point x="59" y="525"/>
      <point x="118" y="525" type="curve" smooth="yes"/>
      <point x="177" y="525"/>
      <point x="204" y="489"/>
      <point x="204" y="433" type="curve" smooth="yes"/>
      <point x="204" y="361" type="line"/>
      <point x="174" y="361" type="line"/>
      <point x="174" y="449" type="line" smooth="yes"/>
      <point x="174" y="490"/>
      <point x="158" y="515"/>
      <point x="118" y="515" type="curve" smooth="yes"/>
      <point x="78" y="515"/>
      <point x="60" y="491"/>
      <point x="60" y="449" type="curve" smooth="yes"/>
      <point x="60" y="417" type="line" smooth="yes"/>
      <point x="60" y="354"/>
      <point x="71" y="341"/>
      <point x="96" y="312" type="curve" smooth="yes"/>
      <point x="166" y="232" type="line" smooth="yes"/>
      <point x="198" y="196"/>
      <point x="204" y="169"/>
      <point x="204" y="118" type="curve" smooth="yes"/>
    </contour>
  </outline>
</glyph>
